%TF.GenerationSoftware,KiCad,Pcbnew,9.0.4*%
%TF.CreationDate,2026-01-25T17:31:58-03:00*%
%TF.ProjectId,power_supply_linear_regulator_lm317,706f7765-725f-4737-9570-706c795f6c69,rev?*%
%TF.SameCoordinates,Original*%
%TF.FileFunction,Legend,Top*%
%TF.FilePolarity,Positive*%
%FSLAX46Y46*%
G04 Gerber Fmt 4.6, Leading zero omitted, Abs format (unit mm)*
G04 Created by KiCad (PCBNEW 9.0.4) date 2026-01-25 17:31:58*
%MOMM*%
%LPD*%
G01*
G04 APERTURE LIST*
%ADD10C,0.150000*%
%ADD11C,0.120000*%
G04 APERTURE END LIST*
D10*
X99360588Y-92369819D02*
X98789160Y-92369819D01*
X99074874Y-92369819D02*
X99074874Y-91369819D01*
X99074874Y-91369819D02*
X98979636Y-91512676D01*
X98979636Y-91512676D02*
X98884398Y-91607914D01*
X98884398Y-91607914D02*
X98789160Y-91655533D01*
X99789160Y-92274580D02*
X99836779Y-92322200D01*
X99836779Y-92322200D02*
X99789160Y-92369819D01*
X99789160Y-92369819D02*
X99741541Y-92322200D01*
X99741541Y-92322200D02*
X99789160Y-92274580D01*
X99789160Y-92274580D02*
X99789160Y-92369819D01*
X100217731Y-91465057D02*
X100265350Y-91417438D01*
X100265350Y-91417438D02*
X100360588Y-91369819D01*
X100360588Y-91369819D02*
X100598683Y-91369819D01*
X100598683Y-91369819D02*
X100693921Y-91417438D01*
X100693921Y-91417438D02*
X100741540Y-91465057D01*
X100741540Y-91465057D02*
X100789159Y-91560295D01*
X100789159Y-91560295D02*
X100789159Y-91655533D01*
X100789159Y-91655533D02*
X100741540Y-91798390D01*
X100741540Y-91798390D02*
X100170112Y-92369819D01*
X100170112Y-92369819D02*
X100789159Y-92369819D01*
X101693921Y-91369819D02*
X101217731Y-91369819D01*
X101217731Y-91369819D02*
X101170112Y-91846009D01*
X101170112Y-91846009D02*
X101217731Y-91798390D01*
X101217731Y-91798390D02*
X101312969Y-91750771D01*
X101312969Y-91750771D02*
X101551064Y-91750771D01*
X101551064Y-91750771D02*
X101646302Y-91798390D01*
X101646302Y-91798390D02*
X101693921Y-91846009D01*
X101693921Y-91846009D02*
X101741540Y-91941247D01*
X101741540Y-91941247D02*
X101741540Y-92179342D01*
X101741540Y-92179342D02*
X101693921Y-92274580D01*
X101693921Y-92274580D02*
X101646302Y-92322200D01*
X101646302Y-92322200D02*
X101551064Y-92369819D01*
X101551064Y-92369819D02*
X101312969Y-92369819D01*
X101312969Y-92369819D02*
X101217731Y-92322200D01*
X101217731Y-92322200D02*
X101170112Y-92274580D01*
X102170112Y-91988866D02*
X102932017Y-91988866D01*
X103312969Y-91369819D02*
X103932016Y-91369819D01*
X103932016Y-91369819D02*
X103598683Y-91750771D01*
X103598683Y-91750771D02*
X103741540Y-91750771D01*
X103741540Y-91750771D02*
X103836778Y-91798390D01*
X103836778Y-91798390D02*
X103884397Y-91846009D01*
X103884397Y-91846009D02*
X103932016Y-91941247D01*
X103932016Y-91941247D02*
X103932016Y-92179342D01*
X103932016Y-92179342D02*
X103884397Y-92274580D01*
X103884397Y-92274580D02*
X103836778Y-92322200D01*
X103836778Y-92322200D02*
X103741540Y-92369819D01*
X103741540Y-92369819D02*
X103455826Y-92369819D01*
X103455826Y-92369819D02*
X103360588Y-92322200D01*
X103360588Y-92322200D02*
X103312969Y-92274580D01*
X104265350Y-91369819D02*
X104932016Y-91369819D01*
X104932016Y-91369819D02*
X104503445Y-92369819D01*
X105170112Y-91369819D02*
X105503445Y-92369819D01*
X105503445Y-92369819D02*
X105836778Y-91369819D01*
X106884397Y-91322200D02*
X106027255Y-92607914D01*
X107741540Y-92369819D02*
X107170112Y-92369819D01*
X107455826Y-92369819D02*
X107455826Y-91369819D01*
X107455826Y-91369819D02*
X107360588Y-91512676D01*
X107360588Y-91512676D02*
X107265350Y-91607914D01*
X107265350Y-91607914D02*
X107170112Y-91655533D01*
X108122493Y-92084104D02*
X108598683Y-92084104D01*
X108027255Y-92369819D02*
X108360588Y-91369819D01*
X108360588Y-91369819D02*
X108693921Y-92369819D01*
X109789160Y-92369819D02*
X109789160Y-91369819D01*
X109789160Y-91369819D02*
X110170112Y-91369819D01*
X110170112Y-91369819D02*
X110265350Y-91417438D01*
X110265350Y-91417438D02*
X110312969Y-91465057D01*
X110312969Y-91465057D02*
X110360588Y-91560295D01*
X110360588Y-91560295D02*
X110360588Y-91703152D01*
X110360588Y-91703152D02*
X110312969Y-91798390D01*
X110312969Y-91798390D02*
X110265350Y-91846009D01*
X110265350Y-91846009D02*
X110170112Y-91893628D01*
X110170112Y-91893628D02*
X109789160Y-91893628D01*
X110932017Y-92369819D02*
X110836779Y-92322200D01*
X110836779Y-92322200D02*
X110789160Y-92274580D01*
X110789160Y-92274580D02*
X110741541Y-92179342D01*
X110741541Y-92179342D02*
X110741541Y-91893628D01*
X110741541Y-91893628D02*
X110789160Y-91798390D01*
X110789160Y-91798390D02*
X110836779Y-91750771D01*
X110836779Y-91750771D02*
X110932017Y-91703152D01*
X110932017Y-91703152D02*
X111074874Y-91703152D01*
X111074874Y-91703152D02*
X111170112Y-91750771D01*
X111170112Y-91750771D02*
X111217731Y-91798390D01*
X111217731Y-91798390D02*
X111265350Y-91893628D01*
X111265350Y-91893628D02*
X111265350Y-92179342D01*
X111265350Y-92179342D02*
X111217731Y-92274580D01*
X111217731Y-92274580D02*
X111170112Y-92322200D01*
X111170112Y-92322200D02*
X111074874Y-92369819D01*
X111074874Y-92369819D02*
X110932017Y-92369819D01*
X111598684Y-91703152D02*
X111789160Y-92369819D01*
X111789160Y-92369819D02*
X111979636Y-91893628D01*
X111979636Y-91893628D02*
X112170112Y-92369819D01*
X112170112Y-92369819D02*
X112360588Y-91703152D01*
X113122493Y-92322200D02*
X113027255Y-92369819D01*
X113027255Y-92369819D02*
X112836779Y-92369819D01*
X112836779Y-92369819D02*
X112741541Y-92322200D01*
X112741541Y-92322200D02*
X112693922Y-92226961D01*
X112693922Y-92226961D02*
X112693922Y-91846009D01*
X112693922Y-91846009D02*
X112741541Y-91750771D01*
X112741541Y-91750771D02*
X112836779Y-91703152D01*
X112836779Y-91703152D02*
X113027255Y-91703152D01*
X113027255Y-91703152D02*
X113122493Y-91750771D01*
X113122493Y-91750771D02*
X113170112Y-91846009D01*
X113170112Y-91846009D02*
X113170112Y-91941247D01*
X113170112Y-91941247D02*
X112693922Y-92036485D01*
X113598684Y-92369819D02*
X113598684Y-91703152D01*
X113598684Y-91893628D02*
X113646303Y-91798390D01*
X113646303Y-91798390D02*
X113693922Y-91750771D01*
X113693922Y-91750771D02*
X113789160Y-91703152D01*
X113789160Y-91703152D02*
X113884398Y-91703152D01*
X114932018Y-92322200D02*
X115074875Y-92369819D01*
X115074875Y-92369819D02*
X115312970Y-92369819D01*
X115312970Y-92369819D02*
X115408208Y-92322200D01*
X115408208Y-92322200D02*
X115455827Y-92274580D01*
X115455827Y-92274580D02*
X115503446Y-92179342D01*
X115503446Y-92179342D02*
X115503446Y-92084104D01*
X115503446Y-92084104D02*
X115455827Y-91988866D01*
X115455827Y-91988866D02*
X115408208Y-91941247D01*
X115408208Y-91941247D02*
X115312970Y-91893628D01*
X115312970Y-91893628D02*
X115122494Y-91846009D01*
X115122494Y-91846009D02*
X115027256Y-91798390D01*
X115027256Y-91798390D02*
X114979637Y-91750771D01*
X114979637Y-91750771D02*
X114932018Y-91655533D01*
X114932018Y-91655533D02*
X114932018Y-91560295D01*
X114932018Y-91560295D02*
X114979637Y-91465057D01*
X114979637Y-91465057D02*
X115027256Y-91417438D01*
X115027256Y-91417438D02*
X115122494Y-91369819D01*
X115122494Y-91369819D02*
X115360589Y-91369819D01*
X115360589Y-91369819D02*
X115503446Y-91417438D01*
X116360589Y-91703152D02*
X116360589Y-92369819D01*
X115932018Y-91703152D02*
X115932018Y-92226961D01*
X115932018Y-92226961D02*
X115979637Y-92322200D01*
X115979637Y-92322200D02*
X116074875Y-92369819D01*
X116074875Y-92369819D02*
X116217732Y-92369819D01*
X116217732Y-92369819D02*
X116312970Y-92322200D01*
X116312970Y-92322200D02*
X116360589Y-92274580D01*
X116836780Y-91703152D02*
X116836780Y-92703152D01*
X116836780Y-91750771D02*
X116932018Y-91703152D01*
X116932018Y-91703152D02*
X117122494Y-91703152D01*
X117122494Y-91703152D02*
X117217732Y-91750771D01*
X117217732Y-91750771D02*
X117265351Y-91798390D01*
X117265351Y-91798390D02*
X117312970Y-91893628D01*
X117312970Y-91893628D02*
X117312970Y-92179342D01*
X117312970Y-92179342D02*
X117265351Y-92274580D01*
X117265351Y-92274580D02*
X117217732Y-92322200D01*
X117217732Y-92322200D02*
X117122494Y-92369819D01*
X117122494Y-92369819D02*
X116932018Y-92369819D01*
X116932018Y-92369819D02*
X116836780Y-92322200D01*
X117741542Y-91703152D02*
X117741542Y-92703152D01*
X117741542Y-91750771D02*
X117836780Y-91703152D01*
X117836780Y-91703152D02*
X118027256Y-91703152D01*
X118027256Y-91703152D02*
X118122494Y-91750771D01*
X118122494Y-91750771D02*
X118170113Y-91798390D01*
X118170113Y-91798390D02*
X118217732Y-91893628D01*
X118217732Y-91893628D02*
X118217732Y-92179342D01*
X118217732Y-92179342D02*
X118170113Y-92274580D01*
X118170113Y-92274580D02*
X118122494Y-92322200D01*
X118122494Y-92322200D02*
X118027256Y-92369819D01*
X118027256Y-92369819D02*
X117836780Y-92369819D01*
X117836780Y-92369819D02*
X117741542Y-92322200D01*
X118789161Y-92369819D02*
X118693923Y-92322200D01*
X118693923Y-92322200D02*
X118646304Y-92226961D01*
X118646304Y-92226961D02*
X118646304Y-91369819D01*
X119074876Y-91703152D02*
X119312971Y-92369819D01*
X119551066Y-91703152D02*
X119312971Y-92369819D01*
X119312971Y-92369819D02*
X119217733Y-92607914D01*
X119217733Y-92607914D02*
X119170114Y-92655533D01*
X119170114Y-92655533D02*
X119074876Y-92703152D01*
X120598686Y-91703152D02*
X120836781Y-92369819D01*
X120836781Y-92369819D02*
X121074876Y-91703152D01*
X121979638Y-92369819D02*
X121408210Y-92369819D01*
X121693924Y-92369819D02*
X121693924Y-91369819D01*
X121693924Y-91369819D02*
X121598686Y-91512676D01*
X121598686Y-91512676D02*
X121503448Y-91607914D01*
X121503448Y-91607914D02*
X121408210Y-91655533D01*
X122408210Y-92274580D02*
X122455829Y-92322200D01*
X122455829Y-92322200D02*
X122408210Y-92369819D01*
X122408210Y-92369819D02*
X122360591Y-92322200D01*
X122360591Y-92322200D02*
X122408210Y-92274580D01*
X122408210Y-92274580D02*
X122408210Y-92369819D01*
X123074876Y-91369819D02*
X123170114Y-91369819D01*
X123170114Y-91369819D02*
X123265352Y-91417438D01*
X123265352Y-91417438D02*
X123312971Y-91465057D01*
X123312971Y-91465057D02*
X123360590Y-91560295D01*
X123360590Y-91560295D02*
X123408209Y-91750771D01*
X123408209Y-91750771D02*
X123408209Y-91988866D01*
X123408209Y-91988866D02*
X123360590Y-92179342D01*
X123360590Y-92179342D02*
X123312971Y-92274580D01*
X123312971Y-92274580D02*
X123265352Y-92322200D01*
X123265352Y-92322200D02*
X123170114Y-92369819D01*
X123170114Y-92369819D02*
X123074876Y-92369819D01*
X123074876Y-92369819D02*
X122979638Y-92322200D01*
X122979638Y-92322200D02*
X122932019Y-92274580D01*
X122932019Y-92274580D02*
X122884400Y-92179342D01*
X122884400Y-92179342D02*
X122836781Y-91988866D01*
X122836781Y-91988866D02*
X122836781Y-91750771D01*
X122836781Y-91750771D02*
X122884400Y-91560295D01*
X122884400Y-91560295D02*
X122932019Y-91465057D01*
X122932019Y-91465057D02*
X122979638Y-91417438D01*
X122979638Y-91417438D02*
X123074876Y-91369819D01*
X129083333Y-81959580D02*
X129035714Y-82007200D01*
X129035714Y-82007200D02*
X128892857Y-82054819D01*
X128892857Y-82054819D02*
X128797619Y-82054819D01*
X128797619Y-82054819D02*
X128654762Y-82007200D01*
X128654762Y-82007200D02*
X128559524Y-81911961D01*
X128559524Y-81911961D02*
X128511905Y-81816723D01*
X128511905Y-81816723D02*
X128464286Y-81626247D01*
X128464286Y-81626247D02*
X128464286Y-81483390D01*
X128464286Y-81483390D02*
X128511905Y-81292914D01*
X128511905Y-81292914D02*
X128559524Y-81197676D01*
X128559524Y-81197676D02*
X128654762Y-81102438D01*
X128654762Y-81102438D02*
X128797619Y-81054819D01*
X128797619Y-81054819D02*
X128892857Y-81054819D01*
X128892857Y-81054819D02*
X129035714Y-81102438D01*
X129035714Y-81102438D02*
X129083333Y-81150057D01*
X129464286Y-81150057D02*
X129511905Y-81102438D01*
X129511905Y-81102438D02*
X129607143Y-81054819D01*
X129607143Y-81054819D02*
X129845238Y-81054819D01*
X129845238Y-81054819D02*
X129940476Y-81102438D01*
X129940476Y-81102438D02*
X129988095Y-81150057D01*
X129988095Y-81150057D02*
X130035714Y-81245295D01*
X130035714Y-81245295D02*
X130035714Y-81340533D01*
X130035714Y-81340533D02*
X129988095Y-81483390D01*
X129988095Y-81483390D02*
X129416667Y-82054819D01*
X129416667Y-82054819D02*
X130035714Y-82054819D01*
X122404819Y-76721904D02*
X123214342Y-76721904D01*
X123214342Y-76721904D02*
X123309580Y-76674285D01*
X123309580Y-76674285D02*
X123357200Y-76626666D01*
X123357200Y-76626666D02*
X123404819Y-76531428D01*
X123404819Y-76531428D02*
X123404819Y-76340952D01*
X123404819Y-76340952D02*
X123357200Y-76245714D01*
X123357200Y-76245714D02*
X123309580Y-76198095D01*
X123309580Y-76198095D02*
X123214342Y-76150476D01*
X123214342Y-76150476D02*
X122404819Y-76150476D01*
X123404819Y-75150476D02*
X123404819Y-75721904D01*
X123404819Y-75436190D02*
X122404819Y-75436190D01*
X122404819Y-75436190D02*
X122547676Y-75531428D01*
X122547676Y-75531428D02*
X122642914Y-75626666D01*
X122642914Y-75626666D02*
X122690533Y-75721904D01*
X103708572Y-89424819D02*
X103708572Y-88424819D01*
X103708572Y-88424819D02*
X103946667Y-88424819D01*
X103946667Y-88424819D02*
X104089524Y-88472438D01*
X104089524Y-88472438D02*
X104184762Y-88567676D01*
X104184762Y-88567676D02*
X104232381Y-88662914D01*
X104232381Y-88662914D02*
X104280000Y-88853390D01*
X104280000Y-88853390D02*
X104280000Y-88996247D01*
X104280000Y-88996247D02*
X104232381Y-89186723D01*
X104232381Y-89186723D02*
X104184762Y-89281961D01*
X104184762Y-89281961D02*
X104089524Y-89377200D01*
X104089524Y-89377200D02*
X103946667Y-89424819D01*
X103946667Y-89424819D02*
X103708572Y-89424819D01*
X105137143Y-88758152D02*
X105137143Y-89424819D01*
X104899048Y-88377200D02*
X104660953Y-89091485D01*
X104660953Y-89091485D02*
X105280000Y-89091485D01*
X109264762Y-89054819D02*
X109264762Y-88054819D01*
X109836190Y-89054819D02*
X109407619Y-88483390D01*
X109836190Y-88054819D02*
X109264762Y-88626247D01*
X103708572Y-72924819D02*
X103708572Y-71924819D01*
X103708572Y-71924819D02*
X103946667Y-71924819D01*
X103946667Y-71924819D02*
X104089524Y-71972438D01*
X104089524Y-71972438D02*
X104184762Y-72067676D01*
X104184762Y-72067676D02*
X104232381Y-72162914D01*
X104232381Y-72162914D02*
X104280000Y-72353390D01*
X104280000Y-72353390D02*
X104280000Y-72496247D01*
X104280000Y-72496247D02*
X104232381Y-72686723D01*
X104232381Y-72686723D02*
X104184762Y-72781961D01*
X104184762Y-72781961D02*
X104089524Y-72877200D01*
X104089524Y-72877200D02*
X103946667Y-72924819D01*
X103946667Y-72924819D02*
X103708572Y-72924819D01*
X105232381Y-72924819D02*
X104660953Y-72924819D01*
X104946667Y-72924819D02*
X104946667Y-71924819D01*
X104946667Y-71924819D02*
X104851429Y-72067676D01*
X104851429Y-72067676D02*
X104756191Y-72162914D01*
X104756191Y-72162914D02*
X104660953Y-72210533D01*
X109264762Y-72554819D02*
X109264762Y-71554819D01*
X109836190Y-72554819D02*
X109407619Y-71983390D01*
X109836190Y-71554819D02*
X109264762Y-72126247D01*
X127833333Y-58109580D02*
X127785714Y-58157200D01*
X127785714Y-58157200D02*
X127642857Y-58204819D01*
X127642857Y-58204819D02*
X127547619Y-58204819D01*
X127547619Y-58204819D02*
X127404762Y-58157200D01*
X127404762Y-58157200D02*
X127309524Y-58061961D01*
X127309524Y-58061961D02*
X127261905Y-57966723D01*
X127261905Y-57966723D02*
X127214286Y-57776247D01*
X127214286Y-57776247D02*
X127214286Y-57633390D01*
X127214286Y-57633390D02*
X127261905Y-57442914D01*
X127261905Y-57442914D02*
X127309524Y-57347676D01*
X127309524Y-57347676D02*
X127404762Y-57252438D01*
X127404762Y-57252438D02*
X127547619Y-57204819D01*
X127547619Y-57204819D02*
X127642857Y-57204819D01*
X127642857Y-57204819D02*
X127785714Y-57252438D01*
X127785714Y-57252438D02*
X127833333Y-57300057D01*
X128785714Y-58204819D02*
X128214286Y-58204819D01*
X128500000Y-58204819D02*
X128500000Y-57204819D01*
X128500000Y-57204819D02*
X128404762Y-57347676D01*
X128404762Y-57347676D02*
X128309524Y-57442914D01*
X128309524Y-57442914D02*
X128214286Y-57490533D01*
X103708572Y-81424819D02*
X103708572Y-80424819D01*
X103708572Y-80424819D02*
X103946667Y-80424819D01*
X103946667Y-80424819D02*
X104089524Y-80472438D01*
X104089524Y-80472438D02*
X104184762Y-80567676D01*
X104184762Y-80567676D02*
X104232381Y-80662914D01*
X104232381Y-80662914D02*
X104280000Y-80853390D01*
X104280000Y-80853390D02*
X104280000Y-80996247D01*
X104280000Y-80996247D02*
X104232381Y-81186723D01*
X104232381Y-81186723D02*
X104184762Y-81281961D01*
X104184762Y-81281961D02*
X104089524Y-81377200D01*
X104089524Y-81377200D02*
X103946667Y-81424819D01*
X103946667Y-81424819D02*
X103708572Y-81424819D01*
X104660953Y-80520057D02*
X104708572Y-80472438D01*
X104708572Y-80472438D02*
X104803810Y-80424819D01*
X104803810Y-80424819D02*
X105041905Y-80424819D01*
X105041905Y-80424819D02*
X105137143Y-80472438D01*
X105137143Y-80472438D02*
X105184762Y-80520057D01*
X105184762Y-80520057D02*
X105232381Y-80615295D01*
X105232381Y-80615295D02*
X105232381Y-80710533D01*
X105232381Y-80710533D02*
X105184762Y-80853390D01*
X105184762Y-80853390D02*
X104613334Y-81424819D01*
X104613334Y-81424819D02*
X105232381Y-81424819D01*
X109264762Y-81054819D02*
X109264762Y-80054819D01*
X109836190Y-81054819D02*
X109407619Y-80483390D01*
X109836190Y-80054819D02*
X109264762Y-80626247D01*
X116523333Y-77824819D02*
X116190000Y-77348628D01*
X115951905Y-77824819D02*
X115951905Y-76824819D01*
X115951905Y-76824819D02*
X116332857Y-76824819D01*
X116332857Y-76824819D02*
X116428095Y-76872438D01*
X116428095Y-76872438D02*
X116475714Y-76920057D01*
X116475714Y-76920057D02*
X116523333Y-77015295D01*
X116523333Y-77015295D02*
X116523333Y-77158152D01*
X116523333Y-77158152D02*
X116475714Y-77253390D01*
X116475714Y-77253390D02*
X116428095Y-77301009D01*
X116428095Y-77301009D02*
X116332857Y-77348628D01*
X116332857Y-77348628D02*
X115951905Y-77348628D01*
X117475714Y-77824819D02*
X116904286Y-77824819D01*
X117190000Y-77824819D02*
X117190000Y-76824819D01*
X117190000Y-76824819D02*
X117094762Y-76967676D01*
X117094762Y-76967676D02*
X116999524Y-77062914D01*
X116999524Y-77062914D02*
X116904286Y-77110533D01*
X96774819Y-66293333D02*
X97489104Y-66293333D01*
X97489104Y-66293333D02*
X97631961Y-66340952D01*
X97631961Y-66340952D02*
X97727200Y-66436190D01*
X97727200Y-66436190D02*
X97774819Y-66579047D01*
X97774819Y-66579047D02*
X97774819Y-66674285D01*
X97774819Y-65293333D02*
X97774819Y-65864761D01*
X97774819Y-65579047D02*
X96774819Y-65579047D01*
X96774819Y-65579047D02*
X96917676Y-65674285D01*
X96917676Y-65674285D02*
X97012914Y-65769523D01*
X97012914Y-65769523D02*
X97060533Y-65864761D01*
X103708572Y-65024819D02*
X103708572Y-64024819D01*
X103708572Y-64024819D02*
X103946667Y-64024819D01*
X103946667Y-64024819D02*
X104089524Y-64072438D01*
X104089524Y-64072438D02*
X104184762Y-64167676D01*
X104184762Y-64167676D02*
X104232381Y-64262914D01*
X104232381Y-64262914D02*
X104280000Y-64453390D01*
X104280000Y-64453390D02*
X104280000Y-64596247D01*
X104280000Y-64596247D02*
X104232381Y-64786723D01*
X104232381Y-64786723D02*
X104184762Y-64881961D01*
X104184762Y-64881961D02*
X104089524Y-64977200D01*
X104089524Y-64977200D02*
X103946667Y-65024819D01*
X103946667Y-65024819D02*
X103708572Y-65024819D01*
X104613334Y-64024819D02*
X105232381Y-64024819D01*
X105232381Y-64024819D02*
X104899048Y-64405771D01*
X104899048Y-64405771D02*
X105041905Y-64405771D01*
X105041905Y-64405771D02*
X105137143Y-64453390D01*
X105137143Y-64453390D02*
X105184762Y-64501009D01*
X105184762Y-64501009D02*
X105232381Y-64596247D01*
X105232381Y-64596247D02*
X105232381Y-64834342D01*
X105232381Y-64834342D02*
X105184762Y-64929580D01*
X105184762Y-64929580D02*
X105137143Y-64977200D01*
X105137143Y-64977200D02*
X105041905Y-65024819D01*
X105041905Y-65024819D02*
X104756191Y-65024819D01*
X104756191Y-65024819D02*
X104660953Y-64977200D01*
X104660953Y-64977200D02*
X104613334Y-64929580D01*
X109264762Y-64654819D02*
X109264762Y-63654819D01*
X109836190Y-64654819D02*
X109407619Y-64083390D01*
X109836190Y-63654819D02*
X109264762Y-64226247D01*
X97102319Y-82873333D02*
X97816604Y-82873333D01*
X97816604Y-82873333D02*
X97959461Y-82920952D01*
X97959461Y-82920952D02*
X98054700Y-83016190D01*
X98054700Y-83016190D02*
X98102319Y-83159047D01*
X98102319Y-83159047D02*
X98102319Y-83254285D01*
X97197557Y-82444761D02*
X97149938Y-82397142D01*
X97149938Y-82397142D02*
X97102319Y-82301904D01*
X97102319Y-82301904D02*
X97102319Y-82063809D01*
X97102319Y-82063809D02*
X97149938Y-81968571D01*
X97149938Y-81968571D02*
X97197557Y-81920952D01*
X97197557Y-81920952D02*
X97292795Y-81873333D01*
X97292795Y-81873333D02*
X97388033Y-81873333D01*
X97388033Y-81873333D02*
X97530890Y-81920952D01*
X97530890Y-81920952D02*
X98102319Y-82492380D01*
X98102319Y-82492380D02*
X98102319Y-81873333D01*
X123469819Y-64875238D02*
X122993628Y-65208571D01*
X123469819Y-65446666D02*
X122469819Y-65446666D01*
X122469819Y-65446666D02*
X122469819Y-65065714D01*
X122469819Y-65065714D02*
X122517438Y-64970476D01*
X122517438Y-64970476D02*
X122565057Y-64922857D01*
X122565057Y-64922857D02*
X122660295Y-64875238D01*
X122660295Y-64875238D02*
X122803152Y-64875238D01*
X122803152Y-64875238D02*
X122898390Y-64922857D01*
X122898390Y-64922857D02*
X122946009Y-64970476D01*
X122946009Y-64970476D02*
X122993628Y-65065714D01*
X122993628Y-65065714D02*
X122993628Y-65446666D01*
X122469819Y-64589523D02*
X123469819Y-64256190D01*
X123469819Y-64256190D02*
X122469819Y-63922857D01*
X123469819Y-63065714D02*
X123469819Y-63637142D01*
X123469819Y-63351428D02*
X122469819Y-63351428D01*
X122469819Y-63351428D02*
X122612676Y-63446666D01*
X122612676Y-63446666D02*
X122707914Y-63541904D01*
X122707914Y-63541904D02*
X122755533Y-63637142D01*
X116833333Y-79809580D02*
X116785714Y-79857200D01*
X116785714Y-79857200D02*
X116642857Y-79904819D01*
X116642857Y-79904819D02*
X116547619Y-79904819D01*
X116547619Y-79904819D02*
X116404762Y-79857200D01*
X116404762Y-79857200D02*
X116309524Y-79761961D01*
X116309524Y-79761961D02*
X116261905Y-79666723D01*
X116261905Y-79666723D02*
X116214286Y-79476247D01*
X116214286Y-79476247D02*
X116214286Y-79333390D01*
X116214286Y-79333390D02*
X116261905Y-79142914D01*
X116261905Y-79142914D02*
X116309524Y-79047676D01*
X116309524Y-79047676D02*
X116404762Y-78952438D01*
X116404762Y-78952438D02*
X116547619Y-78904819D01*
X116547619Y-78904819D02*
X116642857Y-78904819D01*
X116642857Y-78904819D02*
X116785714Y-78952438D01*
X116785714Y-78952438D02*
X116833333Y-79000057D01*
X117166667Y-78904819D02*
X117785714Y-78904819D01*
X117785714Y-78904819D02*
X117452381Y-79285771D01*
X117452381Y-79285771D02*
X117595238Y-79285771D01*
X117595238Y-79285771D02*
X117690476Y-79333390D01*
X117690476Y-79333390D02*
X117738095Y-79381009D01*
X117738095Y-79381009D02*
X117785714Y-79476247D01*
X117785714Y-79476247D02*
X117785714Y-79714342D01*
X117785714Y-79714342D02*
X117738095Y-79809580D01*
X117738095Y-79809580D02*
X117690476Y-79857200D01*
X117690476Y-79857200D02*
X117595238Y-79904819D01*
X117595238Y-79904819D02*
X117309524Y-79904819D01*
X117309524Y-79904819D02*
X117214286Y-79857200D01*
X117214286Y-79857200D02*
X117166667Y-79809580D01*
D11*
%TO.C,C2*%
X132520000Y-86000000D02*
G75*
G02*
X125980000Y-86000000I-3270000J0D01*
G01*
X125980000Y-86000000D02*
G75*
G02*
X132520000Y-86000000I3270000J0D01*
G01*
X132490000Y-85598000D02*
X132490000Y-86402000D01*
X132450000Y-85367000D02*
X132450000Y-86633000D01*
X132410000Y-85199000D02*
X132410000Y-86801000D01*
X132370000Y-85061000D02*
X132370000Y-86939000D01*
X132330000Y-84942000D02*
X132330000Y-87058000D01*
X132290000Y-84835000D02*
X132290000Y-87165000D01*
X132250000Y-84739000D02*
X132250000Y-87261000D01*
X132210000Y-84650000D02*
X132210000Y-87350000D01*
X132170000Y-84568000D02*
X132170000Y-87432000D01*
X132130000Y-84491000D02*
X132130000Y-87509000D01*
X132090000Y-84419000D02*
X132090000Y-87581000D01*
X132050000Y-84351000D02*
X132050000Y-87649000D01*
X132010000Y-84286000D02*
X132010000Y-87714000D01*
X131970000Y-84225000D02*
X131970000Y-87775000D01*
X131930000Y-84166000D02*
X131930000Y-87834000D01*
X131890000Y-84110000D02*
X131890000Y-87890000D01*
X131850000Y-84057000D02*
X131850000Y-87943000D01*
X131810000Y-84005000D02*
X131810000Y-87995000D01*
X131770000Y-83956000D02*
X131770000Y-88044000D01*
X131730000Y-83909000D02*
X131730000Y-88091000D01*
X131690000Y-83863000D02*
X131690000Y-88137000D01*
X131650000Y-83819000D02*
X131650000Y-88181000D01*
X131610000Y-83777000D02*
X131610000Y-88223000D01*
X131570000Y-83736000D02*
X131570000Y-88264000D01*
X131530000Y-87040000D02*
X131530000Y-88304000D01*
X131530000Y-83696000D02*
X131530000Y-84960000D01*
X131490000Y-87040000D02*
X131490000Y-88342000D01*
X131490000Y-83658000D02*
X131490000Y-84960000D01*
X131450000Y-87040000D02*
X131450000Y-88379000D01*
X131450000Y-83621000D02*
X131450000Y-84960000D01*
X131410000Y-87040000D02*
X131410000Y-88415000D01*
X131410000Y-83585000D02*
X131410000Y-84960000D01*
X131370000Y-87040000D02*
X131370000Y-88450000D01*
X131370000Y-83550000D02*
X131370000Y-84960000D01*
X131330000Y-87040000D02*
X131330000Y-88483000D01*
X131330000Y-83517000D02*
X131330000Y-84960000D01*
X131290000Y-87040000D02*
X131290000Y-88516000D01*
X131290000Y-83484000D02*
X131290000Y-84960000D01*
X131250000Y-87040000D02*
X131250000Y-88547000D01*
X131250000Y-83453000D02*
X131250000Y-84960000D01*
X131210000Y-87040000D02*
X131210000Y-88577000D01*
X131210000Y-83423000D02*
X131210000Y-84960000D01*
X131170000Y-87040000D02*
X131170000Y-88607000D01*
X131170000Y-83393000D02*
X131170000Y-84960000D01*
X131130000Y-87040000D02*
X131130000Y-88636000D01*
X131130000Y-83364000D02*
X131130000Y-84960000D01*
X131090000Y-87040000D02*
X131090000Y-88663000D01*
X131090000Y-83337000D02*
X131090000Y-84960000D01*
X131050000Y-87040000D02*
X131050000Y-88690000D01*
X131050000Y-83310000D02*
X131050000Y-84960000D01*
X131010000Y-87040000D02*
X131010000Y-88716000D01*
X131010000Y-83284000D02*
X131010000Y-84960000D01*
X130970000Y-87040000D02*
X130970000Y-88741000D01*
X130970000Y-83259000D02*
X130970000Y-84960000D01*
X130930000Y-87040000D02*
X130930000Y-88765000D01*
X130930000Y-83235000D02*
X130930000Y-84960000D01*
X130890000Y-87040000D02*
X130890000Y-88789000D01*
X130890000Y-83211000D02*
X130890000Y-84960000D01*
X130850000Y-87040000D02*
X130850000Y-88812000D01*
X130850000Y-83188000D02*
X130850000Y-84960000D01*
X130810000Y-87040000D02*
X130810000Y-88834000D01*
X130810000Y-83166000D02*
X130810000Y-84960000D01*
X130770000Y-87040000D02*
X130770000Y-88855000D01*
X130770000Y-83145000D02*
X130770000Y-84960000D01*
X130730000Y-87040000D02*
X130730000Y-88876000D01*
X130730000Y-83124000D02*
X130730000Y-84960000D01*
X130690000Y-87040000D02*
X130690000Y-88896000D01*
X130690000Y-83104000D02*
X130690000Y-84960000D01*
X130650000Y-87040000D02*
X130650000Y-88915000D01*
X130650000Y-83085000D02*
X130650000Y-84960000D01*
X130610000Y-87040000D02*
X130610000Y-88934000D01*
X130610000Y-83066000D02*
X130610000Y-84960000D01*
X130570000Y-87040000D02*
X130570000Y-88952000D01*
X130570000Y-83048000D02*
X130570000Y-84960000D01*
X130530000Y-87040000D02*
X130530000Y-88969000D01*
X130530000Y-83031000D02*
X130530000Y-84960000D01*
X130490000Y-87040000D02*
X130490000Y-88986000D01*
X130490000Y-83014000D02*
X130490000Y-84960000D01*
X130450000Y-87040000D02*
X130450000Y-89002000D01*
X130450000Y-82998000D02*
X130450000Y-84960000D01*
X130410000Y-87040000D02*
X130410000Y-89017000D01*
X130410000Y-82983000D02*
X130410000Y-84960000D01*
X130370000Y-87040000D02*
X130370000Y-89032000D01*
X130370000Y-82968000D02*
X130370000Y-84960000D01*
X130330000Y-87040000D02*
X130330000Y-89047000D01*
X130330000Y-82953000D02*
X130330000Y-84960000D01*
X130290000Y-87040000D02*
X130290000Y-89060000D01*
X130290000Y-82940000D02*
X130290000Y-84960000D01*
X130250000Y-87040000D02*
X130250000Y-89073000D01*
X130250000Y-82927000D02*
X130250000Y-84960000D01*
X130210000Y-87040000D02*
X130210000Y-89086000D01*
X130210000Y-82914000D02*
X130210000Y-84960000D01*
X130170000Y-87040000D02*
X130170000Y-89098000D01*
X130170000Y-82902000D02*
X130170000Y-84960000D01*
X130130000Y-87040000D02*
X130130000Y-89109000D01*
X130130000Y-82891000D02*
X130130000Y-84960000D01*
X130090000Y-87040000D02*
X130090000Y-89120000D01*
X130090000Y-82880000D02*
X130090000Y-84960000D01*
X130050000Y-87040000D02*
X130050000Y-89131000D01*
X130050000Y-82869000D02*
X130050000Y-84960000D01*
X130010000Y-87040000D02*
X130010000Y-89140000D01*
X130010000Y-82860000D02*
X130010000Y-84960000D01*
X129970000Y-87040000D02*
X129970000Y-89150000D01*
X129970000Y-82850000D02*
X129970000Y-84960000D01*
X129930000Y-87040000D02*
X129930000Y-89159000D01*
X129930000Y-82841000D02*
X129930000Y-84960000D01*
X129890000Y-87040000D02*
X129890000Y-89167000D01*
X129890000Y-82833000D02*
X129890000Y-84960000D01*
X129850000Y-87040000D02*
X129850000Y-89174000D01*
X129850000Y-82826000D02*
X129850000Y-84960000D01*
X129810000Y-87040000D02*
X129810000Y-89182000D01*
X129810000Y-82818000D02*
X129810000Y-84960000D01*
X129770000Y-87040000D02*
X129770000Y-89188000D01*
X129770000Y-82812000D02*
X129770000Y-84960000D01*
X129730000Y-87040000D02*
X129730000Y-89195000D01*
X129730000Y-82805000D02*
X129730000Y-84960000D01*
X129690000Y-87040000D02*
X129690000Y-89200000D01*
X129690000Y-82800000D02*
X129690000Y-84960000D01*
X129650000Y-87040000D02*
X129650000Y-89205000D01*
X129650000Y-82795000D02*
X129650000Y-84960000D01*
X129610000Y-87040000D02*
X129610000Y-89210000D01*
X129610000Y-82790000D02*
X129610000Y-84960000D01*
X129570000Y-87040000D02*
X129570000Y-89214000D01*
X129570000Y-82786000D02*
X129570000Y-84960000D01*
X129530000Y-87040000D02*
X129530000Y-89218000D01*
X129530000Y-82782000D02*
X129530000Y-84960000D01*
X129490000Y-87040000D02*
X129490000Y-89221000D01*
X129490000Y-82779000D02*
X129490000Y-84960000D01*
X129450000Y-82776000D02*
X129450000Y-89224000D01*
X129410000Y-82774000D02*
X129410000Y-89226000D01*
X129370000Y-82772000D02*
X129370000Y-89228000D01*
X129330000Y-82771000D02*
X129330000Y-89229000D01*
X129290000Y-82770000D02*
X129290000Y-89230000D01*
X129250000Y-82770000D02*
X129250000Y-89230000D01*
X126064759Y-83846000D02*
X126064759Y-84476000D01*
X125749759Y-84161000D02*
X126379759Y-84161000D01*
%TO.C,U1*%
X123790000Y-81070000D02*
X123790000Y-70850000D01*
X125170000Y-81070000D02*
X125170000Y-70850000D01*
X128410000Y-81070000D02*
X123790000Y-81070000D01*
X123790000Y-77810000D02*
X125170000Y-77810000D01*
X123790000Y-74110000D02*
X125170000Y-74110000D01*
X123790000Y-70850000D02*
X128410000Y-70850000D01*
X128410000Y-70850000D02*
X128410000Y-81070000D01*
%TO.C,D4*%
X100706667Y-86500000D02*
X101726667Y-86500000D01*
X106146667Y-87970000D02*
X106146667Y-85030000D01*
X106266667Y-87970000D02*
X106266667Y-85030000D01*
X106386667Y-87970000D02*
X106386667Y-85030000D01*
X108186667Y-86500000D02*
X107166667Y-86500000D01*
X107166667Y-87970000D02*
X101726667Y-87970000D01*
X101726667Y-85030000D01*
X107166667Y-85030000D01*
X107166667Y-87970000D01*
%TO.C,D1*%
X100706667Y-70000000D02*
X101726667Y-70000000D01*
X106146667Y-71470000D02*
X106146667Y-68530000D01*
X106266667Y-71470000D02*
X106266667Y-68530000D01*
X106386667Y-71470000D02*
X106386667Y-68530000D01*
X108186667Y-70000000D02*
X107166667Y-70000000D01*
X107166667Y-71470000D02*
X101726667Y-71470000D01*
X101726667Y-68530000D01*
X107166667Y-68530000D01*
X107166667Y-71470000D01*
%TO.C,C1*%
X133120000Y-64000000D02*
G75*
G02*
X122880000Y-64000000I-5120000J0D01*
G01*
X122880000Y-64000000D02*
G75*
G02*
X133120000Y-64000000I5120000J0D01*
G01*
X133080000Y-63401000D02*
X133080000Y-64599000D01*
X133040000Y-63138000D02*
X133040000Y-64862000D01*
X133000000Y-62938000D02*
X133000000Y-65062000D01*
X132960000Y-62770000D02*
X132960000Y-65230000D01*
X132920000Y-62623000D02*
X132920000Y-65377000D01*
X132880000Y-62491000D02*
X132880000Y-65509000D01*
X132840000Y-62370000D02*
X132840000Y-65630000D01*
X132800000Y-62258000D02*
X132800000Y-65742000D01*
X132760000Y-62154000D02*
X132760000Y-65846000D01*
X132720000Y-62056000D02*
X132720000Y-65944000D01*
X132680000Y-61963000D02*
X132680000Y-66037000D01*
X132640000Y-61876000D02*
X132640000Y-66124000D01*
X132600000Y-61792000D02*
X132600000Y-66208000D01*
X132560000Y-61712000D02*
X132560000Y-66288000D01*
X132520000Y-61635000D02*
X132520000Y-66365000D01*
X132480000Y-61561000D02*
X132480000Y-66439000D01*
X132440000Y-61490000D02*
X132440000Y-66510000D01*
X132400000Y-61422000D02*
X132400000Y-66578000D01*
X132360000Y-61356000D02*
X132360000Y-66644000D01*
X132320000Y-61292000D02*
X132320000Y-66708000D01*
X132280000Y-61230000D02*
X132280000Y-66770000D01*
X132240000Y-61170000D02*
X132240000Y-66830000D01*
X132200000Y-61112000D02*
X132200000Y-66888000D01*
X132160000Y-61055000D02*
X132160000Y-66945000D01*
X132120000Y-61000000D02*
X132120000Y-67000000D01*
X132080000Y-60947000D02*
X132080000Y-67053000D01*
X132040000Y-60895000D02*
X132040000Y-67105000D01*
X132000000Y-60844000D02*
X132000000Y-67156000D01*
X131960000Y-60795000D02*
X131960000Y-67205000D01*
X131920000Y-60746000D02*
X131920000Y-67254000D01*
X131880000Y-60699000D02*
X131880000Y-67301000D01*
X131840000Y-60653000D02*
X131840000Y-67347000D01*
X131800000Y-60609000D02*
X131800000Y-67391000D01*
X131760000Y-60565000D02*
X131760000Y-67435000D01*
X131720000Y-65240000D02*
X131720000Y-67478000D01*
X131720000Y-60522000D02*
X131720000Y-62760000D01*
X131680000Y-65240000D02*
X131680000Y-67520000D01*
X131680000Y-60480000D02*
X131680000Y-62760000D01*
X131640000Y-65240000D02*
X131640000Y-67561000D01*
X131640000Y-60439000D02*
X131640000Y-62760000D01*
X131600000Y-65240000D02*
X131600000Y-67601000D01*
X131600000Y-60399000D02*
X131600000Y-62760000D01*
X131560000Y-65240000D02*
X131560000Y-67640000D01*
X131560000Y-60360000D02*
X131560000Y-62760000D01*
X131520000Y-65240000D02*
X131520000Y-67678000D01*
X131520000Y-60322000D02*
X131520000Y-62760000D01*
X131480000Y-65240000D02*
X131480000Y-67716000D01*
X131480000Y-60284000D02*
X131480000Y-62760000D01*
X131440000Y-65240000D02*
X131440000Y-67752000D01*
X131440000Y-60248000D02*
X131440000Y-62760000D01*
X131400000Y-65240000D02*
X131400000Y-67788000D01*
X131400000Y-60212000D02*
X131400000Y-62760000D01*
X131360000Y-65240000D02*
X131360000Y-67823000D01*
X131360000Y-60177000D02*
X131360000Y-62760000D01*
X131320000Y-65240000D02*
X131320000Y-67858000D01*
X131320000Y-60142000D02*
X131320000Y-62760000D01*
X131280000Y-65240000D02*
X131280000Y-67891000D01*
X131280000Y-60109000D02*
X131280000Y-62760000D01*
X131240000Y-65240000D02*
X131240000Y-67924000D01*
X131240000Y-60076000D02*
X131240000Y-62760000D01*
X131200000Y-65240000D02*
X131200000Y-67957000D01*
X131200000Y-60043000D02*
X131200000Y-62760000D01*
X131160000Y-65240000D02*
X131160000Y-67988000D01*
X131160000Y-60012000D02*
X131160000Y-62760000D01*
X131120000Y-65240000D02*
X131120000Y-68020000D01*
X131120000Y-59980000D02*
X131120000Y-62760000D01*
X131080000Y-65240000D02*
X131080000Y-68050000D01*
X131080000Y-59950000D02*
X131080000Y-62760000D01*
X131040000Y-65240000D02*
X131040000Y-68080000D01*
X131040000Y-59920000D02*
X131040000Y-62760000D01*
X131000000Y-65240000D02*
X131000000Y-68109000D01*
X131000000Y-59891000D02*
X131000000Y-62760000D01*
X130960000Y-65240000D02*
X130960000Y-68138000D01*
X130960000Y-59862000D02*
X130960000Y-62760000D01*
X130920000Y-65240000D02*
X130920000Y-68166000D01*
X130920000Y-59834000D02*
X130920000Y-62760000D01*
X130880000Y-65240000D02*
X130880000Y-68193000D01*
X130880000Y-59807000D02*
X130880000Y-62760000D01*
X130840000Y-65240000D02*
X130840000Y-68220000D01*
X130840000Y-59780000D02*
X130840000Y-62760000D01*
X130800000Y-65240000D02*
X130800000Y-68247000D01*
X130800000Y-59753000D02*
X130800000Y-62760000D01*
X130760000Y-65240000D02*
X130760000Y-68272000D01*
X130760000Y-59728000D02*
X130760000Y-62760000D01*
X130720000Y-65240000D02*
X130720000Y-68298000D01*
X130720000Y-59702000D02*
X130720000Y-62760000D01*
X130680000Y-65240000D02*
X130680000Y-68323000D01*
X130680000Y-59677000D02*
X130680000Y-62760000D01*
X130640000Y-65240000D02*
X130640000Y-68347000D01*
X130640000Y-59653000D02*
X130640000Y-62760000D01*
X130600000Y-65240000D02*
X130600000Y-68371000D01*
X130600000Y-59629000D02*
X130600000Y-62760000D01*
X130560000Y-65240000D02*
X130560000Y-68394000D01*
X130560000Y-59606000D02*
X130560000Y-62760000D01*
X130520000Y-65240000D02*
X130520000Y-68417000D01*
X130520000Y-59583000D02*
X130520000Y-62760000D01*
X130480000Y-65240000D02*
X130480000Y-68439000D01*
X130480000Y-59561000D02*
X130480000Y-62760000D01*
X130440000Y-65240000D02*
X130440000Y-68461000D01*
X130440000Y-59539000D02*
X130440000Y-62760000D01*
X130400000Y-65240000D02*
X130400000Y-68483000D01*
X130400000Y-59517000D02*
X130400000Y-62760000D01*
X130360000Y-65240000D02*
X130360000Y-68504000D01*
X130360000Y-59496000D02*
X130360000Y-62760000D01*
X130320000Y-65240000D02*
X130320000Y-68524000D01*
X130320000Y-59476000D02*
X130320000Y-62760000D01*
X130280000Y-65240000D02*
X130280000Y-68544000D01*
X130280000Y-59456000D02*
X130280000Y-62760000D01*
X130240000Y-65240000D02*
X130240000Y-68564000D01*
X130240000Y-59436000D02*
X130240000Y-62760000D01*
X130200000Y-65240000D02*
X130200000Y-68583000D01*
X130200000Y-59417000D02*
X130200000Y-62760000D01*
X130160000Y-65240000D02*
X130160000Y-68602000D01*
X130160000Y-59398000D02*
X130160000Y-62760000D01*
X130120000Y-65240000D02*
X130120000Y-68620000D01*
X130120000Y-59380000D02*
X130120000Y-62760000D01*
X130080000Y-65240000D02*
X130080000Y-68638000D01*
X130080000Y-59362000D02*
X130080000Y-62760000D01*
X130040000Y-65240000D02*
X130040000Y-68656000D01*
X130040000Y-59344000D02*
X130040000Y-62760000D01*
X130000000Y-65240000D02*
X130000000Y-68673000D01*
X130000000Y-59327000D02*
X130000000Y-62760000D01*
X129960000Y-65240000D02*
X129960000Y-68690000D01*
X129960000Y-59310000D02*
X129960000Y-62760000D01*
X129920000Y-65240000D02*
X129920000Y-68706000D01*
X129920000Y-59294000D02*
X129920000Y-62760000D01*
X129880000Y-65240000D02*
X129880000Y-68722000D01*
X129880000Y-59278000D02*
X129880000Y-62760000D01*
X129840000Y-65240000D02*
X129840000Y-68738000D01*
X129840000Y-59262000D02*
X129840000Y-62760000D01*
X129800000Y-65240000D02*
X129800000Y-68753000D01*
X129800000Y-59247000D02*
X129800000Y-62760000D01*
X129760000Y-65240000D02*
X129760000Y-68768000D01*
X129760000Y-59232000D02*
X129760000Y-62760000D01*
X129720000Y-65240000D02*
X129720000Y-68782000D01*
X129720000Y-59218000D02*
X129720000Y-62760000D01*
X129680000Y-65240000D02*
X129680000Y-68797000D01*
X129680000Y-59203000D02*
X129680000Y-62760000D01*
X129640000Y-65240000D02*
X129640000Y-68810000D01*
X129640000Y-59190000D02*
X129640000Y-62760000D01*
X129600000Y-65240000D02*
X129600000Y-68824000D01*
X129600000Y-59176000D02*
X129600000Y-62760000D01*
X129560000Y-65240000D02*
X129560000Y-68837000D01*
X129560000Y-59163000D02*
X129560000Y-62760000D01*
X129520000Y-65240000D02*
X129520000Y-68849000D01*
X129520000Y-59151000D02*
X129520000Y-62760000D01*
X129480000Y-65240000D02*
X129480000Y-68861000D01*
X129480000Y-59139000D02*
X129480000Y-62760000D01*
X129440000Y-65240000D02*
X129440000Y-68873000D01*
X129440000Y-59127000D02*
X129440000Y-62760000D01*
X129400000Y-65240000D02*
X129400000Y-68885000D01*
X129400000Y-59115000D02*
X129400000Y-62760000D01*
X129360000Y-65240000D02*
X129360000Y-68896000D01*
X129360000Y-59104000D02*
X129360000Y-62760000D01*
X129320000Y-65240000D02*
X129320000Y-68907000D01*
X129320000Y-59093000D02*
X129320000Y-62760000D01*
X129280000Y-65240000D02*
X129280000Y-68917000D01*
X129280000Y-59083000D02*
X129280000Y-62760000D01*
X129240000Y-59072000D02*
X129240000Y-68928000D01*
X129200000Y-59063000D02*
X129200000Y-68937000D01*
X129160000Y-59053000D02*
X129160000Y-68947000D01*
X129120000Y-59044000D02*
X129120000Y-68956000D01*
X129080000Y-59035000D02*
X129080000Y-68965000D01*
X129040000Y-59027000D02*
X129040000Y-68973000D01*
X129000000Y-59019000D02*
X129000000Y-68981000D01*
X128960000Y-59011000D02*
X128960000Y-68989000D01*
X128920000Y-59003000D02*
X128920000Y-68997000D01*
X128880000Y-58996000D02*
X128880000Y-69004000D01*
X128840000Y-58989000D02*
X128840000Y-69011000D01*
X128800000Y-58983000D02*
X128800000Y-69017000D01*
X128760000Y-58977000D02*
X128760000Y-69023000D01*
X128720000Y-58971000D02*
X128720000Y-69029000D01*
X128680000Y-58965000D02*
X128680000Y-69035000D01*
X128640000Y-58960000D02*
X128640000Y-69040000D01*
X128600000Y-58955000D02*
X128600000Y-69045000D01*
X128560000Y-58951000D02*
X128560000Y-69049000D01*
X128520000Y-58946000D02*
X128520000Y-69054000D01*
X128480000Y-58943000D02*
X128480000Y-69057000D01*
X128440000Y-58939000D02*
X128440000Y-69061000D01*
X128400000Y-58936000D02*
X128400000Y-69064000D01*
X128360000Y-58933000D02*
X128360000Y-69067000D01*
X128320000Y-58930000D02*
X128320000Y-69070000D01*
X128280000Y-58928000D02*
X128280000Y-69072000D01*
X128240000Y-58926000D02*
X128240000Y-69074000D01*
X128200000Y-58924000D02*
X128200000Y-69076000D01*
X128160000Y-58923000D02*
X128160000Y-69077000D01*
X128120000Y-58921000D02*
X128120000Y-69079000D01*
X128080000Y-58921000D02*
X128080000Y-69079000D01*
X128040000Y-58920000D02*
X128040000Y-69080000D01*
X128000000Y-58920000D02*
X128000000Y-69080000D01*
X123020354Y-60625000D02*
X123020354Y-61625000D01*
X122520354Y-61125000D02*
X123520354Y-61125000D01*
%TO.C,D2*%
X100706667Y-78500000D02*
X101726667Y-78500000D01*
X106146667Y-79970000D02*
X106146667Y-77030000D01*
X106266667Y-79970000D02*
X106266667Y-77030000D01*
X106386667Y-79970000D02*
X106386667Y-77030000D01*
X108186667Y-78500000D02*
X107166667Y-78500000D01*
X107166667Y-79970000D02*
X101726667Y-79970000D01*
X101726667Y-77030000D01*
X107166667Y-77030000D01*
X107166667Y-79970000D01*
%TO.C,R1*%
X119960000Y-73630000D02*
X113420000Y-73630000D01*
X113420000Y-73630000D02*
X113420000Y-73960000D01*
X119960000Y-73960000D02*
X119960000Y-73630000D01*
X119960000Y-76040000D02*
X119960000Y-76370000D01*
X119960000Y-76370000D02*
X113420000Y-76370000D01*
X113420000Y-76370000D02*
X113420000Y-76040000D01*
%TO.C,J1*%
X86280000Y-60760000D02*
X96320000Y-60760000D01*
X86280000Y-63120000D02*
X86280000Y-60760000D01*
X86280000Y-71160000D02*
X86280000Y-63720000D01*
X86900000Y-60760000D02*
X86900000Y-71160000D01*
X88400000Y-60760000D02*
X88400000Y-71160000D01*
X93300000Y-60760000D02*
X93300000Y-71160000D01*
X96320000Y-60760000D02*
X96320000Y-71160000D01*
X96320000Y-71160000D02*
X86280000Y-71160000D01*
X86280000Y-63420000D02*
X85670000Y-63860000D01*
X85670000Y-62980000D01*
X86280000Y-63420000D01*
G36*
X86280000Y-63420000D02*
G01*
X85670000Y-63860000D01*
X85670000Y-62980000D01*
X86280000Y-63420000D01*
G37*
%TO.C,D3*%
X100706667Y-62100000D02*
X101726667Y-62100000D01*
X106146667Y-63570000D02*
X106146667Y-60630000D01*
X106266667Y-63570000D02*
X106266667Y-60630000D01*
X106386667Y-63570000D02*
X106386667Y-60630000D01*
X108186667Y-62100000D02*
X107166667Y-62100000D01*
X107166667Y-63570000D02*
X101726667Y-63570000D01*
X101726667Y-60630000D01*
X107166667Y-60630000D01*
X107166667Y-63570000D01*
%TO.C,J2*%
X86607500Y-77340000D02*
X96647500Y-77340000D01*
X86607500Y-79700000D02*
X86607500Y-77340000D01*
X86607500Y-87740000D02*
X86607500Y-80300000D01*
X87227500Y-77340000D02*
X87227500Y-87740000D01*
X88727500Y-77340000D02*
X88727500Y-87740000D01*
X93627500Y-77340000D02*
X93627500Y-87740000D01*
X96647500Y-77340000D02*
X96647500Y-87740000D01*
X96647500Y-87740000D02*
X86607500Y-87740000D01*
X86607500Y-80000000D02*
X85997500Y-80440000D01*
X85997500Y-79560000D01*
X86607500Y-80000000D01*
G36*
X86607500Y-80000000D02*
G01*
X85997500Y-80440000D01*
X85997500Y-79560000D01*
X86607500Y-80000000D01*
G37*
%TO.C,RV1*%
X121700000Y-58395000D02*
X121700000Y-59915000D01*
X120495000Y-58395000D02*
X120495000Y-59155000D01*
X119290000Y-58395000D02*
X121700000Y-58395000D01*
X121875000Y-59915000D02*
X121875000Y-70165000D01*
X121700000Y-59915000D02*
X119290000Y-59915000D01*
X119290000Y-59915000D02*
X119290000Y-58395000D01*
X112125000Y-59915000D02*
X121875000Y-59915000D01*
X121875000Y-70165000D02*
X112125000Y-70165000D01*
X112125000Y-70165000D02*
X112125000Y-59915000D01*
%TO.C,C3*%
X116235000Y-80580000D02*
X117765000Y-80580000D01*
X117765000Y-82420000D02*
X116235000Y-82420000D01*
%TD*%
M02*
