%TF.GenerationSoftware,KiCad,Pcbnew,9.0.4*%
%TF.CreationDate,2026-03-20T08:57:38-03:00*%
%TF.ProjectId,relay_module_24v_4,72656c61-795f-46d6-9f64-756c655f3234,rev?*%
%TF.SameCoordinates,Original*%
%TF.FileFunction,Copper,L1,Top*%
%TF.FilePolarity,Positive*%
%FSLAX46Y46*%
G04 Gerber Fmt 4.6, Leading zero omitted, Abs format (unit mm)*
G04 Created by KiCad (PCBNEW 9.0.4) date 2026-03-20 08:57:38*
%MOMM*%
%LPD*%
G01*
G04 APERTURE LIST*
G04 Aperture macros list*
%AMRoundRect*
0 Rectangle with rounded corners*
0 $1 Rounding radius*
0 $2 $3 $4 $5 $6 $7 $8 $9 X,Y pos of 4 corners*
0 Add a 4 corners polygon primitive as box body*
4,1,4,$2,$3,$4,$5,$6,$7,$8,$9,$2,$3,0*
0 Add four circle primitives for the rounded corners*
1,1,$1+$1,$2,$3*
1,1,$1+$1,$4,$5*
1,1,$1+$1,$6,$7*
1,1,$1+$1,$8,$9*
0 Add four rect primitives between the rounded corners*
20,1,$1+$1,$2,$3,$4,$5,0*
20,1,$1+$1,$4,$5,$6,$7,0*
20,1,$1+$1,$6,$7,$8,$9,0*
20,1,$1+$1,$8,$9,$2,$3,0*%
G04 Aperture macros list end*
%TA.AperFunction,ComponentPad*%
%ADD10R,1.800000X1.800000*%
%TD*%
%TA.AperFunction,ComponentPad*%
%ADD11C,1.800000*%
%TD*%
%TA.AperFunction,ComponentPad*%
%ADD12RoundRect,0.249999X0.850001X0.850001X-0.850001X0.850001X-0.850001X-0.850001X0.850001X-0.850001X0*%
%TD*%
%TA.AperFunction,ComponentPad*%
%ADD13C,2.200000*%
%TD*%
%TA.AperFunction,ComponentPad*%
%ADD14C,1.600000*%
%TD*%
%TA.AperFunction,ComponentPad*%
%ADD15O,2.500000X2.500000*%
%TD*%
%TA.AperFunction,ComponentPad*%
%ADD16R,2.500000X2.500000*%
%TD*%
%TA.AperFunction,ComponentPad*%
%ADD17RoundRect,0.250000X-1.050000X-1.050000X1.050000X-1.050000X1.050000X1.050000X-1.050000X1.050000X0*%
%TD*%
%TA.AperFunction,ComponentPad*%
%ADD18C,2.600000*%
%TD*%
%TA.AperFunction,ComponentPad*%
%ADD19RoundRect,0.250000X1.050000X1.050000X-1.050000X1.050000X-1.050000X-1.050000X1.050000X-1.050000X0*%
%TD*%
G04 APERTURE END LIST*
D10*
%TO.P,D8,1,K*%
%TO.N,GND*%
X98120573Y-81915573D03*
D11*
%TO.P,D8,2,A*%
%TO.N,Net-(D8-A)*%
X100660573Y-81915573D03*
%TD*%
D12*
%TO.P,D4,1,K*%
%TO.N,Net-(D4-K)*%
X110820573Y-87675573D03*
D13*
%TO.P,D4,2,A*%
%TO.N,GND*%
X100660573Y-87675573D03*
%TD*%
D10*
%TO.P,D6,1,K*%
%TO.N,GND*%
X133934573Y-81915573D03*
D11*
%TO.P,D6,2,A*%
%TO.N,Net-(D6-A)*%
X136474573Y-81915573D03*
%TD*%
D12*
%TO.P,D3,1,K*%
%TO.N,Net-(D3-K)*%
X128854573Y-87630573D03*
D13*
%TO.P,D3,2,A*%
%TO.N,GND*%
X118694573Y-87630573D03*
%TD*%
D12*
%TO.P,D2,1,K*%
%TO.N,Net-(D2-K)*%
X146634573Y-87630573D03*
D13*
%TO.P,D2,2,A*%
%TO.N,GND*%
X136474573Y-87630573D03*
%TD*%
D14*
%TO.P,R2,1*%
%TO.N,Net-(D2-K)*%
X146634573Y-81915573D03*
%TO.P,R2,2*%
%TO.N,Net-(D6-A)*%
X139014573Y-81915573D03*
%TD*%
%TO.P,R1,1*%
%TO.N,Net-(D1-K)*%
X164414573Y-81915573D03*
%TO.P,R1,2*%
%TO.N,Net-(D5-A)*%
X156794573Y-81915573D03*
%TD*%
D15*
%TO.P,K4,1*%
%TO.N,Net-(D4-K)*%
X110820573Y-97377573D03*
%TO.P,K4,2*%
%TO.N,GND*%
X98820573Y-97377573D03*
D16*
%TO.P,K4,3*%
%TO.N,C_4*%
X104820573Y-95377573D03*
D15*
%TO.P,K4,4*%
%TO.N,NC_4*%
X110820573Y-109577573D03*
%TO.P,K4,5*%
%TO.N,NO_4*%
X98820573Y-109577573D03*
%TD*%
D14*
%TO.P,R4,1*%
%TO.N,Net-(D4-K)*%
X110820573Y-81915573D03*
%TO.P,R4,2*%
%TO.N,Net-(D8-A)*%
X103200573Y-81915573D03*
%TD*%
D17*
%TO.P,J1,1,Pin_1*%
%TO.N,NO_4*%
X104216573Y-125857573D03*
D18*
%TO.P,J1,2,Pin_2*%
%TO.N,C_4*%
X109296573Y-125857573D03*
%TO.P,J1,3,Pin_3*%
%TO.N,NC_4*%
X114376573Y-125857573D03*
%TO.P,J1,4,Pin_4*%
%TO.N,NO_3*%
X119456573Y-125857573D03*
%TO.P,J1,5,Pin_5*%
%TO.N,C_3*%
X124536573Y-125857573D03*
%TO.P,J1,6,Pin_6*%
%TO.N,NC_3*%
X129616573Y-125857573D03*
%TO.P,J1,7,Pin_7*%
%TO.N,NO_2*%
X134696573Y-125857573D03*
%TO.P,J1,8,Pin_8*%
%TO.N,C_2*%
X139776573Y-125857573D03*
%TO.P,J1,9,Pin_9*%
%TO.N,NC_2*%
X144856573Y-125857573D03*
%TO.P,J1,10,Pin_10*%
%TO.N,NO_1*%
X149936573Y-125857573D03*
%TO.P,J1,11,Pin_11*%
%TO.N,C_1*%
X155016573Y-125857573D03*
%TO.P,J1,12,Pin_12*%
%TO.N,NC_1*%
X160096573Y-125857573D03*
%TD*%
D10*
%TO.P,D7,1,K*%
%TO.N,GND*%
X116154573Y-81915573D03*
D11*
%TO.P,D7,2,A*%
%TO.N,Net-(D7-A)*%
X118694573Y-81915573D03*
%TD*%
D12*
%TO.P,D1,1,K*%
%TO.N,Net-(D1-K)*%
X164414573Y-87630573D03*
D13*
%TO.P,D1,2,A*%
%TO.N,GND*%
X154254573Y-87630573D03*
%TD*%
D15*
%TO.P,K1,1*%
%TO.N,Net-(D1-K)*%
X164505573Y-97377573D03*
%TO.P,K1,2*%
%TO.N,GND*%
X152505573Y-97377573D03*
D16*
%TO.P,K1,3*%
%TO.N,C_1*%
X158505573Y-95377573D03*
D15*
%TO.P,K1,4*%
%TO.N,NC_1*%
X164505573Y-109577573D03*
%TO.P,K1,5*%
%TO.N,NO_1*%
X152505573Y-109577573D03*
%TD*%
%TO.P,K3,1*%
%TO.N,Net-(D3-K)*%
X128715573Y-97377573D03*
%TO.P,K3,2*%
%TO.N,GND*%
X116715573Y-97377573D03*
D16*
%TO.P,K3,3*%
%TO.N,C_3*%
X122715573Y-95377573D03*
D15*
%TO.P,K3,4*%
%TO.N,NC_3*%
X128715573Y-109577573D03*
%TO.P,K3,5*%
%TO.N,NO_3*%
X116715573Y-109577573D03*
%TD*%
D10*
%TO.P,D5,1,K*%
%TO.N,GND*%
X151714573Y-81915573D03*
D11*
%TO.P,D5,2,A*%
%TO.N,Net-(D5-A)*%
X154254573Y-81915573D03*
%TD*%
D14*
%TO.P,R3,1*%
%TO.N,Net-(D3-K)*%
X128854573Y-81915573D03*
%TO.P,R3,2*%
%TO.N,Net-(D7-A)*%
X121234573Y-81915573D03*
%TD*%
D15*
%TO.P,K2,1*%
%TO.N,Net-(D2-K)*%
X146610573Y-97377573D03*
%TO.P,K2,2*%
%TO.N,GND*%
X134610573Y-97377573D03*
D16*
%TO.P,K2,3*%
%TO.N,C_2*%
X140610573Y-95377573D03*
D15*
%TO.P,K2,4*%
%TO.N,NC_2*%
X146610573Y-109577573D03*
%TO.P,K2,5*%
%TO.N,NO_2*%
X134610573Y-109577573D03*
%TD*%
D19*
%TO.P,J4,1,Pin_1*%
%TO.N,GND*%
X142570573Y-71120573D03*
D18*
%TO.P,J4,2,Pin_2*%
%TO.N,Net-(D1-K)*%
X137490573Y-71120573D03*
%TO.P,J4,3,Pin_3*%
%TO.N,Net-(D2-K)*%
X132410573Y-71120573D03*
%TO.P,J4,4,Pin_4*%
%TO.N,Net-(D3-K)*%
X127330573Y-71120573D03*
%TO.P,J4,5,Pin_5*%
%TO.N,Net-(D4-K)*%
X122250573Y-71120573D03*
%TD*%
M02*
