M48
METRIC
T1C0.800
T2C0.900
T3C1.100
T4C1.300
%
G90
G05
T1
X103.201Y-81.916
X110.821Y-81.916
X121.235Y-81.916
X128.855Y-81.916
X139.015Y-81.916
X146.635Y-81.916
X156.795Y-81.916
X164.415Y-81.916
T2
X98.121Y-81.916
X100.661Y-81.916
X116.155Y-81.916
X118.695Y-81.916
X133.935Y-81.916
X136.475Y-81.916
X151.715Y-81.916
X154.255Y-81.916
T3
X100.661Y-87.676
X110.821Y-87.676
X118.695Y-87.631
X128.855Y-87.631
X136.475Y-87.631
X146.635Y-87.631
X154.255Y-87.631
X164.415Y-87.631
T4
X98.821Y-97.378
X98.821Y-109.578
X104.217Y-125.858
X104.821Y-95.378
X109.297Y-125.858
X110.821Y-97.378
X110.821Y-109.578
X114.377Y-125.858
X116.716Y-97.378
X116.716Y-109.578
X119.457Y-125.858
X122.251Y-71.121
X122.716Y-95.378
X124.537Y-125.858
X127.331Y-71.121
X128.716Y-97.378
X128.716Y-109.578
X129.617Y-125.858
X132.411Y-71.121
X134.611Y-97.378
X134.611Y-109.578
X134.697Y-125.858
X137.491Y-71.121
X139.777Y-125.858
X140.611Y-95.378
X142.571Y-71.121
X144.857Y-125.858
X146.611Y-97.378
X146.611Y-109.578
X149.937Y-125.858
X152.506Y-97.378
X152.506Y-109.578
X155.017Y-125.858
X158.506Y-95.378
X160.097Y-125.858
X164.506Y-97.378
X164.506Y-109.578
M30
