%TF.GenerationSoftware,KiCad,Pcbnew,9.0.4*%
%TF.CreationDate,2026-03-20T08:57:38-03:00*%
%TF.ProjectId,relay_module_24v_4,72656c61-795f-46d6-9f64-756c655f3234,rev?*%
%TF.SameCoordinates,Original*%
%TF.FileFunction,Copper,L2,Bot*%
%TF.FilePolarity,Positive*%
%FSLAX46Y46*%
G04 Gerber Fmt 4.6, Leading zero omitted, Abs format (unit mm)*
G04 Created by KiCad (PCBNEW 9.0.4) date 2026-03-20 08:57:38*
%MOMM*%
%LPD*%
G01*
G04 APERTURE LIST*
G04 Aperture macros list*
%AMRoundRect*
0 Rectangle with rounded corners*
0 $1 Rounding radius*
0 $2 $3 $4 $5 $6 $7 $8 $9 X,Y pos of 4 corners*
0 Add a 4 corners polygon primitive as box body*
4,1,4,$2,$3,$4,$5,$6,$7,$8,$9,$2,$3,0*
0 Add four circle primitives for the rounded corners*
1,1,$1+$1,$2,$3*
1,1,$1+$1,$4,$5*
1,1,$1+$1,$6,$7*
1,1,$1+$1,$8,$9*
0 Add four rect primitives between the rounded corners*
20,1,$1+$1,$2,$3,$4,$5,0*
20,1,$1+$1,$4,$5,$6,$7,0*
20,1,$1+$1,$6,$7,$8,$9,0*
20,1,$1+$1,$8,$9,$2,$3,0*%
G04 Aperture macros list end*
%TA.AperFunction,ComponentPad*%
%ADD10R,1.800000X1.800000*%
%TD*%
%TA.AperFunction,ComponentPad*%
%ADD11C,1.800000*%
%TD*%
%TA.AperFunction,ComponentPad*%
%ADD12RoundRect,0.249999X0.850001X0.850001X-0.850001X0.850001X-0.850001X-0.850001X0.850001X-0.850001X0*%
%TD*%
%TA.AperFunction,ComponentPad*%
%ADD13C,2.200000*%
%TD*%
%TA.AperFunction,ComponentPad*%
%ADD14C,1.600000*%
%TD*%
%TA.AperFunction,ComponentPad*%
%ADD15O,2.500000X2.500000*%
%TD*%
%TA.AperFunction,ComponentPad*%
%ADD16R,2.500000X2.500000*%
%TD*%
%TA.AperFunction,ComponentPad*%
%ADD17RoundRect,0.250000X-1.050000X-1.050000X1.050000X-1.050000X1.050000X1.050000X-1.050000X1.050000X0*%
%TD*%
%TA.AperFunction,ComponentPad*%
%ADD18C,2.600000*%
%TD*%
%TA.AperFunction,ComponentPad*%
%ADD19RoundRect,0.250000X1.050000X1.050000X-1.050000X1.050000X-1.050000X-1.050000X1.050000X-1.050000X0*%
%TD*%
%TA.AperFunction,Conductor*%
%ADD20C,4.000000*%
%TD*%
%TA.AperFunction,Conductor*%
%ADD21C,1.000000*%
%TD*%
%TA.AperFunction,Conductor*%
%ADD22C,3.500000*%
%TD*%
G04 APERTURE END LIST*
D10*
%TO.P,D8,1,K*%
%TO.N,GND*%
X98120573Y-81915573D03*
D11*
%TO.P,D8,2,A*%
%TO.N,Net-(D8-A)*%
X100660573Y-81915573D03*
%TD*%
D12*
%TO.P,D4,1,K*%
%TO.N,Net-(D4-K)*%
X110820573Y-87675573D03*
D13*
%TO.P,D4,2,A*%
%TO.N,GND*%
X100660573Y-87675573D03*
%TD*%
D10*
%TO.P,D6,1,K*%
%TO.N,GND*%
X133934573Y-81915573D03*
D11*
%TO.P,D6,2,A*%
%TO.N,Net-(D6-A)*%
X136474573Y-81915573D03*
%TD*%
D12*
%TO.P,D3,1,K*%
%TO.N,Net-(D3-K)*%
X128854573Y-87630573D03*
D13*
%TO.P,D3,2,A*%
%TO.N,GND*%
X118694573Y-87630573D03*
%TD*%
D12*
%TO.P,D2,1,K*%
%TO.N,Net-(D2-K)*%
X146634573Y-87630573D03*
D13*
%TO.P,D2,2,A*%
%TO.N,GND*%
X136474573Y-87630573D03*
%TD*%
D14*
%TO.P,R2,1*%
%TO.N,Net-(D2-K)*%
X146634573Y-81915573D03*
%TO.P,R2,2*%
%TO.N,Net-(D6-A)*%
X139014573Y-81915573D03*
%TD*%
%TO.P,R1,1*%
%TO.N,Net-(D1-K)*%
X164414573Y-81915573D03*
%TO.P,R1,2*%
%TO.N,Net-(D5-A)*%
X156794573Y-81915573D03*
%TD*%
D15*
%TO.P,K4,1*%
%TO.N,Net-(D4-K)*%
X110820573Y-97377573D03*
%TO.P,K4,2*%
%TO.N,GND*%
X98820573Y-97377573D03*
D16*
%TO.P,K4,3*%
%TO.N,C_4*%
X104820573Y-95377573D03*
D15*
%TO.P,K4,4*%
%TO.N,NC_4*%
X110820573Y-109577573D03*
%TO.P,K4,5*%
%TO.N,NO_4*%
X98820573Y-109577573D03*
%TD*%
D14*
%TO.P,R4,1*%
%TO.N,Net-(D4-K)*%
X110820573Y-81915573D03*
%TO.P,R4,2*%
%TO.N,Net-(D8-A)*%
X103200573Y-81915573D03*
%TD*%
D17*
%TO.P,J1,1,Pin_1*%
%TO.N,NO_4*%
X104216573Y-125857573D03*
D18*
%TO.P,J1,2,Pin_2*%
%TO.N,C_4*%
X109296573Y-125857573D03*
%TO.P,J1,3,Pin_3*%
%TO.N,NC_4*%
X114376573Y-125857573D03*
%TO.P,J1,4,Pin_4*%
%TO.N,NO_3*%
X119456573Y-125857573D03*
%TO.P,J1,5,Pin_5*%
%TO.N,C_3*%
X124536573Y-125857573D03*
%TO.P,J1,6,Pin_6*%
%TO.N,NC_3*%
X129616573Y-125857573D03*
%TO.P,J1,7,Pin_7*%
%TO.N,NO_2*%
X134696573Y-125857573D03*
%TO.P,J1,8,Pin_8*%
%TO.N,C_2*%
X139776573Y-125857573D03*
%TO.P,J1,9,Pin_9*%
%TO.N,NC_2*%
X144856573Y-125857573D03*
%TO.P,J1,10,Pin_10*%
%TO.N,NO_1*%
X149936573Y-125857573D03*
%TO.P,J1,11,Pin_11*%
%TO.N,C_1*%
X155016573Y-125857573D03*
%TO.P,J1,12,Pin_12*%
%TO.N,NC_1*%
X160096573Y-125857573D03*
%TD*%
D10*
%TO.P,D7,1,K*%
%TO.N,GND*%
X116154573Y-81915573D03*
D11*
%TO.P,D7,2,A*%
%TO.N,Net-(D7-A)*%
X118694573Y-81915573D03*
%TD*%
D12*
%TO.P,D1,1,K*%
%TO.N,Net-(D1-K)*%
X164414573Y-87630573D03*
D13*
%TO.P,D1,2,A*%
%TO.N,GND*%
X154254573Y-87630573D03*
%TD*%
D15*
%TO.P,K1,1*%
%TO.N,Net-(D1-K)*%
X164505573Y-97377573D03*
%TO.P,K1,2*%
%TO.N,GND*%
X152505573Y-97377573D03*
D16*
%TO.P,K1,3*%
%TO.N,C_1*%
X158505573Y-95377573D03*
D15*
%TO.P,K1,4*%
%TO.N,NC_1*%
X164505573Y-109577573D03*
%TO.P,K1,5*%
%TO.N,NO_1*%
X152505573Y-109577573D03*
%TD*%
%TO.P,K3,1*%
%TO.N,Net-(D3-K)*%
X128715573Y-97377573D03*
%TO.P,K3,2*%
%TO.N,GND*%
X116715573Y-97377573D03*
D16*
%TO.P,K3,3*%
%TO.N,C_3*%
X122715573Y-95377573D03*
D15*
%TO.P,K3,4*%
%TO.N,NC_3*%
X128715573Y-109577573D03*
%TO.P,K3,5*%
%TO.N,NO_3*%
X116715573Y-109577573D03*
%TD*%
D10*
%TO.P,D5,1,K*%
%TO.N,GND*%
X151714573Y-81915573D03*
D11*
%TO.P,D5,2,A*%
%TO.N,Net-(D5-A)*%
X154254573Y-81915573D03*
%TD*%
D14*
%TO.P,R3,1*%
%TO.N,Net-(D3-K)*%
X128854573Y-81915573D03*
%TO.P,R3,2*%
%TO.N,Net-(D7-A)*%
X121234573Y-81915573D03*
%TD*%
D15*
%TO.P,K2,1*%
%TO.N,Net-(D2-K)*%
X146610573Y-97377573D03*
%TO.P,K2,2*%
%TO.N,GND*%
X134610573Y-97377573D03*
D16*
%TO.P,K2,3*%
%TO.N,C_2*%
X140610573Y-95377573D03*
D15*
%TO.P,K2,4*%
%TO.N,NC_2*%
X146610573Y-109577573D03*
%TO.P,K2,5*%
%TO.N,NO_2*%
X134610573Y-109577573D03*
%TD*%
D19*
%TO.P,J4,1,Pin_1*%
%TO.N,GND*%
X142570573Y-71120573D03*
D18*
%TO.P,J4,2,Pin_2*%
%TO.N,Net-(D1-K)*%
X137490573Y-71120573D03*
%TO.P,J4,3,Pin_3*%
%TO.N,Net-(D2-K)*%
X132410573Y-71120573D03*
%TO.P,J4,4,Pin_4*%
%TO.N,Net-(D3-K)*%
X127330573Y-71120573D03*
%TO.P,J4,5,Pin_5*%
%TO.N,Net-(D4-K)*%
X122250573Y-71120573D03*
%TD*%
D20*
%TO.N,C_1*%
X158505573Y-117490827D02*
X158505573Y-95377573D01*
X155016573Y-120979827D02*
X158505573Y-117490827D01*
X155016573Y-125857573D02*
X155016573Y-120979827D01*
%TO.N,C_2*%
X139776573Y-96211573D02*
X140610573Y-95377573D01*
X139776573Y-125857573D02*
X139776573Y-96211573D01*
%TO.N,C_3*%
X122715573Y-111285573D02*
X122715573Y-95377573D01*
X124536573Y-113106573D02*
X122715573Y-111285573D01*
X124536573Y-125857573D02*
X124536573Y-113106573D01*
%TO.N,C_4*%
X104820573Y-119044573D02*
X104820573Y-95377573D01*
X109296573Y-123520573D02*
X104820573Y-119044573D01*
X109296573Y-125857573D02*
X109296573Y-123520573D01*
%TO.N,NO_4*%
X104216573Y-125857573D02*
X98820573Y-120461573D01*
D21*
%TO.N,Net-(D1-K)*%
X164414573Y-87630573D02*
X164414573Y-81915573D01*
X164505573Y-87721573D02*
X164414573Y-87630573D01*
X137490573Y-71120573D02*
X140919573Y-74549573D01*
X164414573Y-78613573D02*
X160350573Y-74549573D01*
X140919573Y-74549573D02*
X160350573Y-74549573D01*
X164505573Y-97377573D02*
X164505573Y-87721573D01*
X164414573Y-81505573D02*
X164824573Y-81915573D01*
X164414573Y-81915573D02*
X164414573Y-78613573D01*
%TO.N,Net-(D2-K)*%
X146610573Y-87654573D02*
X146634573Y-87630573D01*
X146610573Y-97377573D02*
X146610573Y-87654573D01*
X146634573Y-87630573D02*
X146634573Y-81915573D01*
X139395573Y-78105573D02*
X132410573Y-71120573D01*
X144856573Y-78105573D02*
X139395573Y-78105573D01*
X146634573Y-81915573D02*
X146634573Y-79883573D01*
X146634573Y-79883573D02*
X144856573Y-78105573D01*
%TO.N,Net-(D3-K)*%
X128854573Y-87630573D02*
X128854573Y-81915573D01*
X128715573Y-97377573D02*
X128715573Y-87769573D01*
X128854573Y-72644573D02*
X127330573Y-71120573D01*
X128715573Y-87769573D02*
X128854573Y-87630573D01*
X128854573Y-81915573D02*
X128854573Y-72644573D01*
%TO.N,Net-(D4-K)*%
X121615573Y-71120573D02*
X122250573Y-71120573D01*
X110820573Y-97377573D02*
X110820573Y-87675573D01*
X110820573Y-81915573D02*
X110820573Y-87675573D01*
X110820573Y-81915573D02*
X121615573Y-71120573D01*
%TO.N,Net-(D5-A)*%
X154664573Y-81915573D02*
X157204573Y-81915573D01*
%TO.N,GND*%
X98820573Y-97377573D02*
X98820573Y-89515573D01*
X116715573Y-89609573D02*
X118694573Y-87630573D01*
X134610573Y-89494573D02*
X136474573Y-87630573D01*
X116408573Y-97070573D02*
X116715573Y-97377573D01*
X116715573Y-97377573D02*
X116715573Y-89609573D01*
X152505573Y-89379573D02*
X154254573Y-87630573D01*
X134610573Y-97377573D02*
X134610573Y-89494573D01*
X152505573Y-97377573D02*
X152505573Y-89379573D01*
X98820573Y-89515573D02*
X100660573Y-87675573D01*
%TO.N,Net-(D6-A)*%
X136474573Y-81915573D02*
X139014573Y-81915573D01*
%TO.N,Net-(D7-A)*%
X121234573Y-81915573D02*
X118694573Y-81915573D01*
%TO.N,Net-(D8-A)*%
X103200573Y-81915573D02*
X100660573Y-81915573D01*
D20*
%TO.N,NO_1*%
X152505573Y-109577573D02*
X152505573Y-113824573D01*
X152505573Y-113824573D02*
X149936573Y-116393573D01*
X149936573Y-125857573D02*
X149936573Y-116393573D01*
%TO.N,NO_3*%
X116715573Y-114008573D02*
X119456573Y-116749573D01*
X119456573Y-116749573D02*
X119456573Y-125857573D01*
X116715573Y-109577573D02*
X116715573Y-114008573D01*
%TO.N,NC_3*%
X129616573Y-125857573D02*
X129616573Y-110478573D01*
X129616573Y-110478573D02*
X128715573Y-109577573D01*
%TO.N,NC_2*%
X144856573Y-125857573D02*
X144856573Y-111331573D01*
X144856573Y-111331573D02*
X146610573Y-109577573D01*
D22*
%TO.N,NO_2*%
X134696573Y-109663573D02*
X134610573Y-109577573D01*
D20*
X134696573Y-125857573D02*
X134696573Y-109663573D01*
%TO.N,NC_4*%
X114418573Y-120711573D02*
X110820573Y-117113573D01*
X110820573Y-117113573D02*
X110820573Y-109577573D01*
X114376573Y-125857573D02*
X114376573Y-120753573D01*
%TO.N,NC_1*%
X164505573Y-121448573D02*
X164505573Y-109577573D01*
X160096573Y-125857573D02*
X164505573Y-121448573D01*
%TO.N,NO_4*%
X98820573Y-120461573D02*
X98820573Y-109577573D01*
%TD*%
%TA.AperFunction,Conductor*%
%TO.N,GND*%
G36*
X166705684Y-65271074D02*
G01*
X166768527Y-65271073D01*
X166774608Y-65271221D01*
X167108515Y-65287623D01*
X167120613Y-65288815D01*
X167448278Y-65337417D01*
X167460208Y-65339790D01*
X167781540Y-65420278D01*
X167793151Y-65423800D01*
X168105066Y-65535402D01*
X168116292Y-65540052D01*
X168415735Y-65681676D01*
X168426467Y-65687412D01*
X168710591Y-65857707D01*
X168720709Y-65864468D01*
X168986758Y-66061780D01*
X168996165Y-66069499D01*
X169241615Y-66291958D01*
X169250217Y-66300561D01*
X169295152Y-66350139D01*
X169472666Y-66545992D01*
X169480386Y-66555399D01*
X169677706Y-66821452D01*
X169684466Y-66831568D01*
X169854772Y-67115702D01*
X169860500Y-67126420D01*
X170002127Y-67425861D01*
X170006784Y-67437103D01*
X170118378Y-67748978D01*
X170121911Y-67760623D01*
X170202399Y-68081943D01*
X170204773Y-68093877D01*
X170253379Y-68421535D01*
X170254572Y-68433646D01*
X170270924Y-68766443D01*
X170271073Y-68772528D01*
X170271073Y-90808000D01*
X170251388Y-90875039D01*
X170198584Y-90920794D01*
X170147073Y-90932000D01*
X165880073Y-90932000D01*
X165813034Y-90912315D01*
X165767279Y-90859511D01*
X165756073Y-90808000D01*
X165756073Y-89427734D01*
X165775758Y-89360695D01*
X165814045Y-89325729D01*
X165812729Y-89323732D01*
X165817973Y-89320274D01*
X165817981Y-89320271D01*
X165975682Y-89191682D01*
X166104271Y-89033981D01*
X166198482Y-88853623D01*
X166254459Y-88657992D01*
X166265073Y-88538611D01*
X166265073Y-86722535D01*
X166254459Y-86603154D01*
X166198482Y-86407523D01*
X166104271Y-86227165D01*
X166012374Y-86114463D01*
X165975682Y-86069463D01*
X165817977Y-85940872D01*
X165731661Y-85895784D01*
X165681354Y-85847298D01*
X165665073Y-85785876D01*
X165665073Y-82894910D01*
X165684758Y-82827871D01*
X165701392Y-82807229D01*
X165727997Y-82780624D01*
X165778402Y-82730219D01*
X165894097Y-82570979D01*
X165983457Y-82395599D01*
X166044282Y-82208400D01*
X166053278Y-82151603D01*
X166075073Y-82013995D01*
X166075073Y-81817151D01*
X166044282Y-81622746D01*
X165983455Y-81435543D01*
X165905221Y-81282001D01*
X165894097Y-81260168D01*
X165778402Y-81100928D01*
X165701392Y-81023918D01*
X165667907Y-80962595D01*
X165665073Y-80936237D01*
X165665073Y-78515150D01*
X165647159Y-78402056D01*
X165634282Y-78320747D01*
X165634281Y-78320743D01*
X165634281Y-78320742D01*
X165574964Y-78138185D01*
X165573902Y-78134420D01*
X165484096Y-77958167D01*
X165368401Y-77798927D01*
X161165219Y-73595745D01*
X161005978Y-73480049D01*
X160830603Y-73390690D01*
X160643399Y-73329863D01*
X160448995Y-73299073D01*
X160448990Y-73299073D01*
X141488909Y-73299073D01*
X141421870Y-73279388D01*
X141401228Y-73262754D01*
X139567137Y-71428663D01*
X139533652Y-71367340D01*
X139531879Y-71324801D01*
X139541073Y-71254970D01*
X139541073Y-70986176D01*
X139505989Y-70719682D01*
X139436420Y-70460047D01*
X139397705Y-70366581D01*
X139333561Y-70211722D01*
X139333553Y-70211706D01*
X139277563Y-70114730D01*
X139199160Y-69978932D01*
X139035529Y-69765683D01*
X139035524Y-69765677D01*
X138845468Y-69575621D01*
X138845461Y-69575615D01*
X138632218Y-69411989D01*
X138632217Y-69411988D01*
X138632214Y-69411986D01*
X138539405Y-69358403D01*
X138399439Y-69277592D01*
X138399423Y-69277584D01*
X138151097Y-69174725D01*
X138021281Y-69139941D01*
X137891464Y-69105157D01*
X137891458Y-69105156D01*
X137891453Y-69105155D01*
X137624971Y-69070073D01*
X137624970Y-69070073D01*
X137356176Y-69070073D01*
X137356175Y-69070073D01*
X137089692Y-69105155D01*
X137089685Y-69105156D01*
X137089682Y-69105157D01*
X137034812Y-69119859D01*
X136830048Y-69174725D01*
X136581722Y-69277584D01*
X136581706Y-69277592D01*
X136348927Y-69411989D01*
X136135684Y-69575615D01*
X136135677Y-69575621D01*
X135945621Y-69765677D01*
X135945615Y-69765684D01*
X135781989Y-69978927D01*
X135647592Y-70211706D01*
X135647584Y-70211722D01*
X135544725Y-70460048D01*
X135475158Y-70719679D01*
X135475155Y-70719692D01*
X135440073Y-70986175D01*
X135440073Y-71254970D01*
X135475155Y-71521453D01*
X135475156Y-71521458D01*
X135475157Y-71521464D01*
X135475158Y-71521466D01*
X135544725Y-71781097D01*
X135647584Y-72029423D01*
X135647592Y-72029439D01*
X135725598Y-72164548D01*
X135781986Y-72262214D01*
X135781988Y-72262217D01*
X135781989Y-72262218D01*
X135945615Y-72475461D01*
X135945621Y-72475468D01*
X136135677Y-72665524D01*
X136135683Y-72665529D01*
X136348932Y-72829160D01*
X136498541Y-72915537D01*
X136581706Y-72963553D01*
X136581722Y-72963561D01*
X136722675Y-73021945D01*
X136830047Y-73066420D01*
X137089682Y-73135989D01*
X137225717Y-73153898D01*
X137356175Y-73171073D01*
X137356176Y-73171073D01*
X137624963Y-73171073D01*
X137624970Y-73171073D01*
X137694798Y-73161879D01*
X137763830Y-73172644D01*
X137798663Y-73197137D01*
X139965744Y-75364218D01*
X139965745Y-75364219D01*
X140104927Y-75503401D01*
X140264168Y-75619097D01*
X140439548Y-75708457D01*
X140439552Y-75708459D01*
X140523796Y-75735831D01*
X140565919Y-75749517D01*
X140565920Y-75749518D01*
X140565921Y-75749518D01*
X140626746Y-75769282D01*
X140699649Y-75780828D01*
X140821151Y-75800073D01*
X140821156Y-75800073D01*
X159781237Y-75800073D01*
X159848276Y-75819758D01*
X159868918Y-75836392D01*
X163127754Y-79095228D01*
X163161239Y-79156551D01*
X163164073Y-79182909D01*
X163164073Y-80958579D01*
X163144388Y-81025618D01*
X163140392Y-81031463D01*
X163088467Y-81102933D01*
X163088466Y-81102935D01*
X162977670Y-81320385D01*
X162902251Y-81552500D01*
X162864073Y-81793546D01*
X162864073Y-82037599D01*
X162882129Y-82151603D01*
X162902252Y-82278649D01*
X162977669Y-82510758D01*
X163088467Y-82728212D01*
X163140392Y-82799680D01*
X163163871Y-82865484D01*
X163164073Y-82872564D01*
X163164073Y-85785876D01*
X163144388Y-85852915D01*
X163097485Y-85895784D01*
X163011168Y-85940872D01*
X162853463Y-86069463D01*
X162724877Y-86227162D01*
X162630662Y-86407526D01*
X162574687Y-86603155D01*
X162574686Y-86603158D01*
X162564073Y-86722538D01*
X162564073Y-88538607D01*
X162574686Y-88657987D01*
X162574686Y-88657989D01*
X162574687Y-88657992D01*
X162587562Y-88702987D01*
X162630662Y-88853619D01*
X162630663Y-88853622D01*
X162630664Y-88853623D01*
X162724875Y-89033981D01*
X162724877Y-89033983D01*
X162853463Y-89191682D01*
X162979433Y-89294397D01*
X163011165Y-89320271D01*
X163188487Y-89412896D01*
X163238791Y-89461379D01*
X163255073Y-89522802D01*
X163255073Y-90808000D01*
X163235388Y-90875039D01*
X163182584Y-90920794D01*
X163131073Y-90932000D01*
X147985073Y-90932000D01*
X147918034Y-90912315D01*
X147872279Y-90859511D01*
X147861073Y-90808000D01*
X147861073Y-89487805D01*
X147880758Y-89420766D01*
X147927662Y-89377896D01*
X148037981Y-89320271D01*
X148195682Y-89191682D01*
X148324271Y-89033981D01*
X148418482Y-88853623D01*
X148474459Y-88657992D01*
X148485073Y-88538611D01*
X148485073Y-86722535D01*
X148474459Y-86603154D01*
X148418482Y-86407523D01*
X148324271Y-86227165D01*
X148232374Y-86114463D01*
X148195682Y-86069463D01*
X148037977Y-85940872D01*
X147951661Y-85895784D01*
X147901354Y-85847298D01*
X147885073Y-85785876D01*
X147885073Y-82872564D01*
X147904758Y-82805525D01*
X147908738Y-82799702D01*
X147960679Y-82728212D01*
X148071477Y-82510758D01*
X148146894Y-82278649D01*
X148185073Y-82037600D01*
X148185073Y-81793546D01*
X148183826Y-81785670D01*
X152604073Y-81785670D01*
X152604073Y-82045475D01*
X152644713Y-82302066D01*
X152724995Y-82549149D01*
X152842941Y-82780627D01*
X152948306Y-82925649D01*
X152995642Y-82990802D01*
X153179344Y-83174504D01*
X153389522Y-83327207D01*
X153537018Y-83402360D01*
X153620996Y-83445150D01*
X153620998Y-83445150D01*
X153621001Y-83445152D01*
X153868080Y-83525433D01*
X154000279Y-83546370D01*
X154124671Y-83566073D01*
X154124676Y-83566073D01*
X154384475Y-83566073D01*
X154497871Y-83548112D01*
X154641066Y-83525433D01*
X154888145Y-83445152D01*
X155119624Y-83327207D01*
X155308811Y-83189755D01*
X155374617Y-83166275D01*
X155381696Y-83166073D01*
X155837581Y-83166073D01*
X155904620Y-83185758D01*
X155910459Y-83189749D01*
X155981934Y-83241679D01*
X156199388Y-83352477D01*
X156431497Y-83427894D01*
X156672546Y-83466073D01*
X156672547Y-83466073D01*
X156916599Y-83466073D01*
X156916600Y-83466073D01*
X157157649Y-83427894D01*
X157389758Y-83352477D01*
X157607212Y-83241679D01*
X157804656Y-83098228D01*
X157977228Y-82925656D01*
X158009386Y-82881391D01*
X158022011Y-82866608D01*
X158158401Y-82730219D01*
X158274097Y-82570978D01*
X158363457Y-82395598D01*
X158424282Y-82208399D01*
X158426975Y-82191397D01*
X158455073Y-82013995D01*
X158455073Y-81817150D01*
X158424282Y-81622746D01*
X158363455Y-81435543D01*
X158285221Y-81282001D01*
X158274097Y-81260168D01*
X158158401Y-81100927D01*
X158022025Y-80964551D01*
X158009387Y-80949754D01*
X157977229Y-80905491D01*
X157804654Y-80732916D01*
X157804649Y-80732912D01*
X157607215Y-80589469D01*
X157607214Y-80589468D01*
X157607212Y-80589467D01*
X157389758Y-80478669D01*
X157157649Y-80403252D01*
X157157647Y-80403251D01*
X157157645Y-80403251D01*
X156989342Y-80376594D01*
X156916600Y-80365073D01*
X156672546Y-80365073D01*
X156616666Y-80373923D01*
X156431500Y-80403251D01*
X156199385Y-80478670D01*
X155981933Y-80589467D01*
X155910467Y-80641391D01*
X155844660Y-80664871D01*
X155837581Y-80665073D01*
X155381696Y-80665073D01*
X155314657Y-80645388D01*
X155308811Y-80641391D01*
X155119627Y-80503941D01*
X155119626Y-80503940D01*
X155119624Y-80503939D01*
X155047337Y-80467107D01*
X154888149Y-80385995D01*
X154641066Y-80305713D01*
X154384475Y-80265073D01*
X154384470Y-80265073D01*
X154124676Y-80265073D01*
X154124671Y-80265073D01*
X153868079Y-80305713D01*
X153620996Y-80385995D01*
X153389518Y-80503941D01*
X153179347Y-80656639D01*
X153179341Y-80656644D01*
X152995644Y-80840341D01*
X152995639Y-80840347D01*
X152842941Y-81050518D01*
X152724995Y-81281996D01*
X152644713Y-81529079D01*
X152604073Y-81785670D01*
X148183826Y-81785670D01*
X148146894Y-81552497D01*
X148071477Y-81320388D01*
X147960679Y-81102934D01*
X147950248Y-81088577D01*
X147908754Y-81031463D01*
X147885275Y-80965656D01*
X147885073Y-80958579D01*
X147885073Y-79785150D01*
X147867159Y-79672056D01*
X147854282Y-79590747D01*
X147854281Y-79590743D01*
X147854281Y-79590742D01*
X147794964Y-79408185D01*
X147793902Y-79404420D01*
X147704096Y-79228167D01*
X147671214Y-79182909D01*
X147588402Y-79068928D01*
X145671219Y-77151745D01*
X145511978Y-77036049D01*
X145336603Y-76946690D01*
X145149399Y-76885863D01*
X144954995Y-76855073D01*
X144954990Y-76855073D01*
X139964910Y-76855073D01*
X139897871Y-76835388D01*
X139877229Y-76818754D01*
X134487137Y-71428663D01*
X134453652Y-71367340D01*
X134451879Y-71324801D01*
X134461073Y-71254970D01*
X134461073Y-70986176D01*
X134425989Y-70719682D01*
X134356420Y-70460047D01*
X134317705Y-70366581D01*
X134253561Y-70211722D01*
X134253553Y-70211706D01*
X134197563Y-70114730D01*
X134119160Y-69978932D01*
X133955529Y-69765683D01*
X133955524Y-69765677D01*
X133765468Y-69575621D01*
X133765461Y-69575615D01*
X133552218Y-69411989D01*
X133552217Y-69411988D01*
X133552214Y-69411986D01*
X133459405Y-69358403D01*
X133319439Y-69277592D01*
X133319423Y-69277584D01*
X133071097Y-69174725D01*
X132941281Y-69139941D01*
X132811464Y-69105157D01*
X132811458Y-69105156D01*
X132811453Y-69105155D01*
X132544971Y-69070073D01*
X132544970Y-69070073D01*
X132276176Y-69070073D01*
X132276175Y-69070073D01*
X132009692Y-69105155D01*
X132009685Y-69105156D01*
X132009682Y-69105157D01*
X131954812Y-69119859D01*
X131750048Y-69174725D01*
X131501722Y-69277584D01*
X131501706Y-69277592D01*
X131268927Y-69411989D01*
X131055684Y-69575615D01*
X131055677Y-69575621D01*
X130865621Y-69765677D01*
X130865615Y-69765684D01*
X130701989Y-69978927D01*
X130567592Y-70211706D01*
X130567584Y-70211722D01*
X130464725Y-70460048D01*
X130395158Y-70719679D01*
X130395155Y-70719692D01*
X130360073Y-70986175D01*
X130360073Y-71254970D01*
X130395155Y-71521453D01*
X130395156Y-71521458D01*
X130395157Y-71521464D01*
X130395158Y-71521466D01*
X130464725Y-71781097D01*
X130567584Y-72029423D01*
X130567592Y-72029439D01*
X130645598Y-72164548D01*
X130701986Y-72262214D01*
X130701988Y-72262217D01*
X130701989Y-72262218D01*
X130865615Y-72475461D01*
X130865621Y-72475468D01*
X131055677Y-72665524D01*
X131055683Y-72665529D01*
X131268932Y-72829160D01*
X131418541Y-72915537D01*
X131501706Y-72963553D01*
X131501722Y-72963561D01*
X131642675Y-73021945D01*
X131750047Y-73066420D01*
X132009682Y-73135989D01*
X132145717Y-73153898D01*
X132276175Y-73171073D01*
X132276176Y-73171073D01*
X132544963Y-73171073D01*
X132544970Y-73171073D01*
X132614798Y-73161879D01*
X132683830Y-73172644D01*
X132718663Y-73197137D01*
X138580928Y-79059403D01*
X138580933Y-79059407D01*
X138594038Y-79068928D01*
X138740168Y-79175097D01*
X138844324Y-79228167D01*
X138915542Y-79264455D01*
X138915544Y-79264455D01*
X138915547Y-79264457D01*
X139015891Y-79297060D01*
X139102746Y-79325282D01*
X139297151Y-79356073D01*
X139297156Y-79356073D01*
X139297157Y-79356073D01*
X139493990Y-79356073D01*
X144287237Y-79356073D01*
X144354276Y-79375758D01*
X144374918Y-79392392D01*
X145347754Y-80365228D01*
X145381239Y-80426551D01*
X145384073Y-80452909D01*
X145384073Y-80958579D01*
X145364388Y-81025618D01*
X145360392Y-81031463D01*
X145308467Y-81102933D01*
X145308466Y-81102935D01*
X145197670Y-81320385D01*
X145122251Y-81552500D01*
X145084073Y-81793546D01*
X145084073Y-82037599D01*
X145102129Y-82151603D01*
X145122252Y-82278649D01*
X145197669Y-82510758D01*
X145308467Y-82728212D01*
X145360392Y-82799680D01*
X145383871Y-82865484D01*
X145384073Y-82872564D01*
X145384073Y-85785876D01*
X145364388Y-85852915D01*
X145317485Y-85895784D01*
X145231168Y-85940872D01*
X145073463Y-86069463D01*
X144944877Y-86227162D01*
X144850662Y-86407526D01*
X144794687Y-86603155D01*
X144794686Y-86603158D01*
X144784073Y-86722538D01*
X144784073Y-88538607D01*
X144794686Y-88657987D01*
X144794686Y-88657989D01*
X144794687Y-88657992D01*
X144807562Y-88702987D01*
X144850662Y-88853619D01*
X144850663Y-88853622D01*
X144850664Y-88853623D01*
X144944875Y-89033981D01*
X144944877Y-89033983D01*
X145073463Y-89191682D01*
X145199433Y-89294397D01*
X145231165Y-89320271D01*
X145293484Y-89352823D01*
X145343792Y-89401310D01*
X145360073Y-89462732D01*
X145360073Y-90808000D01*
X145340388Y-90875039D01*
X145287584Y-90920794D01*
X145236073Y-90932000D01*
X130090073Y-90932000D01*
X130023034Y-90912315D01*
X129977279Y-90859511D01*
X129966073Y-90808000D01*
X129966073Y-89539895D01*
X129985758Y-89472856D01*
X130038562Y-89427101D01*
X130055952Y-89420682D01*
X130077623Y-89414482D01*
X130257981Y-89320271D01*
X130415682Y-89191682D01*
X130544271Y-89033981D01*
X130638482Y-88853623D01*
X130694459Y-88657992D01*
X130705073Y-88538611D01*
X130705073Y-86722535D01*
X130694459Y-86603154D01*
X130638482Y-86407523D01*
X130544271Y-86227165D01*
X130452374Y-86114463D01*
X130415682Y-86069463D01*
X130257977Y-85940872D01*
X130171661Y-85895784D01*
X130121354Y-85847298D01*
X130105073Y-85785876D01*
X130105073Y-82872564D01*
X130124758Y-82805525D01*
X130128738Y-82799702D01*
X130180679Y-82728212D01*
X130291477Y-82510758D01*
X130366894Y-82278649D01*
X130405073Y-82037600D01*
X130405073Y-81793546D01*
X130403826Y-81785670D01*
X134824073Y-81785670D01*
X134824073Y-82045475D01*
X134864713Y-82302066D01*
X134944995Y-82549149D01*
X135062941Y-82780627D01*
X135168306Y-82925649D01*
X135215642Y-82990802D01*
X135399344Y-83174504D01*
X135609522Y-83327207D01*
X135757018Y-83402360D01*
X135840996Y-83445150D01*
X135840998Y-83445150D01*
X135841001Y-83445152D01*
X136088080Y-83525433D01*
X136220279Y-83546370D01*
X136344671Y-83566073D01*
X136344676Y-83566073D01*
X136604475Y-83566073D01*
X136717871Y-83548112D01*
X136861066Y-83525433D01*
X137108145Y-83445152D01*
X137339624Y-83327207D01*
X137528811Y-83189755D01*
X137594617Y-83166275D01*
X137601696Y-83166073D01*
X138057581Y-83166073D01*
X138124620Y-83185758D01*
X138130459Y-83189749D01*
X138201934Y-83241679D01*
X138419388Y-83352477D01*
X138651497Y-83427894D01*
X138892546Y-83466073D01*
X138892547Y-83466073D01*
X139136599Y-83466073D01*
X139136600Y-83466073D01*
X139377649Y-83427894D01*
X139609758Y-83352477D01*
X139827212Y-83241679D01*
X140024656Y-83098228D01*
X140197228Y-82925656D01*
X140340679Y-82728212D01*
X140451477Y-82510758D01*
X140526894Y-82278649D01*
X140565073Y-82037600D01*
X140565073Y-81793546D01*
X140526894Y-81552497D01*
X140451477Y-81320388D01*
X140340679Y-81102934D01*
X140302597Y-81050518D01*
X140197233Y-80905496D01*
X140197229Y-80905491D01*
X140024654Y-80732916D01*
X140024649Y-80732912D01*
X139827215Y-80589469D01*
X139827214Y-80589468D01*
X139827212Y-80589467D01*
X139609758Y-80478669D01*
X139377649Y-80403252D01*
X139377647Y-80403251D01*
X139377645Y-80403251D01*
X139209342Y-80376594D01*
X139136600Y-80365073D01*
X138892546Y-80365073D01*
X138836666Y-80373923D01*
X138651500Y-80403251D01*
X138419385Y-80478670D01*
X138201933Y-80589467D01*
X138130467Y-80641391D01*
X138064660Y-80664871D01*
X138057581Y-80665073D01*
X137601696Y-80665073D01*
X137534657Y-80645388D01*
X137528811Y-80641391D01*
X137339627Y-80503941D01*
X137339626Y-80503940D01*
X137339624Y-80503939D01*
X137267337Y-80467107D01*
X137108149Y-80385995D01*
X136861066Y-80305713D01*
X136604475Y-80265073D01*
X136604470Y-80265073D01*
X136344676Y-80265073D01*
X136344671Y-80265073D01*
X136088079Y-80305713D01*
X135840996Y-80385995D01*
X135609518Y-80503941D01*
X135399347Y-80656639D01*
X135399341Y-80656644D01*
X135215644Y-80840341D01*
X135215639Y-80840347D01*
X135062941Y-81050518D01*
X134944995Y-81281996D01*
X134864713Y-81529079D01*
X134824073Y-81785670D01*
X130403826Y-81785670D01*
X130366894Y-81552497D01*
X130291477Y-81320388D01*
X130180679Y-81102934D01*
X130170248Y-81088577D01*
X130128754Y-81031463D01*
X130105275Y-80965656D01*
X130105073Y-80958579D01*
X130105073Y-72546156D01*
X130101100Y-72521072D01*
X130101100Y-72521071D01*
X130074283Y-72351750D01*
X130074282Y-72351749D01*
X130074282Y-72351746D01*
X130021758Y-72190097D01*
X130013457Y-72164548D01*
X129944616Y-72029439D01*
X129924098Y-71989169D01*
X129906717Y-71965247D01*
X129808401Y-71829927D01*
X129669219Y-71690745D01*
X129407137Y-71428663D01*
X129373652Y-71367340D01*
X129371879Y-71324801D01*
X129381073Y-71254970D01*
X129381073Y-70986176D01*
X129345989Y-70719682D01*
X129276420Y-70460047D01*
X129237705Y-70366581D01*
X129173561Y-70211722D01*
X129173553Y-70211706D01*
X129117563Y-70114730D01*
X129039160Y-69978932D01*
X128875529Y-69765683D01*
X128875524Y-69765677D01*
X128685468Y-69575621D01*
X128685461Y-69575615D01*
X128472218Y-69411989D01*
X128472217Y-69411988D01*
X128472214Y-69411986D01*
X128379405Y-69358403D01*
X128239439Y-69277592D01*
X128239423Y-69277584D01*
X127991097Y-69174725D01*
X127861281Y-69139941D01*
X127731464Y-69105157D01*
X127731458Y-69105156D01*
X127731453Y-69105155D01*
X127464971Y-69070073D01*
X127464970Y-69070073D01*
X127196176Y-69070073D01*
X127196175Y-69070073D01*
X126929692Y-69105155D01*
X126929685Y-69105156D01*
X126929682Y-69105157D01*
X126874812Y-69119859D01*
X126670048Y-69174725D01*
X126421722Y-69277584D01*
X126421706Y-69277592D01*
X126188927Y-69411989D01*
X125975684Y-69575615D01*
X125975677Y-69575621D01*
X125785621Y-69765677D01*
X125785615Y-69765684D01*
X125621989Y-69978927D01*
X125487592Y-70211706D01*
X125487584Y-70211722D01*
X125384725Y-70460048D01*
X125315158Y-70719679D01*
X125315155Y-70719692D01*
X125280073Y-70986175D01*
X125280073Y-71254970D01*
X125315155Y-71521453D01*
X125315156Y-71521458D01*
X125315157Y-71521464D01*
X125315158Y-71521466D01*
X125384725Y-71781097D01*
X125487584Y-72029423D01*
X125487592Y-72029439D01*
X125565598Y-72164548D01*
X125621986Y-72262214D01*
X125621988Y-72262217D01*
X125621989Y-72262218D01*
X125785615Y-72475461D01*
X125785621Y-72475468D01*
X125975677Y-72665524D01*
X125975683Y-72665529D01*
X126188932Y-72829160D01*
X126338541Y-72915537D01*
X126421706Y-72963553D01*
X126421722Y-72963561D01*
X126562675Y-73021945D01*
X126670047Y-73066420D01*
X126929682Y-73135989D01*
X127065717Y-73153898D01*
X127196175Y-73171073D01*
X127196176Y-73171073D01*
X127464963Y-73171073D01*
X127464970Y-73171073D01*
X127464976Y-73171072D01*
X127469022Y-73170807D01*
X127469102Y-73172035D01*
X127532898Y-73181969D01*
X127585164Y-73228337D01*
X127604073Y-73294154D01*
X127604073Y-80958579D01*
X127584388Y-81025618D01*
X127580392Y-81031463D01*
X127528467Y-81102933D01*
X127528466Y-81102935D01*
X127417670Y-81320385D01*
X127342251Y-81552500D01*
X127304073Y-81793546D01*
X127304073Y-82037599D01*
X127322129Y-82151603D01*
X127342252Y-82278649D01*
X127417669Y-82510758D01*
X127528467Y-82728212D01*
X127580392Y-82799680D01*
X127603871Y-82865484D01*
X127604073Y-82872564D01*
X127604073Y-85785876D01*
X127584388Y-85852915D01*
X127537485Y-85895784D01*
X127451168Y-85940872D01*
X127293463Y-86069463D01*
X127164877Y-86227162D01*
X127070662Y-86407526D01*
X127014687Y-86603155D01*
X127014686Y-86603158D01*
X127004073Y-86722538D01*
X127004073Y-88538607D01*
X127014686Y-88657987D01*
X127014686Y-88657989D01*
X127014687Y-88657992D01*
X127027562Y-88702987D01*
X127070662Y-88853619D01*
X127070663Y-88853622D01*
X127070664Y-88853623D01*
X127164875Y-89033981D01*
X127164877Y-89033983D01*
X127293463Y-89191682D01*
X127348652Y-89236682D01*
X127419434Y-89294398D01*
X127458951Y-89352018D01*
X127465073Y-89390499D01*
X127465073Y-90808000D01*
X127445388Y-90875039D01*
X127392584Y-90920794D01*
X127341073Y-90932000D01*
X112195073Y-90932000D01*
X112128034Y-90912315D01*
X112082279Y-90859511D01*
X112071073Y-90808000D01*
X112071073Y-89520268D01*
X112090758Y-89453229D01*
X112137659Y-89410361D01*
X112223981Y-89365271D01*
X112381682Y-89236682D01*
X112510271Y-89078981D01*
X112604482Y-88898623D01*
X112660459Y-88702992D01*
X112671073Y-88583611D01*
X112671073Y-86767535D01*
X112660459Y-86648154D01*
X112604482Y-86452523D01*
X112510271Y-86272165D01*
X112458258Y-86208376D01*
X112381682Y-86114463D01*
X112223977Y-85985872D01*
X112137661Y-85940784D01*
X112087354Y-85892298D01*
X112071073Y-85830876D01*
X112071073Y-82872564D01*
X112090758Y-82805525D01*
X112094738Y-82799702D01*
X112146679Y-82728212D01*
X112257477Y-82510758D01*
X112332894Y-82278649D01*
X112346713Y-82191396D01*
X112376642Y-82128262D01*
X112381487Y-82123131D01*
X112718948Y-81785670D01*
X117044073Y-81785670D01*
X117044073Y-82045475D01*
X117084713Y-82302066D01*
X117164995Y-82549149D01*
X117282941Y-82780627D01*
X117388306Y-82925649D01*
X117435642Y-82990802D01*
X117619344Y-83174504D01*
X117829522Y-83327207D01*
X117977018Y-83402360D01*
X118060996Y-83445150D01*
X118060998Y-83445150D01*
X118061001Y-83445152D01*
X118308080Y-83525433D01*
X118440279Y-83546370D01*
X118564671Y-83566073D01*
X118564676Y-83566073D01*
X118824475Y-83566073D01*
X118937871Y-83548112D01*
X119081066Y-83525433D01*
X119328145Y-83445152D01*
X119559624Y-83327207D01*
X119748811Y-83189755D01*
X119814617Y-83166275D01*
X119821696Y-83166073D01*
X120277581Y-83166073D01*
X120344620Y-83185758D01*
X120350459Y-83189749D01*
X120421934Y-83241679D01*
X120639388Y-83352477D01*
X120871497Y-83427894D01*
X121112546Y-83466073D01*
X121112547Y-83466073D01*
X121356599Y-83466073D01*
X121356600Y-83466073D01*
X121597649Y-83427894D01*
X121829758Y-83352477D01*
X122047212Y-83241679D01*
X122244656Y-83098228D01*
X122417228Y-82925656D01*
X122560679Y-82728212D01*
X122671477Y-82510758D01*
X122746894Y-82278649D01*
X122785073Y-82037600D01*
X122785073Y-81793546D01*
X122746894Y-81552497D01*
X122671477Y-81320388D01*
X122560679Y-81102934D01*
X122522597Y-81050518D01*
X122417233Y-80905496D01*
X122417229Y-80905491D01*
X122244654Y-80732916D01*
X122244649Y-80732912D01*
X122047215Y-80589469D01*
X122047214Y-80589468D01*
X122047212Y-80589467D01*
X121829758Y-80478669D01*
X121597649Y-80403252D01*
X121597647Y-80403251D01*
X121597645Y-80403251D01*
X121429342Y-80376594D01*
X121356600Y-80365073D01*
X121112546Y-80365073D01*
X121056666Y-80373923D01*
X120871500Y-80403251D01*
X120639385Y-80478670D01*
X120421933Y-80589467D01*
X120350467Y-80641391D01*
X120284660Y-80664871D01*
X120277581Y-80665073D01*
X119821696Y-80665073D01*
X119754657Y-80645388D01*
X119748811Y-80641391D01*
X119559627Y-80503941D01*
X119559626Y-80503940D01*
X119559624Y-80503939D01*
X119487337Y-80467107D01*
X119328149Y-80385995D01*
X119081066Y-80305713D01*
X118824475Y-80265073D01*
X118824470Y-80265073D01*
X118564676Y-80265073D01*
X118564671Y-80265073D01*
X118308079Y-80305713D01*
X118060996Y-80385995D01*
X117829518Y-80503941D01*
X117619347Y-80656639D01*
X117619341Y-80656644D01*
X117435644Y-80840341D01*
X117435639Y-80840347D01*
X117282941Y-81050518D01*
X117164995Y-81281996D01*
X117084713Y-81529079D01*
X117044073Y-81785670D01*
X112718948Y-81785670D01*
X121424089Y-73080529D01*
X121485410Y-73047046D01*
X121555102Y-73052030D01*
X121559204Y-73053644D01*
X121590047Y-73066420D01*
X121849682Y-73135989D01*
X121985717Y-73153898D01*
X122116175Y-73171073D01*
X122116176Y-73171073D01*
X122384971Y-73171073D01*
X122445478Y-73163107D01*
X122651464Y-73135989D01*
X122911099Y-73066420D01*
X123098030Y-72988990D01*
X123159423Y-72963561D01*
X123159426Y-72963559D01*
X123159432Y-72963557D01*
X123392214Y-72829160D01*
X123605463Y-72665529D01*
X123795529Y-72475463D01*
X123959160Y-72262214D01*
X124093557Y-72029432D01*
X124110235Y-71989169D01*
X124118990Y-71968030D01*
X124196420Y-71781099D01*
X124265989Y-71521464D01*
X124301073Y-71254970D01*
X124301073Y-70986176D01*
X124265989Y-70719682D01*
X124196420Y-70460047D01*
X124157705Y-70366581D01*
X124093561Y-70211722D01*
X124093553Y-70211706D01*
X124037563Y-70114730D01*
X123959160Y-69978932D01*
X123795529Y-69765683D01*
X123795524Y-69765677D01*
X123605468Y-69575621D01*
X123605461Y-69575615D01*
X123392218Y-69411989D01*
X123392217Y-69411988D01*
X123392214Y-69411986D01*
X123299405Y-69358403D01*
X123159439Y-69277592D01*
X123159423Y-69277584D01*
X122911097Y-69174725D01*
X122781281Y-69139941D01*
X122651464Y-69105157D01*
X122651458Y-69105156D01*
X122651453Y-69105155D01*
X122384971Y-69070073D01*
X122384970Y-69070073D01*
X122116176Y-69070073D01*
X122116175Y-69070073D01*
X121849692Y-69105155D01*
X121849685Y-69105156D01*
X121849682Y-69105157D01*
X121794812Y-69119859D01*
X121590048Y-69174725D01*
X121341722Y-69277584D01*
X121341706Y-69277592D01*
X121108927Y-69411989D01*
X120895684Y-69575615D01*
X120895677Y-69575621D01*
X120705621Y-69765677D01*
X120705615Y-69765684D01*
X120541989Y-69978927D01*
X120407592Y-70211706D01*
X120407584Y-70211722D01*
X120304726Y-70460046D01*
X120239060Y-70705117D01*
X120206966Y-70760704D01*
X110613031Y-80354639D01*
X110551708Y-80388124D01*
X110544750Y-80389431D01*
X110457499Y-80403251D01*
X110225385Y-80478670D01*
X110007930Y-80589469D01*
X109810496Y-80732912D01*
X109810491Y-80732916D01*
X109637916Y-80905491D01*
X109637912Y-80905496D01*
X109494469Y-81102930D01*
X109383670Y-81320385D01*
X109308251Y-81552500D01*
X109270073Y-81793546D01*
X109270073Y-82037599D01*
X109288129Y-82151603D01*
X109308252Y-82278649D01*
X109383669Y-82510758D01*
X109494467Y-82728212D01*
X109546392Y-82799680D01*
X109569871Y-82865484D01*
X109570073Y-82872564D01*
X109570073Y-85830876D01*
X109550388Y-85897915D01*
X109503485Y-85940784D01*
X109417168Y-85985872D01*
X109259463Y-86114463D01*
X109130877Y-86272162D01*
X109036662Y-86452526D01*
X108980687Y-86648155D01*
X108980686Y-86648158D01*
X108970073Y-86767538D01*
X108970073Y-88583607D01*
X108980686Y-88702987D01*
X108980686Y-88702989D01*
X108980687Y-88702992D01*
X109003123Y-88781403D01*
X109036662Y-88898619D01*
X109036663Y-88898622D01*
X109036664Y-88898623D01*
X109130875Y-89078981D01*
X109130877Y-89078983D01*
X109259463Y-89236682D01*
X109330245Y-89294397D01*
X109417165Y-89365271D01*
X109503486Y-89410361D01*
X109553791Y-89458845D01*
X109570073Y-89520268D01*
X109570073Y-90808000D01*
X109550388Y-90875039D01*
X109497584Y-90920794D01*
X109446073Y-90932000D01*
X94300073Y-90932000D01*
X94233034Y-90912315D01*
X94187279Y-90859511D01*
X94176073Y-90808000D01*
X94176073Y-81785670D01*
X99010073Y-81785670D01*
X99010073Y-82045475D01*
X99050713Y-82302066D01*
X99130995Y-82549149D01*
X99248941Y-82780627D01*
X99354306Y-82925649D01*
X99401642Y-82990802D01*
X99585344Y-83174504D01*
X99795522Y-83327207D01*
X99943018Y-83402360D01*
X100026996Y-83445150D01*
X100026998Y-83445150D01*
X100027001Y-83445152D01*
X100274080Y-83525433D01*
X100406279Y-83546370D01*
X100530671Y-83566073D01*
X100530676Y-83566073D01*
X100790475Y-83566073D01*
X100903871Y-83548112D01*
X101047066Y-83525433D01*
X101294145Y-83445152D01*
X101525624Y-83327207D01*
X101714811Y-83189755D01*
X101780617Y-83166275D01*
X101787696Y-83166073D01*
X102243581Y-83166073D01*
X102310620Y-83185758D01*
X102316459Y-83189749D01*
X102387934Y-83241679D01*
X102605388Y-83352477D01*
X102837497Y-83427894D01*
X103078546Y-83466073D01*
X103078547Y-83466073D01*
X103322599Y-83466073D01*
X103322600Y-83466073D01*
X103563649Y-83427894D01*
X103795758Y-83352477D01*
X104013212Y-83241679D01*
X104210656Y-83098228D01*
X104383228Y-82925656D01*
X104526679Y-82728212D01*
X104637477Y-82510758D01*
X104712894Y-82278649D01*
X104751073Y-82037600D01*
X104751073Y-81793546D01*
X104712894Y-81552497D01*
X104637477Y-81320388D01*
X104526679Y-81102934D01*
X104488597Y-81050518D01*
X104383233Y-80905496D01*
X104383229Y-80905491D01*
X104210654Y-80732916D01*
X104210649Y-80732912D01*
X104013215Y-80589469D01*
X104013214Y-80589468D01*
X104013212Y-80589467D01*
X103795758Y-80478669D01*
X103563649Y-80403252D01*
X103563647Y-80403251D01*
X103563645Y-80403251D01*
X103395342Y-80376594D01*
X103322600Y-80365073D01*
X103078546Y-80365073D01*
X103022666Y-80373923D01*
X102837500Y-80403251D01*
X102605385Y-80478670D01*
X102387933Y-80589467D01*
X102316467Y-80641391D01*
X102250660Y-80664871D01*
X102243581Y-80665073D01*
X101787696Y-80665073D01*
X101720657Y-80645388D01*
X101714811Y-80641391D01*
X101525627Y-80503941D01*
X101525626Y-80503940D01*
X101525624Y-80503939D01*
X101453337Y-80467107D01*
X101294149Y-80385995D01*
X101047066Y-80305713D01*
X100790475Y-80265073D01*
X100790470Y-80265073D01*
X100530676Y-80265073D01*
X100530671Y-80265073D01*
X100274079Y-80305713D01*
X100026996Y-80385995D01*
X99795518Y-80503941D01*
X99585347Y-80656639D01*
X99585341Y-80656644D01*
X99401644Y-80840341D01*
X99401639Y-80840347D01*
X99248941Y-81050518D01*
X99130995Y-81281996D01*
X99050713Y-81529079D01*
X99010073Y-81785670D01*
X94176073Y-81785670D01*
X94176073Y-68773622D01*
X94176222Y-68767537D01*
X94176276Y-68766443D01*
X94192627Y-68433644D01*
X94193820Y-68421538D01*
X94193821Y-68421535D01*
X94206089Y-68338831D01*
X95608073Y-68338831D01*
X95608073Y-68568314D01*
X95633019Y-68757788D01*
X95638025Y-68795811D01*
X95648918Y-68836465D01*
X95697415Y-69017460D01*
X95785223Y-69229449D01*
X95785230Y-69229463D01*
X95899965Y-69428190D01*
X96039654Y-69610234D01*
X96039662Y-69610243D01*
X96201903Y-69772484D01*
X96201911Y-69772491D01*
X96383955Y-69912180D01*
X96383958Y-69912181D01*
X96383961Y-69912184D01*
X96582685Y-70026917D01*
X96582690Y-70026919D01*
X96582696Y-70026922D01*
X96674053Y-70064763D01*
X96794686Y-70114731D01*
X97016335Y-70174121D01*
X97243839Y-70204073D01*
X97243846Y-70204073D01*
X97473300Y-70204073D01*
X97473307Y-70204073D01*
X97700811Y-70174121D01*
X97922460Y-70114731D01*
X98134461Y-70026917D01*
X98333185Y-69912184D01*
X98515234Y-69772492D01*
X98515238Y-69772487D01*
X98515243Y-69772484D01*
X98677484Y-69610243D01*
X98677487Y-69610238D01*
X98677492Y-69610234D01*
X98817184Y-69428185D01*
X98931917Y-69229461D01*
X99019731Y-69017460D01*
X99079121Y-68795811D01*
X99109073Y-68568307D01*
X99109073Y-68338839D01*
X99109072Y-68338831D01*
X165458073Y-68338831D01*
X165458073Y-68568314D01*
X165483019Y-68757788D01*
X165488025Y-68795811D01*
X165498918Y-68836465D01*
X165547415Y-69017460D01*
X165635223Y-69229449D01*
X165635230Y-69229463D01*
X165749965Y-69428190D01*
X165889654Y-69610234D01*
X165889662Y-69610243D01*
X166051903Y-69772484D01*
X166051911Y-69772491D01*
X166233955Y-69912180D01*
X166233958Y-69912181D01*
X166233961Y-69912184D01*
X166432685Y-70026917D01*
X166432690Y-70026919D01*
X166432696Y-70026922D01*
X166524053Y-70064763D01*
X166644686Y-70114731D01*
X166866335Y-70174121D01*
X167093839Y-70204073D01*
X167093846Y-70204073D01*
X167323300Y-70204073D01*
X167323307Y-70204073D01*
X167550811Y-70174121D01*
X167772460Y-70114731D01*
X167984461Y-70026917D01*
X168183185Y-69912184D01*
X168365234Y-69772492D01*
X168365238Y-69772487D01*
X168365243Y-69772484D01*
X168527484Y-69610243D01*
X168527487Y-69610238D01*
X168527492Y-69610234D01*
X168667184Y-69428185D01*
X168781917Y-69229461D01*
X168869731Y-69017460D01*
X168929121Y-68795811D01*
X168959073Y-68568307D01*
X168959073Y-68338839D01*
X168929121Y-68111335D01*
X168869731Y-67889686D01*
X168819763Y-67769053D01*
X168781922Y-67677696D01*
X168781919Y-67677690D01*
X168781917Y-67677685D01*
X168667184Y-67478961D01*
X168667181Y-67478958D01*
X168667180Y-67478955D01*
X168527491Y-67296911D01*
X168527484Y-67296903D01*
X168365243Y-67134662D01*
X168365234Y-67134654D01*
X168183190Y-66994965D01*
X167984463Y-66880230D01*
X167984449Y-66880223D01*
X167772460Y-66792415D01*
X167550811Y-66733025D01*
X167512788Y-66728019D01*
X167323314Y-66703073D01*
X167323307Y-66703073D01*
X167093839Y-66703073D01*
X167093831Y-66703073D01*
X166877288Y-66731582D01*
X166866335Y-66733025D01*
X166772649Y-66758127D01*
X166644685Y-66792415D01*
X166432696Y-66880223D01*
X166432682Y-66880230D01*
X166233955Y-66994965D01*
X166051911Y-67134654D01*
X165889654Y-67296911D01*
X165749965Y-67478955D01*
X165635230Y-67677682D01*
X165635223Y-67677696D01*
X165547415Y-67889685D01*
X165547415Y-67889686D01*
X165495901Y-68081943D01*
X165488026Y-68111332D01*
X165488024Y-68111343D01*
X165458073Y-68338831D01*
X99109072Y-68338831D01*
X99079121Y-68111335D01*
X99019731Y-67889686D01*
X98969763Y-67769053D01*
X98931922Y-67677696D01*
X98931919Y-67677690D01*
X98931917Y-67677685D01*
X98817184Y-67478961D01*
X98817181Y-67478958D01*
X98817180Y-67478955D01*
X98677491Y-67296911D01*
X98677484Y-67296903D01*
X98515243Y-67134662D01*
X98515234Y-67134654D01*
X98333190Y-66994965D01*
X98134463Y-66880230D01*
X98134449Y-66880223D01*
X97922460Y-66792415D01*
X97700811Y-66733025D01*
X97662788Y-66728019D01*
X97473314Y-66703073D01*
X97473307Y-66703073D01*
X97243839Y-66703073D01*
X97243831Y-66703073D01*
X97027288Y-66731582D01*
X97016335Y-66733025D01*
X96922649Y-66758127D01*
X96794685Y-66792415D01*
X96582696Y-66880223D01*
X96582682Y-66880230D01*
X96383955Y-66994965D01*
X96201911Y-67134654D01*
X96039654Y-67296911D01*
X95899965Y-67478955D01*
X95785230Y-67677682D01*
X95785223Y-67677696D01*
X95697415Y-67889685D01*
X95697415Y-67889686D01*
X95645901Y-68081943D01*
X95638026Y-68111332D01*
X95638024Y-68111343D01*
X95608073Y-68338831D01*
X94206089Y-68338831D01*
X94242428Y-68093863D01*
X94244793Y-68081972D01*
X94325292Y-67760610D01*
X94328812Y-67749007D01*
X94440418Y-67437091D01*
X94445060Y-67425886D01*
X94586699Y-67126420D01*
X94592418Y-67115719D01*
X94762726Y-66831578D01*
X94769469Y-66821485D01*
X94966813Y-66555398D01*
X94974516Y-66546013D01*
X95196986Y-66300556D01*
X95205556Y-66291986D01*
X95451013Y-66069516D01*
X95460398Y-66061813D01*
X95726488Y-65864468D01*
X95736578Y-65857726D01*
X96020719Y-65687418D01*
X96031421Y-65681698D01*
X96330886Y-65540060D01*
X96342091Y-65535418D01*
X96654007Y-65423812D01*
X96665610Y-65420292D01*
X96986972Y-65339793D01*
X96998863Y-65337428D01*
X97326542Y-65288819D01*
X97338644Y-65287627D01*
X97672543Y-65271221D01*
X97678628Y-65271073D01*
X97741468Y-65271073D01*
X166705680Y-65271073D01*
X166705684Y-65271074D01*
G37*
%TD.AperFunction*%
%TD*%
M02*
