%TF.GenerationSoftware,KiCad,Pcbnew,9.0.4*%
%TF.CreationDate,2026-03-20T09:19:12-03:00*%
%TF.ProjectId,relay_module_12v_optocoupler_smt,72656c61-795f-46d6-9f64-756c655f3132,rev?*%
%TF.SameCoordinates,Original*%
%TF.FileFunction,Legend,Top*%
%TF.FilePolarity,Positive*%
%FSLAX46Y46*%
G04 Gerber Fmt 4.6, Leading zero omitted, Abs format (unit mm)*
G04 Created by KiCad (PCBNEW 9.0.4) date 2026-03-20 09:19:12*
%MOMM*%
%LPD*%
G01*
G04 APERTURE LIST*
%ADD10C,0.050000*%
%ADD11C,0.000000*%
%ADD12C,0.150000*%
%ADD13C,0.120000*%
G04 APERTURE END LIST*
D10*
X162306000Y-82714000D02*
X162306000Y-136738000D01*
X160106000Y-80514000D02*
G75*
G02*
X162306000Y-82714000I0J-2200000D01*
G01*
X160106000Y-138938000D02*
X138148000Y-138938000D01*
D11*
G36*
X159173200Y-85764401D02*
G01*
X160223200Y-85764401D01*
X160223200Y-86064401D01*
X159773200Y-86064401D01*
X160223200Y-86439401D01*
X160223200Y-86739401D01*
X159623200Y-86214401D01*
X159023200Y-86739401D01*
X159023200Y-86439401D01*
X159473200Y-86064401D01*
X159023200Y-86064401D01*
X159023200Y-85989401D01*
X159173200Y-85989401D01*
X160073200Y-85989401D01*
X160073200Y-85914401D01*
X159173200Y-85914401D01*
X159173200Y-85989401D01*
X159023200Y-85989401D01*
X159023200Y-85764401D01*
X159173200Y-85764401D01*
G37*
D10*
X138148000Y-138938000D02*
G75*
G02*
X135948000Y-136738000I0J2200000D01*
G01*
X138148000Y-80514000D02*
X160106000Y-80514000D01*
D11*
G36*
X159248200Y-89514401D02*
G01*
X159473200Y-89514401D01*
X159473200Y-88989401D01*
X159773200Y-88989401D01*
X159998200Y-88989401D01*
X159998200Y-88914401D01*
X159773200Y-88914401D01*
X159773200Y-88989401D01*
X159473200Y-88989401D01*
X159473200Y-88764401D01*
X159773200Y-88764401D01*
X160223200Y-88764401D01*
X160223200Y-89814400D01*
X159998200Y-89814400D01*
X159998200Y-89064401D01*
X159773200Y-89064401D01*
X159773200Y-89814400D01*
X159023200Y-89814400D01*
X159023200Y-89664400D01*
X159248200Y-89664400D01*
X159473200Y-89664400D01*
X159473200Y-89589401D01*
X159248200Y-89589401D01*
X159248200Y-89664400D01*
X159023200Y-89664400D01*
X159023200Y-88764401D01*
X159248200Y-88764401D01*
X159248200Y-89514401D01*
G37*
G36*
X160223200Y-88314401D02*
G01*
X159998200Y-88314401D01*
X159998200Y-87901901D01*
X159023200Y-87901901D01*
X159023200Y-87751901D01*
X159098200Y-87751901D01*
X159923200Y-87751901D01*
X159923200Y-87676901D01*
X159098200Y-87676901D01*
X159098200Y-87751901D01*
X159023200Y-87751901D01*
X159023200Y-87526901D01*
X159098200Y-87526901D01*
X159998200Y-87526901D01*
X159998200Y-87114401D01*
X160223200Y-87114401D01*
X160223200Y-88314401D01*
G37*
D10*
X135948000Y-136738000D02*
X135948000Y-82714000D01*
X162306000Y-136738000D02*
G75*
G02*
X160106000Y-138938000I-2200000J0D01*
G01*
X135948000Y-82714000D02*
G75*
G02*
X138148000Y-80514000I2200000J0D01*
G01*
D12*
X149970951Y-80917704D02*
X149970951Y-81717704D01*
X149970951Y-81717704D02*
X149732856Y-81717704D01*
X149732856Y-81717704D02*
X149589999Y-81679609D01*
X149589999Y-81679609D02*
X149494761Y-81603419D01*
X149494761Y-81603419D02*
X149447142Y-81527228D01*
X149447142Y-81527228D02*
X149399523Y-81374847D01*
X149399523Y-81374847D02*
X149399523Y-81260561D01*
X149399523Y-81260561D02*
X149447142Y-81108180D01*
X149447142Y-81108180D02*
X149494761Y-81031990D01*
X149494761Y-81031990D02*
X149589999Y-80955800D01*
X149589999Y-80955800D02*
X149732856Y-80917704D01*
X149732856Y-80917704D02*
X149970951Y-80917704D01*
X148399523Y-80993895D02*
X148447142Y-80955800D01*
X148447142Y-80955800D02*
X148589999Y-80917704D01*
X148589999Y-80917704D02*
X148685237Y-80917704D01*
X148685237Y-80917704D02*
X148828094Y-80955800D01*
X148828094Y-80955800D02*
X148923332Y-81031990D01*
X148923332Y-81031990D02*
X148970951Y-81108180D01*
X148970951Y-81108180D02*
X149018570Y-81260561D01*
X149018570Y-81260561D02*
X149018570Y-81374847D01*
X149018570Y-81374847D02*
X148970951Y-81527228D01*
X148970951Y-81527228D02*
X148923332Y-81603419D01*
X148923332Y-81603419D02*
X148828094Y-81679609D01*
X148828094Y-81679609D02*
X148685237Y-81717704D01*
X148685237Y-81717704D02*
X148589999Y-81717704D01*
X148589999Y-81717704D02*
X148447142Y-81679609D01*
X148447142Y-81679609D02*
X148399523Y-81641514D01*
X147970951Y-81222466D02*
X147209047Y-81222466D01*
X146065808Y-80917704D02*
X146065808Y-81717704D01*
X145589618Y-80917704D02*
X145589618Y-81717704D01*
X145589618Y-81717704D02*
X145018190Y-80917704D01*
X145018190Y-80917704D02*
X145018190Y-81717704D01*
X160855704Y-86408207D02*
X161236657Y-86074874D01*
X160855704Y-85836779D02*
X161655704Y-85836779D01*
X161655704Y-85836779D02*
X161655704Y-86217731D01*
X161655704Y-86217731D02*
X161617609Y-86312969D01*
X161617609Y-86312969D02*
X161579514Y-86360588D01*
X161579514Y-86360588D02*
X161503323Y-86408207D01*
X161503323Y-86408207D02*
X161389038Y-86408207D01*
X161389038Y-86408207D02*
X161312847Y-86360588D01*
X161312847Y-86360588D02*
X161274752Y-86312969D01*
X161274752Y-86312969D02*
X161236657Y-86217731D01*
X161236657Y-86217731D02*
X161236657Y-85836779D01*
X160855704Y-86836779D02*
X161655704Y-86836779D01*
X161655704Y-86836779D02*
X161084276Y-87170112D01*
X161084276Y-87170112D02*
X161655704Y-87503445D01*
X161655704Y-87503445D02*
X160855704Y-87503445D01*
X161655704Y-88170112D02*
X161655704Y-88360588D01*
X161655704Y-88360588D02*
X161617609Y-88455826D01*
X161617609Y-88455826D02*
X161541419Y-88551064D01*
X161541419Y-88551064D02*
X161389038Y-88598683D01*
X161389038Y-88598683D02*
X161122371Y-88598683D01*
X161122371Y-88598683D02*
X160969990Y-88551064D01*
X160969990Y-88551064D02*
X160893800Y-88455826D01*
X160893800Y-88455826D02*
X160855704Y-88360588D01*
X160855704Y-88360588D02*
X160855704Y-88170112D01*
X160855704Y-88170112D02*
X160893800Y-88074874D01*
X160893800Y-88074874D02*
X160969990Y-87979636D01*
X160969990Y-87979636D02*
X161122371Y-87932017D01*
X161122371Y-87932017D02*
X161389038Y-87932017D01*
X161389038Y-87932017D02*
X161541419Y-87979636D01*
X161541419Y-87979636D02*
X161617609Y-88074874D01*
X161617609Y-88074874D02*
X161655704Y-88170112D01*
X160855704Y-88932017D02*
X161389038Y-89455826D01*
X161389038Y-88932017D02*
X160855704Y-89455826D01*
X160855704Y-90360588D02*
X160855704Y-89789160D01*
X160855704Y-90074874D02*
X161655704Y-90074874D01*
X161655704Y-90074874D02*
X161541419Y-89979636D01*
X161541419Y-89979636D02*
X161465228Y-89884398D01*
X161465228Y-89884398D02*
X161427133Y-89789160D01*
X161389038Y-91455827D02*
X160855704Y-91693922D01*
X160855704Y-91693922D02*
X161389038Y-91932017D01*
X160855704Y-92836779D02*
X160855704Y-92265351D01*
X160855704Y-92551065D02*
X161655704Y-92551065D01*
X161655704Y-92551065D02*
X161541419Y-92455827D01*
X161541419Y-92455827D02*
X161465228Y-92360589D01*
X161465228Y-92360589D02*
X161427133Y-92265351D01*
X160931895Y-93265351D02*
X160893800Y-93312970D01*
X160893800Y-93312970D02*
X160855704Y-93265351D01*
X160855704Y-93265351D02*
X160893800Y-93217732D01*
X160893800Y-93217732D02*
X160931895Y-93265351D01*
X160931895Y-93265351D02*
X160855704Y-93265351D01*
X161655704Y-93932017D02*
X161655704Y-94027255D01*
X161655704Y-94027255D02*
X161617609Y-94122493D01*
X161617609Y-94122493D02*
X161579514Y-94170112D01*
X161579514Y-94170112D02*
X161503323Y-94217731D01*
X161503323Y-94217731D02*
X161350942Y-94265350D01*
X161350942Y-94265350D02*
X161160466Y-94265350D01*
X161160466Y-94265350D02*
X161008085Y-94217731D01*
X161008085Y-94217731D02*
X160931895Y-94170112D01*
X160931895Y-94170112D02*
X160893800Y-94122493D01*
X160893800Y-94122493D02*
X160855704Y-94027255D01*
X160855704Y-94027255D02*
X160855704Y-93932017D01*
X160855704Y-93932017D02*
X160893800Y-93836779D01*
X160893800Y-93836779D02*
X160931895Y-93789160D01*
X160931895Y-93789160D02*
X161008085Y-93741541D01*
X161008085Y-93741541D02*
X161160466Y-93693922D01*
X161160466Y-93693922D02*
X161350942Y-93693922D01*
X161350942Y-93693922D02*
X161503323Y-93741541D01*
X161503323Y-93741541D02*
X161579514Y-93789160D01*
X161579514Y-93789160D02*
X161617609Y-93836779D01*
X161617609Y-93836779D02*
X161655704Y-93932017D01*
X148358285Y-138462104D02*
X148310666Y-138500200D01*
X148310666Y-138500200D02*
X148167809Y-138538295D01*
X148167809Y-138538295D02*
X148072571Y-138538295D01*
X148072571Y-138538295D02*
X147929714Y-138500200D01*
X147929714Y-138500200D02*
X147834476Y-138424009D01*
X147834476Y-138424009D02*
X147786857Y-138347819D01*
X147786857Y-138347819D02*
X147739238Y-138195438D01*
X147739238Y-138195438D02*
X147739238Y-138081152D01*
X147739238Y-138081152D02*
X147786857Y-137928771D01*
X147786857Y-137928771D02*
X147834476Y-137852580D01*
X147834476Y-137852580D02*
X147929714Y-137776390D01*
X147929714Y-137776390D02*
X148072571Y-137738295D01*
X148072571Y-137738295D02*
X148167809Y-137738295D01*
X148167809Y-137738295D02*
X148310666Y-137776390D01*
X148310666Y-137776390D02*
X148358285Y-137814485D01*
X148977333Y-137738295D02*
X149167809Y-137738295D01*
X149167809Y-137738295D02*
X149263047Y-137776390D01*
X149263047Y-137776390D02*
X149358285Y-137852580D01*
X149358285Y-137852580D02*
X149405904Y-138004961D01*
X149405904Y-138004961D02*
X149405904Y-138271628D01*
X149405904Y-138271628D02*
X149358285Y-138424009D01*
X149358285Y-138424009D02*
X149263047Y-138500200D01*
X149263047Y-138500200D02*
X149167809Y-138538295D01*
X149167809Y-138538295D02*
X148977333Y-138538295D01*
X148977333Y-138538295D02*
X148882095Y-138500200D01*
X148882095Y-138500200D02*
X148786857Y-138424009D01*
X148786857Y-138424009D02*
X148739238Y-138271628D01*
X148739238Y-138271628D02*
X148739238Y-138004961D01*
X148739238Y-138004961D02*
X148786857Y-137852580D01*
X148786857Y-137852580D02*
X148882095Y-137776390D01*
X148882095Y-137776390D02*
X148977333Y-137738295D01*
X149834476Y-138538295D02*
X149834476Y-137738295D01*
X149834476Y-137738295D02*
X150167809Y-138309723D01*
X150167809Y-138309723D02*
X150501142Y-137738295D01*
X150501142Y-137738295D02*
X150501142Y-138538295D01*
X153458286Y-138538295D02*
X153458286Y-137738295D01*
X153458286Y-137738295D02*
X154029714Y-138538295D01*
X154029714Y-138538295D02*
X154029714Y-137738295D01*
X155077333Y-138462104D02*
X155029714Y-138500200D01*
X155029714Y-138500200D02*
X154886857Y-138538295D01*
X154886857Y-138538295D02*
X154791619Y-138538295D01*
X154791619Y-138538295D02*
X154648762Y-138500200D01*
X154648762Y-138500200D02*
X154553524Y-138424009D01*
X154553524Y-138424009D02*
X154505905Y-138347819D01*
X154505905Y-138347819D02*
X154458286Y-138195438D01*
X154458286Y-138195438D02*
X154458286Y-138081152D01*
X154458286Y-138081152D02*
X154505905Y-137928771D01*
X154505905Y-137928771D02*
X154553524Y-137852580D01*
X154553524Y-137852580D02*
X154648762Y-137776390D01*
X154648762Y-137776390D02*
X154791619Y-137738295D01*
X154791619Y-137738295D02*
X154886857Y-137738295D01*
X154886857Y-137738295D02*
X155029714Y-137776390D01*
X155029714Y-137776390D02*
X155077333Y-137814485D01*
X154034951Y-80917704D02*
X154034951Y-81717704D01*
X154034951Y-81717704D02*
X153796856Y-81717704D01*
X153796856Y-81717704D02*
X153653999Y-81679609D01*
X153653999Y-81679609D02*
X153558761Y-81603419D01*
X153558761Y-81603419D02*
X153511142Y-81527228D01*
X153511142Y-81527228D02*
X153463523Y-81374847D01*
X153463523Y-81374847D02*
X153463523Y-81260561D01*
X153463523Y-81260561D02*
X153511142Y-81108180D01*
X153511142Y-81108180D02*
X153558761Y-81031990D01*
X153558761Y-81031990D02*
X153653999Y-80955800D01*
X153653999Y-80955800D02*
X153796856Y-80917704D01*
X153796856Y-80917704D02*
X154034951Y-80917704D01*
X152463523Y-80993895D02*
X152511142Y-80955800D01*
X152511142Y-80955800D02*
X152653999Y-80917704D01*
X152653999Y-80917704D02*
X152749237Y-80917704D01*
X152749237Y-80917704D02*
X152892094Y-80955800D01*
X152892094Y-80955800D02*
X152987332Y-81031990D01*
X152987332Y-81031990D02*
X153034951Y-81108180D01*
X153034951Y-81108180D02*
X153082570Y-81260561D01*
X153082570Y-81260561D02*
X153082570Y-81374847D01*
X153082570Y-81374847D02*
X153034951Y-81527228D01*
X153034951Y-81527228D02*
X152987332Y-81603419D01*
X152987332Y-81603419D02*
X152892094Y-81679609D01*
X152892094Y-81679609D02*
X152749237Y-81717704D01*
X152749237Y-81717704D02*
X152653999Y-81717704D01*
X152653999Y-81717704D02*
X152511142Y-81679609D01*
X152511142Y-81679609D02*
X152463523Y-81641514D01*
X152034951Y-81222466D02*
X151273047Y-81222466D01*
X151653999Y-80917704D02*
X151653999Y-81527228D01*
X143134476Y-138638295D02*
X143134476Y-137838295D01*
X143134476Y-137838295D02*
X143705904Y-138638295D01*
X143705904Y-138638295D02*
X143705904Y-137838295D01*
X144372571Y-137838295D02*
X144563047Y-137838295D01*
X144563047Y-137838295D02*
X144658285Y-137876390D01*
X144658285Y-137876390D02*
X144753523Y-137952580D01*
X144753523Y-137952580D02*
X144801142Y-138104961D01*
X144801142Y-138104961D02*
X144801142Y-138371628D01*
X144801142Y-138371628D02*
X144753523Y-138524009D01*
X144753523Y-138524009D02*
X144658285Y-138600200D01*
X144658285Y-138600200D02*
X144563047Y-138638295D01*
X144563047Y-138638295D02*
X144372571Y-138638295D01*
X144372571Y-138638295D02*
X144277333Y-138600200D01*
X144277333Y-138600200D02*
X144182095Y-138524009D01*
X144182095Y-138524009D02*
X144134476Y-138371628D01*
X144134476Y-138371628D02*
X144134476Y-138104961D01*
X144134476Y-138104961D02*
X144182095Y-137952580D01*
X144182095Y-137952580D02*
X144277333Y-137876390D01*
X144277333Y-137876390D02*
X144372571Y-137838295D01*
X140933333Y-90472419D02*
X140600000Y-89996228D01*
X140361905Y-90472419D02*
X140361905Y-89472419D01*
X140361905Y-89472419D02*
X140742857Y-89472419D01*
X140742857Y-89472419D02*
X140838095Y-89520038D01*
X140838095Y-89520038D02*
X140885714Y-89567657D01*
X140885714Y-89567657D02*
X140933333Y-89662895D01*
X140933333Y-89662895D02*
X140933333Y-89805752D01*
X140933333Y-89805752D02*
X140885714Y-89900990D01*
X140885714Y-89900990D02*
X140838095Y-89948609D01*
X140838095Y-89948609D02*
X140742857Y-89996228D01*
X140742857Y-89996228D02*
X140361905Y-89996228D01*
X141314286Y-89567657D02*
X141361905Y-89520038D01*
X141361905Y-89520038D02*
X141457143Y-89472419D01*
X141457143Y-89472419D02*
X141695238Y-89472419D01*
X141695238Y-89472419D02*
X141790476Y-89520038D01*
X141790476Y-89520038D02*
X141838095Y-89567657D01*
X141838095Y-89567657D02*
X141885714Y-89662895D01*
X141885714Y-89662895D02*
X141885714Y-89758133D01*
X141885714Y-89758133D02*
X141838095Y-89900990D01*
X141838095Y-89900990D02*
X141266667Y-90472419D01*
X141266667Y-90472419D02*
X141885714Y-90472419D01*
X140888761Y-101395557D02*
X140793523Y-101347938D01*
X140793523Y-101347938D02*
X140698285Y-101252700D01*
X140698285Y-101252700D02*
X140555428Y-101109842D01*
X140555428Y-101109842D02*
X140460190Y-101062223D01*
X140460190Y-101062223D02*
X140364952Y-101062223D01*
X140412571Y-101300319D02*
X140317333Y-101252700D01*
X140317333Y-101252700D02*
X140222095Y-101157461D01*
X140222095Y-101157461D02*
X140174476Y-100966985D01*
X140174476Y-100966985D02*
X140174476Y-100633652D01*
X140174476Y-100633652D02*
X140222095Y-100443176D01*
X140222095Y-100443176D02*
X140317333Y-100347938D01*
X140317333Y-100347938D02*
X140412571Y-100300319D01*
X140412571Y-100300319D02*
X140603047Y-100300319D01*
X140603047Y-100300319D02*
X140698285Y-100347938D01*
X140698285Y-100347938D02*
X140793523Y-100443176D01*
X140793523Y-100443176D02*
X140841142Y-100633652D01*
X140841142Y-100633652D02*
X140841142Y-100966985D01*
X140841142Y-100966985D02*
X140793523Y-101157461D01*
X140793523Y-101157461D02*
X140698285Y-101252700D01*
X140698285Y-101252700D02*
X140603047Y-101300319D01*
X140603047Y-101300319D02*
X140412571Y-101300319D01*
X141222095Y-100395557D02*
X141269714Y-100347938D01*
X141269714Y-100347938D02*
X141364952Y-100300319D01*
X141364952Y-100300319D02*
X141603047Y-100300319D01*
X141603047Y-100300319D02*
X141698285Y-100347938D01*
X141698285Y-100347938D02*
X141745904Y-100395557D01*
X141745904Y-100395557D02*
X141793523Y-100490795D01*
X141793523Y-100490795D02*
X141793523Y-100586033D01*
X141793523Y-100586033D02*
X141745904Y-100728890D01*
X141745904Y-100728890D02*
X141174476Y-101300319D01*
X141174476Y-101300319D02*
X141793523Y-101300319D01*
X148761905Y-99354819D02*
X148761905Y-98354819D01*
X148761905Y-98354819D02*
X149000000Y-98354819D01*
X149000000Y-98354819D02*
X149142857Y-98402438D01*
X149142857Y-98402438D02*
X149238095Y-98497676D01*
X149238095Y-98497676D02*
X149285714Y-98592914D01*
X149285714Y-98592914D02*
X149333333Y-98783390D01*
X149333333Y-98783390D02*
X149333333Y-98926247D01*
X149333333Y-98926247D02*
X149285714Y-99116723D01*
X149285714Y-99116723D02*
X149238095Y-99211961D01*
X149238095Y-99211961D02*
X149142857Y-99307200D01*
X149142857Y-99307200D02*
X149000000Y-99354819D01*
X149000000Y-99354819D02*
X148761905Y-99354819D01*
X149714286Y-98450057D02*
X149761905Y-98402438D01*
X149761905Y-98402438D02*
X149857143Y-98354819D01*
X149857143Y-98354819D02*
X150095238Y-98354819D01*
X150095238Y-98354819D02*
X150190476Y-98402438D01*
X150190476Y-98402438D02*
X150238095Y-98450057D01*
X150238095Y-98450057D02*
X150285714Y-98545295D01*
X150285714Y-98545295D02*
X150285714Y-98640533D01*
X150285714Y-98640533D02*
X150238095Y-98783390D01*
X150238095Y-98783390D02*
X149666667Y-99354819D01*
X149666667Y-99354819D02*
X150285714Y-99354819D01*
X156233905Y-101317819D02*
X156233905Y-100317819D01*
X156233905Y-100317819D02*
X156472000Y-100317819D01*
X156472000Y-100317819D02*
X156614857Y-100365438D01*
X156614857Y-100365438D02*
X156710095Y-100460676D01*
X156710095Y-100460676D02*
X156757714Y-100555914D01*
X156757714Y-100555914D02*
X156805333Y-100746390D01*
X156805333Y-100746390D02*
X156805333Y-100889247D01*
X156805333Y-100889247D02*
X156757714Y-101079723D01*
X156757714Y-101079723D02*
X156710095Y-101174961D01*
X156710095Y-101174961D02*
X156614857Y-101270200D01*
X156614857Y-101270200D02*
X156472000Y-101317819D01*
X156472000Y-101317819D02*
X156233905Y-101317819D01*
X157757714Y-101317819D02*
X157186286Y-101317819D01*
X157472000Y-101317819D02*
X157472000Y-100317819D01*
X157472000Y-100317819D02*
X157376762Y-100460676D01*
X157376762Y-100460676D02*
X157281524Y-100555914D01*
X157281524Y-100555914D02*
X157186286Y-100603533D01*
X156724819Y-91693904D02*
X157534342Y-91693904D01*
X157534342Y-91693904D02*
X157629580Y-91646285D01*
X157629580Y-91646285D02*
X157677200Y-91598666D01*
X157677200Y-91598666D02*
X157724819Y-91503428D01*
X157724819Y-91503428D02*
X157724819Y-91312952D01*
X157724819Y-91312952D02*
X157677200Y-91217714D01*
X157677200Y-91217714D02*
X157629580Y-91170095D01*
X157629580Y-91170095D02*
X157534342Y-91122476D01*
X157534342Y-91122476D02*
X156724819Y-91122476D01*
X157724819Y-90122476D02*
X157724819Y-90693904D01*
X157724819Y-90408190D02*
X156724819Y-90408190D01*
X156724819Y-90408190D02*
X156867676Y-90503428D01*
X156867676Y-90503428D02*
X156962914Y-90598666D01*
X156962914Y-90598666D02*
X157010533Y-90693904D01*
X148663066Y-85865619D02*
X148663066Y-86579904D01*
X148663066Y-86579904D02*
X148615447Y-86722761D01*
X148615447Y-86722761D02*
X148520209Y-86818000D01*
X148520209Y-86818000D02*
X148377352Y-86865619D01*
X148377352Y-86865619D02*
X148282114Y-86865619D01*
X149663066Y-86865619D02*
X149091638Y-86865619D01*
X149377352Y-86865619D02*
X149377352Y-85865619D01*
X149377352Y-85865619D02*
X149282114Y-86008476D01*
X149282114Y-86008476D02*
X149186876Y-86103714D01*
X149186876Y-86103714D02*
X149091638Y-86151333D01*
X156957733Y-97482819D02*
X156624400Y-97006628D01*
X156386305Y-97482819D02*
X156386305Y-96482819D01*
X156386305Y-96482819D02*
X156767257Y-96482819D01*
X156767257Y-96482819D02*
X156862495Y-96530438D01*
X156862495Y-96530438D02*
X156910114Y-96578057D01*
X156910114Y-96578057D02*
X156957733Y-96673295D01*
X156957733Y-96673295D02*
X156957733Y-96816152D01*
X156957733Y-96816152D02*
X156910114Y-96911390D01*
X156910114Y-96911390D02*
X156862495Y-96959009D01*
X156862495Y-96959009D02*
X156767257Y-97006628D01*
X156767257Y-97006628D02*
X156386305Y-97006628D01*
X157910114Y-97482819D02*
X157338686Y-97482819D01*
X157624400Y-97482819D02*
X157624400Y-96482819D01*
X157624400Y-96482819D02*
X157529162Y-96625676D01*
X157529162Y-96625676D02*
X157433924Y-96720914D01*
X157433924Y-96720914D02*
X157338686Y-96768533D01*
X140933333Y-93654819D02*
X140600000Y-93178628D01*
X140361905Y-93654819D02*
X140361905Y-92654819D01*
X140361905Y-92654819D02*
X140742857Y-92654819D01*
X140742857Y-92654819D02*
X140838095Y-92702438D01*
X140838095Y-92702438D02*
X140885714Y-92750057D01*
X140885714Y-92750057D02*
X140933333Y-92845295D01*
X140933333Y-92845295D02*
X140933333Y-92988152D01*
X140933333Y-92988152D02*
X140885714Y-93083390D01*
X140885714Y-93083390D02*
X140838095Y-93131009D01*
X140838095Y-93131009D02*
X140742857Y-93178628D01*
X140742857Y-93178628D02*
X140361905Y-93178628D01*
X141266667Y-92654819D02*
X141885714Y-92654819D01*
X141885714Y-92654819D02*
X141552381Y-93035771D01*
X141552381Y-93035771D02*
X141695238Y-93035771D01*
X141695238Y-93035771D02*
X141790476Y-93083390D01*
X141790476Y-93083390D02*
X141838095Y-93131009D01*
X141838095Y-93131009D02*
X141885714Y-93226247D01*
X141885714Y-93226247D02*
X141885714Y-93464342D01*
X141885714Y-93464342D02*
X141838095Y-93559580D01*
X141838095Y-93559580D02*
X141790476Y-93607200D01*
X141790476Y-93607200D02*
X141695238Y-93654819D01*
X141695238Y-93654819D02*
X141409524Y-93654819D01*
X141409524Y-93654819D02*
X141314286Y-93607200D01*
X141314286Y-93607200D02*
X141266667Y-93559580D01*
X151458705Y-106169619D02*
X151458705Y-105169619D01*
X152030133Y-106169619D02*
X151601562Y-105598190D01*
X152030133Y-105169619D02*
X151458705Y-105741047D01*
X152982514Y-106169619D02*
X152411086Y-106169619D01*
X152696800Y-106169619D02*
X152696800Y-105169619D01*
X152696800Y-105169619D02*
X152601562Y-105312476D01*
X152601562Y-105312476D02*
X152506324Y-105407714D01*
X152506324Y-105407714D02*
X152411086Y-105455333D01*
X148751666Y-135030819D02*
X148751666Y-135745104D01*
X148751666Y-135745104D02*
X148704047Y-135887961D01*
X148704047Y-135887961D02*
X148608809Y-135983200D01*
X148608809Y-135983200D02*
X148465952Y-136030819D01*
X148465952Y-136030819D02*
X148370714Y-136030819D01*
X149180238Y-135126057D02*
X149227857Y-135078438D01*
X149227857Y-135078438D02*
X149323095Y-135030819D01*
X149323095Y-135030819D02*
X149561190Y-135030819D01*
X149561190Y-135030819D02*
X149656428Y-135078438D01*
X149656428Y-135078438D02*
X149704047Y-135126057D01*
X149704047Y-135126057D02*
X149751666Y-135221295D01*
X149751666Y-135221295D02*
X149751666Y-135316533D01*
X149751666Y-135316533D02*
X149704047Y-135459390D01*
X149704047Y-135459390D02*
X149132619Y-136030819D01*
X149132619Y-136030819D02*
X149751666Y-136030819D01*
X140933333Y-97228819D02*
X140600000Y-96752628D01*
X140361905Y-97228819D02*
X140361905Y-96228819D01*
X140361905Y-96228819D02*
X140742857Y-96228819D01*
X140742857Y-96228819D02*
X140838095Y-96276438D01*
X140838095Y-96276438D02*
X140885714Y-96324057D01*
X140885714Y-96324057D02*
X140933333Y-96419295D01*
X140933333Y-96419295D02*
X140933333Y-96562152D01*
X140933333Y-96562152D02*
X140885714Y-96657390D01*
X140885714Y-96657390D02*
X140838095Y-96705009D01*
X140838095Y-96705009D02*
X140742857Y-96752628D01*
X140742857Y-96752628D02*
X140361905Y-96752628D01*
X141790476Y-96562152D02*
X141790476Y-97228819D01*
X141552381Y-96181200D02*
X141314286Y-96895485D01*
X141314286Y-96895485D02*
X141933333Y-96895485D01*
D13*
%TO.C,R2*%
X143747936Y-89268500D02*
X144202064Y-89268500D01*
X143747936Y-90738500D02*
X144202064Y-90738500D01*
%TO.C,Q2*%
X144096500Y-99278000D02*
X143446500Y-99278000D01*
X144096500Y-99278000D02*
X144746500Y-99278000D01*
X144096500Y-102398000D02*
X143446500Y-102398000D01*
X144096500Y-102398000D02*
X144746500Y-102398000D01*
X142934000Y-99328000D02*
X142694000Y-98998000D01*
X143174000Y-98998000D01*
X142934000Y-99328000D01*
G36*
X142934000Y-99328000D02*
G01*
X142694000Y-98998000D01*
X143174000Y-98998000D01*
X142934000Y-99328000D01*
G37*
%TO.C,D2*%
X147827500Y-96068000D02*
X147827500Y-97988000D01*
X147827500Y-97988000D02*
X150512500Y-97988000D01*
X150512500Y-96068000D02*
X147827500Y-96068000D01*
%TO.C,D1*%
X155960000Y-99863000D02*
X151950000Y-99863000D01*
X155960000Y-101863000D02*
X151950000Y-101863000D01*
X155960000Y-101863000D02*
X155960000Y-99863000D01*
%TO.C,U1*%
X151070000Y-88282000D02*
X151070000Y-93582000D01*
X151070000Y-93582000D02*
X156270000Y-93582000D01*
X156270000Y-88282000D02*
X151070000Y-88282000D01*
X156270000Y-89932000D02*
X156270000Y-88282000D01*
X156270000Y-93582000D02*
X156270000Y-91932000D01*
X156270000Y-91932000D02*
G75*
G02*
X156270000Y-89932000I0J1000000D01*
G01*
%TO.C,J1*%
X145120000Y-82440000D02*
X145120000Y-85200000D01*
X150310000Y-82440000D02*
X145120000Y-82440000D01*
X150310000Y-82440000D02*
X150310000Y-85200000D01*
X150310000Y-85200000D02*
X145120000Y-85200000D01*
X151580000Y-82440000D02*
X152960000Y-82440000D01*
X152960000Y-82440000D02*
X152960000Y-83820000D01*
%TO.C,R1*%
X154589564Y-96293000D02*
X154135436Y-96293000D01*
X154589564Y-97763000D02*
X154135436Y-97763000D01*
%TO.C,R3*%
X144114564Y-92483000D02*
X143660436Y-92483000D01*
X144114564Y-93953000D02*
X143660436Y-93953000D01*
%TO.C,K1*%
X140794000Y-103096000D02*
X140794000Y-125796000D01*
X140794000Y-125796000D02*
X157494000Y-125796000D01*
X144644000Y-107946000D02*
X147794000Y-107946000D01*
X148144000Y-102836000D02*
X150144000Y-102836000D01*
X148794000Y-107346000D02*
X148794000Y-108546000D01*
X148794000Y-108146000D02*
X149494000Y-107746000D01*
X148794000Y-108546000D02*
X149494000Y-108546000D01*
X149494000Y-107346000D02*
X148794000Y-107346000D01*
X149494000Y-108546000D02*
X149494000Y-107346000D01*
X150494000Y-107946000D02*
X153644000Y-107946000D01*
X157494000Y-103096000D02*
X140794000Y-103096000D01*
X157494000Y-125796000D02*
X157494000Y-103096000D01*
%TO.C,J2*%
X141345000Y-126890000D02*
X156825000Y-126890000D01*
X141345000Y-129910000D02*
X156825000Y-129910000D01*
X141345000Y-134810000D02*
X156825000Y-134810000D01*
X141345000Y-136310000D02*
X156825000Y-136310000D01*
X141345000Y-136930000D02*
X141345000Y-126890000D01*
X143705000Y-136930000D02*
X141345000Y-136930000D01*
X156825000Y-126890000D02*
X156825000Y-136930000D01*
X156825000Y-136930000D02*
X144305000Y-136930000D01*
X144445000Y-137540000D02*
X143565000Y-137540000D01*
X144005000Y-136930000D01*
X144445000Y-137540000D01*
G36*
X144445000Y-137540000D02*
G01*
X143565000Y-137540000D01*
X144005000Y-136930000D01*
X144445000Y-137540000D01*
G37*
%TO.C,R4*%
X143660436Y-96039000D02*
X144114564Y-96039000D01*
X143660436Y-97509000D02*
X144114564Y-97509000D01*
%TD*%
M02*
