%TF.GenerationSoftware,KiCad,Pcbnew,9.0.4*%
%TF.CreationDate,2026-02-05T16:56:58-03:00*%
%TF.ProjectId,relay_module_12v_optocoupler,72656c61-795f-46d6-9f64-756c655f3132,rev?*%
%TF.SameCoordinates,Original*%
%TF.FileFunction,Copper,L2,Bot*%
%TF.FilePolarity,Positive*%
%FSLAX46Y46*%
G04 Gerber Fmt 4.6, Leading zero omitted, Abs format (unit mm)*
G04 Created by KiCad (PCBNEW 9.0.4) date 2026-02-05 16:56:58*
%MOMM*%
%LPD*%
G01*
G04 APERTURE LIST*
G04 Aperture macros list*
%AMRoundRect*
0 Rectangle with rounded corners*
0 $1 Rounding radius*
0 $2 $3 $4 $5 $6 $7 $8 $9 X,Y pos of 4 corners*
0 Add a 4 corners polygon primitive as box body*
4,1,4,$2,$3,$4,$5,$6,$7,$8,$9,$2,$3,0*
0 Add four circle primitives for the rounded corners*
1,1,$1+$1,$2,$3*
1,1,$1+$1,$4,$5*
1,1,$1+$1,$6,$7*
1,1,$1+$1,$8,$9*
0 Add four rect primitives between the rounded corners*
20,1,$1+$1,$2,$3,$4,$5,0*
20,1,$1+$1,$4,$5,$6,$7,0*
20,1,$1+$1,$6,$7,$8,$9,0*
20,1,$1+$1,$8,$9,$2,$3,0*%
G04 Aperture macros list end*
%TA.AperFunction,ComponentPad*%
%ADD10R,1.050000X1.500000*%
%TD*%
%TA.AperFunction,ComponentPad*%
%ADD11O,1.050000X1.500000*%
%TD*%
%TA.AperFunction,ComponentPad*%
%ADD12C,1.600000*%
%TD*%
%TA.AperFunction,ComponentPad*%
%ADD13R,1.800000X1.800000*%
%TD*%
%TA.AperFunction,ComponentPad*%
%ADD14C,1.800000*%
%TD*%
%TA.AperFunction,ComponentPad*%
%ADD15RoundRect,0.249999X0.850001X0.850001X-0.850001X0.850001X-0.850001X-0.850001X0.850001X-0.850001X0*%
%TD*%
%TA.AperFunction,ComponentPad*%
%ADD16C,2.200000*%
%TD*%
%TA.AperFunction,ComponentPad*%
%ADD17RoundRect,0.250000X-0.550000X0.550000X-0.550000X-0.550000X0.550000X-0.550000X0.550000X0.550000X0*%
%TD*%
%TA.AperFunction,ComponentPad*%
%ADD18RoundRect,0.250000X1.050000X1.050000X-1.050000X1.050000X-1.050000X-1.050000X1.050000X-1.050000X0*%
%TD*%
%TA.AperFunction,ComponentPad*%
%ADD19C,2.600000*%
%TD*%
%TA.AperFunction,ComponentPad*%
%ADD20R,2.500000X2.500000*%
%TD*%
%TA.AperFunction,ComponentPad*%
%ADD21O,2.500000X2.500000*%
%TD*%
%TA.AperFunction,ComponentPad*%
%ADD22RoundRect,0.250000X-1.050000X-1.050000X1.050000X-1.050000X1.050000X1.050000X-1.050000X1.050000X0*%
%TD*%
%TA.AperFunction,Conductor*%
%ADD23C,1.000000*%
%TD*%
%TA.AperFunction,Conductor*%
%ADD24C,3.500000*%
%TD*%
%TA.AperFunction,Conductor*%
%ADD25C,0.500000*%
%TD*%
G04 APERTURE END LIST*
D10*
%TO.P,Q1,1,C*%
%TO.N,Net-(D1-A)*%
X143357600Y-101396800D03*
D11*
%TO.P,Q1,2,B*%
%TO.N,Net-(Q1-B)*%
X142087600Y-101396800D03*
%TO.P,Q1,3,E*%
%TO.N,GND*%
X140817600Y-101396800D03*
%TD*%
D12*
%TO.P,R2,1*%
%TO.N,Net-(J1-Pin_3)*%
X140309600Y-86664800D03*
%TO.P,R2,2*%
%TO.N,Net-(R2-Pad2)*%
X147929600Y-86664800D03*
%TD*%
D13*
%TO.P,D2,1,K*%
%TO.N,Net-(D1-A)*%
X143230600Y-97078800D03*
D14*
%TO.P,D2,2,A*%
%TO.N,Net-(D2-A)*%
X145770600Y-97078800D03*
%TD*%
D15*
%TO.P,D1,1,K*%
%TO.N,Net-(D1-K)*%
X157835600Y-101396800D03*
D16*
%TO.P,D1,2,A*%
%TO.N,Net-(D1-A)*%
X147675600Y-101396800D03*
%TD*%
D17*
%TO.P,U1,1*%
%TO.N,Net-(R2-Pad2)*%
X156819600Y-86156800D03*
D12*
%TO.P,U1,2*%
%TO.N,GND*%
X154279600Y-86156800D03*
%TO.P,U1,3*%
%TO.N,Net-(R3-Pad1)*%
X154279600Y-93776800D03*
%TO.P,U1,4*%
%TO.N,Net-(D1-K)*%
X156819600Y-93776800D03*
%TD*%
D18*
%TO.P,J1,1,Pin_1*%
%TO.N,Net-(D1-K)*%
X154200000Y-79248000D03*
D19*
%TO.P,J1,2,Pin_2*%
%TO.N,GND*%
X149120000Y-79248000D03*
%TO.P,J1,3,Pin_3*%
%TO.N,Net-(J1-Pin_3)*%
X144040000Y-79248000D03*
%TD*%
D12*
%TO.P,R1,1*%
%TO.N,Net-(D1-K)*%
X157835600Y-97332800D03*
%TO.P,R1,2*%
%TO.N,Net-(D2-A)*%
X150215600Y-97332800D03*
%TD*%
%TO.P,R3,1*%
%TO.N,Net-(R3-Pad1)*%
X147929600Y-89966800D03*
%TO.P,R3,2*%
%TO.N,Net-(Q1-B)*%
X140309600Y-89966800D03*
%TD*%
D20*
%TO.P,K1,3*%
%TO.N,C_1*%
X149230600Y-107186600D03*
D21*
%TO.P,K1,5*%
%TO.N,NO_1*%
X143230600Y-121386600D03*
%TO.P,K1,4*%
%TO.N,NC_1*%
X155230600Y-121386600D03*
%TO.P,K1,2*%
%TO.N,Net-(D1-A)*%
X143230600Y-109186600D03*
%TO.P,K1,1*%
%TO.N,Net-(D1-K)*%
X155230600Y-109186600D03*
%TD*%
D22*
%TO.P,J2,1,Pin_1*%
%TO.N,NO_1*%
X144018000Y-133350000D03*
D19*
%TO.P,J2,2,Pin_2*%
%TO.N,C_1*%
X149098000Y-133350000D03*
%TO.P,J2,3,Pin_3*%
%TO.N,NC_1*%
X154178000Y-133350000D03*
%TD*%
D12*
%TO.P,R4,1*%
%TO.N,GND*%
X147929600Y-93268800D03*
%TO.P,R4,2*%
%TO.N,Net-(Q1-B)*%
X140309600Y-93268800D03*
%TD*%
D23*
%TO.N,Net-(D1-K)*%
X157835600Y-95808800D02*
X159867600Y-93776800D01*
X159867600Y-84915600D02*
X159867600Y-93776800D01*
X154200000Y-79248000D02*
X159867600Y-84915600D01*
%TO.N,Net-(J1-Pin_3)*%
X140356700Y-82931300D02*
X144040000Y-79248000D01*
X140309600Y-82931300D02*
X140356700Y-82931300D01*
%TO.N,Net-(D1-K)*%
X154274600Y-79126300D02*
X154513500Y-79126300D01*
X157861000Y-106396500D02*
X155250000Y-109007500D01*
X157861000Y-101092000D02*
X157861000Y-106396500D01*
X156819600Y-93776800D02*
X159867600Y-93776800D01*
X157835600Y-97332800D02*
X157835600Y-95808800D01*
X157835600Y-101396800D02*
X157835600Y-97332800D01*
D24*
%TO.N,NO_1*%
X143230600Y-132562600D02*
X144018000Y-133350000D01*
X143230600Y-121386600D02*
X143230600Y-132562600D01*
%TO.N,C_1*%
X149230600Y-107186600D02*
X149230600Y-133217400D01*
X149230600Y-133217400D02*
X149098000Y-133350000D01*
%TO.N,NC_1*%
X155230600Y-132297400D02*
X154178000Y-133350000D01*
X155230600Y-121386600D02*
X155230600Y-132297400D01*
D23*
%TO.N,Net-(D2-A)*%
X145770600Y-97078800D02*
X149961600Y-97078800D01*
X149961600Y-97078800D02*
X150215600Y-97332800D01*
%TO.N,Net-(D1-A)*%
X143230600Y-109186600D02*
X143357600Y-109059600D01*
X143400600Y-101142800D02*
X143357600Y-101185800D01*
X143250000Y-109007500D02*
X143383000Y-108874500D01*
X143357600Y-97205800D02*
X143357600Y-101396800D01*
X143357600Y-109059600D02*
X143357600Y-101396800D01*
X147675600Y-101396800D02*
X143357600Y-101396800D01*
X143230600Y-97078800D02*
X143357600Y-97205800D01*
D25*
%TO.N,Net-(Q1-B)*%
X142087600Y-101185800D02*
X142087600Y-100850528D01*
X142087600Y-100253800D02*
X140309600Y-98475800D01*
X142087600Y-101015800D02*
X142087600Y-100253800D01*
D23*
X140309600Y-89966800D02*
X140309600Y-93268800D01*
D25*
X140309600Y-98475800D02*
X140309600Y-93268800D01*
D23*
%TO.N,Net-(R2-Pad2)*%
X150317200Y-86664800D02*
X153136600Y-89484200D01*
X156819600Y-87503000D02*
X154838400Y-89484200D01*
X156819600Y-86156800D02*
X156819600Y-87503000D01*
X153136600Y-89484200D02*
X154838400Y-89484200D01*
X147929600Y-86664800D02*
X150317200Y-86664800D01*
%TO.N,Net-(R3-Pad1)*%
X147929600Y-89966800D02*
X150469600Y-89966800D01*
X150469600Y-89966800D02*
X154279600Y-93776800D01*
%TO.N,Net-(J1-Pin_3)*%
X140309600Y-86664800D02*
X140309600Y-82931300D01*
%TD*%
%TA.AperFunction,Conductor*%
%TO.N,GND*%
G36*
X159846818Y-73398816D02*
G01*
X160075420Y-73415165D01*
X160092929Y-73417683D01*
X160312544Y-73465458D01*
X160329503Y-73470437D01*
X160540094Y-73548983D01*
X160556177Y-73556327D01*
X160753436Y-73664040D01*
X160768319Y-73673605D01*
X160948236Y-73808289D01*
X160961607Y-73819875D01*
X161120524Y-73978792D01*
X161132110Y-73992163D01*
X161266794Y-74172080D01*
X161276359Y-74186963D01*
X161384069Y-74384217D01*
X161391419Y-74400311D01*
X161469959Y-74610887D01*
X161474943Y-74627862D01*
X161522716Y-74847470D01*
X161525234Y-74864982D01*
X161541584Y-75093581D01*
X161541900Y-75102427D01*
X161541900Y-110446561D01*
X161522215Y-110513600D01*
X161469411Y-110559355D01*
X161418132Y-110570561D01*
X156612803Y-110579571D01*
X156545727Y-110560012D01*
X156499873Y-110507294D01*
X156489800Y-110438154D01*
X156518706Y-110374544D01*
X156524877Y-110367902D01*
X156549519Y-110343261D01*
X156689211Y-110161212D01*
X156803944Y-109962488D01*
X156891758Y-109750487D01*
X156951148Y-109528838D01*
X156981100Y-109301334D01*
X156981100Y-109071866D01*
X156951148Y-108844362D01*
X156943665Y-108816435D01*
X156945326Y-108746588D01*
X156975756Y-108696663D01*
X158638140Y-107034281D01*
X158747632Y-106870414D01*
X158823052Y-106688335D01*
X158861501Y-106495040D01*
X158861501Y-106297959D01*
X158861501Y-106292849D01*
X158861500Y-106292823D01*
X158861500Y-103068684D01*
X158881185Y-103001645D01*
X158933989Y-102955890D01*
X158946494Y-102950979D01*
X159004935Y-102931614D01*
X159154256Y-102839512D01*
X159278312Y-102715456D01*
X159370414Y-102566135D01*
X159425599Y-102399598D01*
X159436100Y-102296810D01*
X159436100Y-100496790D01*
X159425599Y-100394002D01*
X159370414Y-100227465D01*
X159278312Y-100078144D01*
X159154256Y-99954088D01*
X159004935Y-99861986D01*
X158943831Y-99841738D01*
X158921095Y-99834204D01*
X158863650Y-99794431D01*
X158836828Y-99729914D01*
X158836100Y-99716498D01*
X158836100Y-98208561D01*
X158855785Y-98141522D01*
X158859765Y-98135699D01*
X158947887Y-98014410D01*
X159040820Y-97832019D01*
X159104077Y-97637334D01*
X159136100Y-97435152D01*
X159136100Y-97230448D01*
X159104077Y-97028266D01*
X159040820Y-96833581D01*
X159040818Y-96833578D01*
X159040818Y-96833576D01*
X159007103Y-96767407D01*
X158947887Y-96651190D01*
X158935254Y-96633803D01*
X158859782Y-96529922D01*
X158852629Y-96509877D01*
X158841123Y-96491972D01*
X158837668Y-96467945D01*
X158836302Y-96464116D01*
X158836100Y-96457037D01*
X158836100Y-96274581D01*
X158855785Y-96207542D01*
X158872414Y-96186905D01*
X160505378Y-94553941D01*
X160505382Y-94553939D01*
X160644739Y-94414582D01*
X160754232Y-94250714D01*
X160829651Y-94068635D01*
X160830014Y-94066813D01*
X160868100Y-93875340D01*
X160868100Y-93678260D01*
X160868100Y-93678259D01*
X160868100Y-84817059D01*
X160868100Y-84817056D01*
X160829652Y-84623770D01*
X160829651Y-84623769D01*
X160829651Y-84623765D01*
X160829649Y-84623760D01*
X160754235Y-84441692D01*
X160754228Y-84441679D01*
X160644739Y-84277818D01*
X160644736Y-84277814D01*
X160502286Y-84135364D01*
X160502255Y-84135335D01*
X156036818Y-79669898D01*
X156003333Y-79608575D01*
X156000499Y-79582217D01*
X156000499Y-78147998D01*
X156000498Y-78147981D01*
X155989999Y-78045203D01*
X155989998Y-78045200D01*
X155934814Y-77878666D01*
X155842712Y-77729344D01*
X155718656Y-77605288D01*
X155569334Y-77513186D01*
X155402797Y-77458001D01*
X155402795Y-77458000D01*
X155300010Y-77447500D01*
X153099998Y-77447500D01*
X153099981Y-77447501D01*
X152997203Y-77458000D01*
X152997200Y-77458001D01*
X152830668Y-77513185D01*
X152830663Y-77513187D01*
X152681342Y-77605289D01*
X152557289Y-77729342D01*
X152465187Y-77878663D01*
X152465185Y-77878668D01*
X152460962Y-77891412D01*
X152410001Y-78045203D01*
X152410001Y-78045204D01*
X152410000Y-78045204D01*
X152399500Y-78147983D01*
X152399500Y-80348001D01*
X152399501Y-80348018D01*
X152410000Y-80450796D01*
X152410001Y-80450799D01*
X152460962Y-80604587D01*
X152465186Y-80617334D01*
X152557288Y-80766656D01*
X152681344Y-80890712D01*
X152830666Y-80982814D01*
X152997203Y-81037999D01*
X153099991Y-81048500D01*
X154534217Y-81048499D01*
X154601256Y-81068184D01*
X154621898Y-81084818D01*
X158830781Y-85293701D01*
X158864266Y-85355024D01*
X158867100Y-85381382D01*
X158867100Y-92652300D01*
X158847415Y-92719339D01*
X158794611Y-92765094D01*
X158743100Y-92776300D01*
X157695362Y-92776300D01*
X157628323Y-92756615D01*
X157622477Y-92752618D01*
X157501213Y-92664515D01*
X157501212Y-92664514D01*
X157501210Y-92664513D01*
X157444253Y-92635491D01*
X157318823Y-92571581D01*
X157124134Y-92508322D01*
X156936290Y-92478571D01*
X156921952Y-92476300D01*
X156717248Y-92476300D01*
X156702910Y-92478571D01*
X156515065Y-92508322D01*
X156320376Y-92571581D01*
X156137986Y-92664515D01*
X155972386Y-92784828D01*
X155827628Y-92929586D01*
X155707315Y-93095186D01*
X155660085Y-93187880D01*
X155612110Y-93238676D01*
X155544289Y-93255471D01*
X155478154Y-93232934D01*
X155439115Y-93187880D01*
X155428195Y-93166448D01*
X155391887Y-93095190D01*
X155384156Y-93084549D01*
X155271571Y-92929586D01*
X155126813Y-92784828D01*
X154961213Y-92664515D01*
X154961212Y-92664514D01*
X154961210Y-92664513D01*
X154778819Y-92571580D01*
X154584134Y-92508323D01*
X154584131Y-92508322D01*
X154584132Y-92508322D01*
X154436084Y-92484873D01*
X154372950Y-92454943D01*
X154367802Y-92450081D01*
X152425412Y-90507691D01*
X152417147Y-90492555D01*
X152404836Y-90480478D01*
X152400750Y-90462526D01*
X152391927Y-90446368D01*
X152393157Y-90429165D01*
X152389330Y-90412350D01*
X152395597Y-90395040D01*
X152396911Y-90376676D01*
X152407246Y-90362869D01*
X152413118Y-90346655D01*
X152427750Y-90335480D01*
X152438783Y-90320743D01*
X152454939Y-90314716D01*
X152468647Y-90304249D01*
X152486997Y-90302759D01*
X152504247Y-90296326D01*
X152521387Y-90299968D01*
X152538288Y-90298597D01*
X152562317Y-90308667D01*
X152571474Y-90310613D01*
X152576879Y-90313497D01*
X152662686Y-90370832D01*
X152753725Y-90408541D01*
X152844765Y-90446252D01*
X153005989Y-90478321D01*
X153038057Y-90484699D01*
X153038058Y-90484700D01*
X153038059Y-90484700D01*
X154936942Y-90484700D01*
X154969014Y-90478320D01*
X155033588Y-90465475D01*
X155130236Y-90446251D01*
X155183565Y-90424161D01*
X155312314Y-90370832D01*
X155476182Y-90261339D01*
X155615539Y-90121982D01*
X155615540Y-90121979D01*
X155622606Y-90114914D01*
X155622609Y-90114910D01*
X157457378Y-88280141D01*
X157457382Y-88280139D01*
X157596739Y-88140782D01*
X157706232Y-87976914D01*
X157781651Y-87794835D01*
X157807377Y-87665502D01*
X157820100Y-87601543D01*
X157820100Y-87369030D01*
X157839785Y-87301991D01*
X157856419Y-87281349D01*
X157905072Y-87232696D01*
X157962312Y-87175456D01*
X158054414Y-87026134D01*
X158109599Y-86859597D01*
X158120100Y-86756809D01*
X158120099Y-85556792D01*
X158109599Y-85454003D01*
X158054414Y-85287466D01*
X157962312Y-85138144D01*
X157838256Y-85014088D01*
X157688934Y-84921986D01*
X157522397Y-84866801D01*
X157522395Y-84866800D01*
X157419610Y-84856300D01*
X156219598Y-84856300D01*
X156219581Y-84856301D01*
X156116803Y-84866800D01*
X156116800Y-84866801D01*
X155950268Y-84921985D01*
X155950263Y-84921987D01*
X155800942Y-85014089D01*
X155676889Y-85138142D01*
X155584787Y-85287463D01*
X155584786Y-85287466D01*
X155562400Y-85355024D01*
X155557452Y-85369955D01*
X155517679Y-85427399D01*
X155453163Y-85454222D01*
X155384387Y-85441907D01*
X155372620Y-85431943D01*
X155359074Y-85430876D01*
X154679600Y-86110351D01*
X154679600Y-86104139D01*
X154652341Y-86002406D01*
X154599680Y-85911194D01*
X154525206Y-85836720D01*
X154433994Y-85784059D01*
X154332261Y-85756800D01*
X154326046Y-85756800D01*
X155005522Y-85077324D01*
X155005521Y-85077323D01*
X154960959Y-85044947D01*
X154960950Y-85044941D01*
X154778631Y-84952044D01*
X154584017Y-84888809D01*
X154381917Y-84856800D01*
X154177283Y-84856800D01*
X153975182Y-84888809D01*
X153780568Y-84952044D01*
X153598244Y-85044943D01*
X153553677Y-85077323D01*
X153553677Y-85077324D01*
X154233154Y-85756800D01*
X154226939Y-85756800D01*
X154125206Y-85784059D01*
X154033994Y-85836720D01*
X153959520Y-85911194D01*
X153906859Y-86002406D01*
X153879600Y-86104139D01*
X153879600Y-86110353D01*
X153200124Y-85430877D01*
X153200123Y-85430877D01*
X153167743Y-85475444D01*
X153074844Y-85657768D01*
X153011609Y-85852382D01*
X152979600Y-86054482D01*
X152979600Y-86259117D01*
X153011609Y-86461217D01*
X153074844Y-86655831D01*
X153167741Y-86838150D01*
X153167747Y-86838159D01*
X153200123Y-86882721D01*
X153200124Y-86882722D01*
X153879600Y-86203246D01*
X153879600Y-86209461D01*
X153906859Y-86311194D01*
X153959520Y-86402406D01*
X154033994Y-86476880D01*
X154125206Y-86529541D01*
X154226939Y-86556800D01*
X154233153Y-86556800D01*
X153553676Y-87236274D01*
X153598250Y-87268659D01*
X153780568Y-87361555D01*
X153975182Y-87424790D01*
X154177283Y-87456800D01*
X154381917Y-87456800D01*
X154584017Y-87424790D01*
X154778631Y-87361555D01*
X154960949Y-87268659D01*
X155005521Y-87236274D01*
X154326047Y-86556800D01*
X154332261Y-86556800D01*
X154433994Y-86529541D01*
X154525206Y-86476880D01*
X154599680Y-86402406D01*
X154652341Y-86311194D01*
X154679600Y-86209461D01*
X154679600Y-86203247D01*
X155359074Y-86882721D01*
X155376245Y-86881370D01*
X155394754Y-86867098D01*
X155398735Y-86866755D01*
X155402047Y-86864517D01*
X155433261Y-86863789D01*
X155464367Y-86861117D01*
X155467901Y-86862982D01*
X155471898Y-86862889D01*
X155498550Y-86879153D01*
X155526163Y-86893722D01*
X155529110Y-86897801D01*
X155531540Y-86899284D01*
X155537270Y-86909094D01*
X155551308Y-86928522D01*
X155554880Y-86935886D01*
X155584786Y-87026134D01*
X155649814Y-87131562D01*
X155652551Y-87137203D01*
X155657333Y-87165725D01*
X155664967Y-87193625D01*
X155663039Y-87199764D01*
X155664104Y-87206111D01*
X155652704Y-87232696D01*
X155644044Y-87260288D01*
X155637406Y-87268370D01*
X155636568Y-87270326D01*
X155634842Y-87271492D01*
X155628669Y-87279010D01*
X154460299Y-88447381D01*
X154398976Y-88480866D01*
X154372618Y-88483700D01*
X153602383Y-88483700D01*
X153535344Y-88464015D01*
X153514702Y-88447381D01*
X152937339Y-87870018D01*
X151101408Y-86034088D01*
X151101407Y-86034086D01*
X151101406Y-86034085D01*
X151101406Y-86034086D01*
X151094339Y-86027019D01*
X151094339Y-86027018D01*
X150954982Y-85887661D01*
X150954981Y-85887660D01*
X150954980Y-85887659D01*
X150791120Y-85778171D01*
X150791111Y-85778166D01*
X150708016Y-85743747D01*
X150662365Y-85724838D01*
X150609036Y-85702749D01*
X150509178Y-85682886D01*
X150504647Y-85681984D01*
X150504641Y-85681983D01*
X150415743Y-85664300D01*
X150415741Y-85664300D01*
X148805362Y-85664300D01*
X148738323Y-85644615D01*
X148732477Y-85640618D01*
X148611213Y-85552515D01*
X148611212Y-85552514D01*
X148611210Y-85552513D01*
X148554253Y-85523491D01*
X148428823Y-85459581D01*
X148234134Y-85396322D01*
X148059595Y-85368678D01*
X148031952Y-85364300D01*
X147827248Y-85364300D01*
X147802929Y-85368151D01*
X147625065Y-85396322D01*
X147430376Y-85459581D01*
X147247986Y-85552515D01*
X147082386Y-85672828D01*
X146937628Y-85817586D01*
X146817315Y-85983186D01*
X146724381Y-86165576D01*
X146661122Y-86360265D01*
X146629100Y-86562448D01*
X146629100Y-86767151D01*
X146661122Y-86969334D01*
X146724381Y-87164023D01*
X146817315Y-87346413D01*
X146937628Y-87512013D01*
X147082386Y-87656771D01*
X147237349Y-87769356D01*
X147247990Y-87777087D01*
X147364207Y-87836303D01*
X147430376Y-87870018D01*
X147430378Y-87870018D01*
X147430381Y-87870020D01*
X147534737Y-87903927D01*
X147625065Y-87933277D01*
X147726157Y-87949288D01*
X147827248Y-87965300D01*
X147827249Y-87965300D01*
X148031951Y-87965300D01*
X148031952Y-87965300D01*
X148234134Y-87933277D01*
X148428819Y-87870020D01*
X148611210Y-87777087D01*
X148732477Y-87688981D01*
X148798283Y-87665502D01*
X148805362Y-87665300D01*
X149851418Y-87665300D01*
X149918457Y-87684985D01*
X149939099Y-87701619D01*
X151180785Y-88943306D01*
X151214270Y-89004629D01*
X151209286Y-89074321D01*
X151167414Y-89130254D01*
X151101950Y-89154671D01*
X151033677Y-89139819D01*
X151024213Y-89134089D01*
X150943520Y-89080171D01*
X150943507Y-89080164D01*
X150783893Y-89014050D01*
X150783886Y-89014048D01*
X150774803Y-89010286D01*
X150761436Y-89004749D01*
X150664788Y-88985524D01*
X150662503Y-88985069D01*
X150662480Y-88985064D01*
X150568144Y-88966300D01*
X150568141Y-88966300D01*
X148805362Y-88966300D01*
X148738323Y-88946615D01*
X148732477Y-88942618D01*
X148611213Y-88854515D01*
X148611212Y-88854514D01*
X148611210Y-88854513D01*
X148554253Y-88825491D01*
X148428823Y-88761581D01*
X148234134Y-88698322D01*
X148059595Y-88670678D01*
X148031952Y-88666300D01*
X147827248Y-88666300D01*
X147802929Y-88670151D01*
X147625065Y-88698322D01*
X147430376Y-88761581D01*
X147247986Y-88854515D01*
X147082386Y-88974828D01*
X146937628Y-89119586D01*
X146817315Y-89285186D01*
X146724381Y-89467576D01*
X146661122Y-89662265D01*
X146629100Y-89864448D01*
X146629100Y-90069151D01*
X146661122Y-90271334D01*
X146724381Y-90466023D01*
X146817315Y-90648413D01*
X146937628Y-90814013D01*
X147082386Y-90958771D01*
X147237349Y-91071356D01*
X147247990Y-91079087D01*
X147364207Y-91138303D01*
X147430376Y-91172018D01*
X147430378Y-91172018D01*
X147430381Y-91172020D01*
X147534737Y-91205927D01*
X147625065Y-91235277D01*
X147726157Y-91251288D01*
X147827248Y-91267300D01*
X147827249Y-91267300D01*
X148031951Y-91267300D01*
X148031952Y-91267300D01*
X148234134Y-91235277D01*
X148428819Y-91172020D01*
X148611210Y-91079087D01*
X148732477Y-90990981D01*
X148798283Y-90967502D01*
X148805362Y-90967300D01*
X150003818Y-90967300D01*
X150070857Y-90986985D01*
X150091498Y-91003618D01*
X151533756Y-92445877D01*
X152952881Y-93865002D01*
X152986366Y-93926325D01*
X152987673Y-93933284D01*
X153011122Y-94081331D01*
X153011123Y-94081334D01*
X153074380Y-94276019D01*
X153144981Y-94414582D01*
X153167315Y-94458413D01*
X153287628Y-94624013D01*
X153432386Y-94768771D01*
X153587349Y-94881356D01*
X153597990Y-94889087D01*
X153714207Y-94948303D01*
X153780376Y-94982018D01*
X153780378Y-94982018D01*
X153780381Y-94982020D01*
X153884737Y-95015927D01*
X153975065Y-95045277D01*
X154076157Y-95061288D01*
X154177248Y-95077300D01*
X154177249Y-95077300D01*
X154381951Y-95077300D01*
X154381952Y-95077300D01*
X154584134Y-95045277D01*
X154778819Y-94982020D01*
X154961210Y-94889087D01*
X155054190Y-94821532D01*
X155126813Y-94768771D01*
X155126815Y-94768768D01*
X155126819Y-94768766D01*
X155271566Y-94624019D01*
X155271568Y-94624015D01*
X155271571Y-94624013D01*
X155391884Y-94458414D01*
X155391885Y-94458413D01*
X155391887Y-94458410D01*
X155439116Y-94365717D01*
X155487089Y-94314923D01*
X155554910Y-94298128D01*
X155621045Y-94320665D01*
X155660083Y-94365717D01*
X155703948Y-94451806D01*
X155707315Y-94458414D01*
X155827628Y-94624013D01*
X155972386Y-94768771D01*
X156127349Y-94881356D01*
X156137990Y-94889087D01*
X156254207Y-94948303D01*
X156320376Y-94982018D01*
X156320378Y-94982018D01*
X156320381Y-94982020D01*
X156424737Y-95015927D01*
X156515065Y-95045277D01*
X156616157Y-95061288D01*
X156717248Y-95077300D01*
X156717249Y-95077300D01*
X156889093Y-95077300D01*
X156956132Y-95096985D01*
X157001887Y-95149789D01*
X157011831Y-95218947D01*
X156992195Y-95270191D01*
X156948971Y-95334879D01*
X156948964Y-95334892D01*
X156873550Y-95516960D01*
X156873547Y-95516970D01*
X156835100Y-95710256D01*
X156835100Y-96457037D01*
X156815415Y-96524076D01*
X156811418Y-96529922D01*
X156723315Y-96651186D01*
X156630381Y-96833576D01*
X156567122Y-97028265D01*
X156535100Y-97230448D01*
X156535100Y-97435151D01*
X156567122Y-97637334D01*
X156630381Y-97832023D01*
X156661495Y-97893086D01*
X156723313Y-98014410D01*
X156811419Y-98135677D01*
X156834898Y-98201481D01*
X156835100Y-98208561D01*
X156835100Y-99716498D01*
X156815415Y-99783537D01*
X156762611Y-99829292D01*
X156750105Y-99834204D01*
X156666265Y-99861986D01*
X156666262Y-99861987D01*
X156516942Y-99954089D01*
X156392889Y-100078142D01*
X156300787Y-100227462D01*
X156300786Y-100227465D01*
X156245601Y-100394002D01*
X156245601Y-100394003D01*
X156245600Y-100394003D01*
X156235100Y-100496782D01*
X156235100Y-102296817D01*
X156245600Y-102399596D01*
X156300785Y-102566132D01*
X156300786Y-102566135D01*
X156392888Y-102715456D01*
X156516944Y-102839512D01*
X156666265Y-102931614D01*
X156775504Y-102967812D01*
X156832949Y-103007585D01*
X156859772Y-103072101D01*
X156860500Y-103085518D01*
X156860500Y-105930717D01*
X156840815Y-105997756D01*
X156824181Y-106018398D01*
X155442445Y-107400133D01*
X155381122Y-107433618D01*
X155349393Y-107435982D01*
X155349393Y-107436100D01*
X155347822Y-107436100D01*
X155346655Y-107436187D01*
X155345339Y-107436100D01*
X155345334Y-107436100D01*
X155115866Y-107436100D01*
X155115858Y-107436100D01*
X154899315Y-107464609D01*
X154888362Y-107466052D01*
X154794676Y-107491154D01*
X154666712Y-107525442D01*
X154454723Y-107613250D01*
X154454709Y-107613257D01*
X154255982Y-107727992D01*
X154073938Y-107867681D01*
X153911681Y-108029938D01*
X153771992Y-108211982D01*
X153657257Y-108410709D01*
X153657255Y-108410713D01*
X153619660Y-108501475D01*
X153575818Y-108555878D01*
X153509524Y-108577942D01*
X153441825Y-108560662D01*
X153394215Y-108509525D01*
X153381099Y-108454025D01*
X153381099Y-105798918D01*
X153378231Y-105721509D01*
X153332453Y-105380306D01*
X153246642Y-105046913D01*
X153122001Y-104726009D01*
X152960281Y-104422100D01*
X152763751Y-104139450D01*
X152535172Y-103882028D01*
X152277750Y-103653449D01*
X151995100Y-103456919D01*
X151691191Y-103295199D01*
X151691190Y-103295198D01*
X151691189Y-103295198D01*
X151691187Y-103295197D01*
X151370286Y-103170557D01*
X151370278Y-103170555D01*
X151036895Y-103084747D01*
X150695693Y-103038969D01*
X150664727Y-103037821D01*
X150618283Y-103036100D01*
X150618280Y-103036100D01*
X148500192Y-103036100D01*
X148433153Y-103016415D01*
X148387398Y-102963611D01*
X148377454Y-102894453D01*
X148406479Y-102830897D01*
X148443896Y-102801616D01*
X148514445Y-102765670D01*
X148718256Y-102617593D01*
X148896393Y-102439456D01*
X149044470Y-102235645D01*
X149158841Y-102011179D01*
X149236690Y-101771585D01*
X149276100Y-101522762D01*
X149276100Y-101270838D01*
X149236690Y-101022015D01*
X149158841Y-100782421D01*
X149158839Y-100782418D01*
X149158839Y-100782416D01*
X149109851Y-100686273D01*
X149044470Y-100557955D01*
X149000025Y-100496782D01*
X148896398Y-100354150D01*
X148896394Y-100354145D01*
X148718254Y-100176005D01*
X148718249Y-100176001D01*
X148514448Y-100027932D01*
X148514447Y-100027931D01*
X148514445Y-100027930D01*
X148444347Y-99992213D01*
X148289983Y-99913560D01*
X148050385Y-99835710D01*
X148040877Y-99834204D01*
X147801562Y-99796300D01*
X147549638Y-99796300D01*
X147484822Y-99806566D01*
X147300814Y-99835710D01*
X147061216Y-99913560D01*
X146836751Y-100027932D01*
X146632950Y-100176001D01*
X146632945Y-100176005D01*
X146451362Y-100357589D01*
X146450287Y-100356514D01*
X146397420Y-100391025D01*
X146361638Y-100396300D01*
X144482100Y-100396300D01*
X144415061Y-100376615D01*
X144369306Y-100323811D01*
X144358100Y-100272300D01*
X144358100Y-98495767D01*
X144377785Y-98428728D01*
X144407785Y-98396504D01*
X144488146Y-98336346D01*
X144574396Y-98221131D01*
X144602029Y-98147043D01*
X144604201Y-98141220D01*
X144646071Y-98085286D01*
X144711536Y-98060868D01*
X144779809Y-98075719D01*
X144808064Y-98096871D01*
X144858236Y-98147043D01*
X144858241Y-98147047D01*
X144933164Y-98201481D01*
X145036578Y-98276615D01*
X145164975Y-98342037D01*
X145232993Y-98376695D01*
X145232996Y-98376696D01*
X145293948Y-98396500D01*
X145442649Y-98444815D01*
X145660378Y-98479300D01*
X145660379Y-98479300D01*
X145880821Y-98479300D01*
X145880822Y-98479300D01*
X146098551Y-98444815D01*
X146308206Y-98376695D01*
X146504622Y-98276615D01*
X146682965Y-98147042D01*
X146714388Y-98115619D01*
X146775711Y-98082134D01*
X146802069Y-98079300D01*
X149087276Y-98079300D01*
X149154315Y-98098985D01*
X149187594Y-98130414D01*
X149195445Y-98141220D01*
X149223634Y-98180019D01*
X149368386Y-98324771D01*
X149523349Y-98437356D01*
X149533990Y-98445087D01*
X149601137Y-98479300D01*
X149716376Y-98538018D01*
X149716378Y-98538018D01*
X149716381Y-98538020D01*
X149820737Y-98571927D01*
X149911065Y-98601277D01*
X150012157Y-98617288D01*
X150113248Y-98633300D01*
X150113249Y-98633300D01*
X150317951Y-98633300D01*
X150317952Y-98633300D01*
X150520134Y-98601277D01*
X150714819Y-98538020D01*
X150897210Y-98445087D01*
X150991344Y-98376695D01*
X151062813Y-98324771D01*
X151062815Y-98324768D01*
X151062819Y-98324766D01*
X151207566Y-98180019D01*
X151207568Y-98180015D01*
X151207571Y-98180013D01*
X151267976Y-98096871D01*
X151327887Y-98014410D01*
X151420820Y-97832019D01*
X151484077Y-97637334D01*
X151516100Y-97435152D01*
X151516100Y-97230448D01*
X151484077Y-97028266D01*
X151420820Y-96833581D01*
X151420818Y-96833578D01*
X151420818Y-96833576D01*
X151387103Y-96767407D01*
X151327887Y-96651190D01*
X151320156Y-96640549D01*
X151207571Y-96485586D01*
X151062813Y-96340828D01*
X150897213Y-96220515D01*
X150897212Y-96220514D01*
X150897210Y-96220513D01*
X150831241Y-96186900D01*
X150714823Y-96127581D01*
X150520134Y-96064322D01*
X150345595Y-96036678D01*
X150317952Y-96032300D01*
X150113248Y-96032300D01*
X150052126Y-96041981D01*
X149911064Y-96064323D01*
X149911058Y-96064324D01*
X149886729Y-96072230D01*
X149848409Y-96078300D01*
X146802069Y-96078300D01*
X146735030Y-96058615D01*
X146714388Y-96041981D01*
X146682963Y-96010556D01*
X146682958Y-96010552D01*
X146504625Y-95880987D01*
X146504624Y-95880986D01*
X146504622Y-95880985D01*
X146387391Y-95821252D01*
X146308206Y-95780904D01*
X146308203Y-95780903D01*
X146098552Y-95712785D01*
X145989686Y-95695542D01*
X145880822Y-95678300D01*
X145660378Y-95678300D01*
X145587801Y-95689795D01*
X145442647Y-95712785D01*
X145232996Y-95780903D01*
X145232993Y-95780904D01*
X145036574Y-95880987D01*
X144858241Y-96010552D01*
X144858236Y-96010556D01*
X144808063Y-96060729D01*
X144746740Y-96094213D01*
X144677048Y-96089228D01*
X144621115Y-96047357D01*
X144604201Y-96016380D01*
X144574397Y-95936471D01*
X144574393Y-95936464D01*
X144488147Y-95821255D01*
X144488144Y-95821252D01*
X144372935Y-95735006D01*
X144372928Y-95735002D01*
X144238082Y-95684708D01*
X144238083Y-95684708D01*
X144178483Y-95678301D01*
X144178481Y-95678300D01*
X144178473Y-95678300D01*
X144178464Y-95678300D01*
X142282729Y-95678300D01*
X142282723Y-95678301D01*
X142223116Y-95684708D01*
X142088271Y-95735002D01*
X142088264Y-95735006D01*
X141973055Y-95821252D01*
X141973052Y-95821255D01*
X141886806Y-95936464D01*
X141886802Y-95936471D01*
X141836508Y-96071317D01*
X141830101Y-96130916D01*
X141830100Y-96130935D01*
X141830100Y-98026670D01*
X141830101Y-98026676D01*
X141836508Y-98086283D01*
X141886802Y-98221128D01*
X141886806Y-98221135D01*
X141973052Y-98336344D01*
X141973055Y-98336347D01*
X142088264Y-98422593D01*
X142088271Y-98422597D01*
X142223116Y-98472891D01*
X142246357Y-98475390D01*
X142310907Y-98502129D01*
X142350755Y-98559521D01*
X142357100Y-98598679D01*
X142357100Y-99162570D01*
X142337415Y-99229609D01*
X142284611Y-99275364D01*
X142215453Y-99285308D01*
X142151897Y-99256283D01*
X142145419Y-99250251D01*
X141096419Y-98201251D01*
X141062934Y-98139928D01*
X141060100Y-98113570D01*
X141060100Y-94394216D01*
X141060122Y-94394138D01*
X141060100Y-94394061D01*
X141069982Y-94360560D01*
X141079785Y-94327177D01*
X141079853Y-94327097D01*
X141079869Y-94327046D01*
X141080228Y-94326665D01*
X141103015Y-94300402D01*
X141106976Y-94296977D01*
X141156819Y-94260766D01*
X141301566Y-94116019D01*
X141301568Y-94116015D01*
X141301571Y-94116013D01*
X141354332Y-94043390D01*
X141421887Y-93950410D01*
X141514820Y-93768019D01*
X141578077Y-93573334D01*
X141610100Y-93371152D01*
X141610100Y-93166482D01*
X146629600Y-93166482D01*
X146629600Y-93371117D01*
X146661609Y-93573217D01*
X146724844Y-93767831D01*
X146817741Y-93950150D01*
X146817747Y-93950159D01*
X146850123Y-93994721D01*
X146850124Y-93994722D01*
X147529600Y-93315246D01*
X147529600Y-93321461D01*
X147556859Y-93423194D01*
X147609520Y-93514406D01*
X147683994Y-93588880D01*
X147775206Y-93641541D01*
X147876939Y-93668800D01*
X147883153Y-93668800D01*
X147203676Y-94348274D01*
X147248250Y-94380659D01*
X147430568Y-94473555D01*
X147625182Y-94536790D01*
X147827283Y-94568800D01*
X148031917Y-94568800D01*
X148234017Y-94536790D01*
X148428631Y-94473555D01*
X148610949Y-94380659D01*
X148655521Y-94348274D01*
X147976047Y-93668800D01*
X147982261Y-93668800D01*
X148083994Y-93641541D01*
X148175206Y-93588880D01*
X148249680Y-93514406D01*
X148302341Y-93423194D01*
X148329600Y-93321461D01*
X148329600Y-93315248D01*
X149009074Y-93994722D01*
X149009074Y-93994721D01*
X149041459Y-93950149D01*
X149134355Y-93767831D01*
X149197590Y-93573217D01*
X149229600Y-93371117D01*
X149229600Y-93166482D01*
X149197590Y-92964382D01*
X149134355Y-92769768D01*
X149041459Y-92587450D01*
X149009074Y-92542877D01*
X149009074Y-92542876D01*
X148329600Y-93222351D01*
X148329600Y-93216139D01*
X148302341Y-93114406D01*
X148249680Y-93023194D01*
X148175206Y-92948720D01*
X148083994Y-92896059D01*
X147982261Y-92868800D01*
X147976046Y-92868800D01*
X148655522Y-92189324D01*
X148655521Y-92189323D01*
X148610959Y-92156947D01*
X148610950Y-92156941D01*
X148428631Y-92064044D01*
X148234017Y-92000809D01*
X148031917Y-91968800D01*
X147827283Y-91968800D01*
X147625182Y-92000809D01*
X147430568Y-92064044D01*
X147248244Y-92156943D01*
X147203677Y-92189323D01*
X147203677Y-92189324D01*
X147883154Y-92868800D01*
X147876939Y-92868800D01*
X147775206Y-92896059D01*
X147683994Y-92948720D01*
X147609520Y-93023194D01*
X147556859Y-93114406D01*
X147529600Y-93216139D01*
X147529600Y-93222353D01*
X146850124Y-92542877D01*
X146850123Y-92542877D01*
X146817743Y-92587444D01*
X146724844Y-92769768D01*
X146661609Y-92964382D01*
X146629600Y-93166482D01*
X141610100Y-93166482D01*
X141610100Y-93166448D01*
X141598813Y-93095186D01*
X141578077Y-92964265D01*
X141517003Y-92776300D01*
X141514820Y-92769581D01*
X141514818Y-92769578D01*
X141514818Y-92769576D01*
X141422019Y-92587450D01*
X141421887Y-92587190D01*
X141389691Y-92542876D01*
X141333782Y-92465922D01*
X141326629Y-92445877D01*
X141315123Y-92427972D01*
X141311668Y-92403945D01*
X141310302Y-92400116D01*
X141310100Y-92393037D01*
X141310100Y-90842561D01*
X141329785Y-90775522D01*
X141333765Y-90769699D01*
X141421887Y-90648410D01*
X141514820Y-90466019D01*
X141578077Y-90271334D01*
X141610100Y-90069152D01*
X141610100Y-89864448D01*
X141578077Y-89662266D01*
X141514820Y-89467581D01*
X141514818Y-89467578D01*
X141514818Y-89467576D01*
X141481103Y-89401407D01*
X141421887Y-89285190D01*
X141352482Y-89189661D01*
X141301571Y-89119586D01*
X141156813Y-88974828D01*
X140991213Y-88854515D01*
X140991212Y-88854514D01*
X140991210Y-88854513D01*
X140934253Y-88825491D01*
X140808823Y-88761581D01*
X140614134Y-88698322D01*
X140439595Y-88670678D01*
X140411952Y-88666300D01*
X140207248Y-88666300D01*
X140182929Y-88670151D01*
X140005065Y-88698322D01*
X139810376Y-88761581D01*
X139627986Y-88854515D01*
X139462386Y-88974828D01*
X139317628Y-89119586D01*
X139197315Y-89285186D01*
X139104381Y-89467576D01*
X139041122Y-89662265D01*
X139009100Y-89864448D01*
X139009100Y-90069151D01*
X139041122Y-90271334D01*
X139104381Y-90466023D01*
X139197313Y-90648410D01*
X139285419Y-90769677D01*
X139308898Y-90835481D01*
X139309100Y-90842561D01*
X139309100Y-92393037D01*
X139289415Y-92460076D01*
X139285418Y-92465922D01*
X139197315Y-92587186D01*
X139104381Y-92769576D01*
X139041122Y-92964265D01*
X139009100Y-93166448D01*
X139009100Y-93371151D01*
X139041122Y-93573334D01*
X139104381Y-93768023D01*
X139153795Y-93865002D01*
X139197185Y-93950159D01*
X139197315Y-93950413D01*
X139317628Y-94116013D01*
X139317634Y-94116019D01*
X139462381Y-94260766D01*
X139507984Y-94293898D01*
X139550650Y-94349225D01*
X139559100Y-94394216D01*
X139559100Y-98549718D01*
X139559100Y-98549720D01*
X139559099Y-98549720D01*
X139587940Y-98694707D01*
X139587943Y-98694717D01*
X139644514Y-98831292D01*
X139677412Y-98880527D01*
X139677413Y-98880530D01*
X139726646Y-98954214D01*
X139726652Y-98954221D01*
X140721580Y-99949148D01*
X140755065Y-100010471D01*
X140750081Y-100080163D01*
X140708209Y-100136096D01*
X140658091Y-100158446D01*
X140518624Y-100186188D01*
X140518616Y-100186190D01*
X140332086Y-100263452D01*
X140332073Y-100263459D01*
X140164200Y-100375629D01*
X140164196Y-100375632D01*
X140021432Y-100518396D01*
X140021429Y-100518400D01*
X139909259Y-100686273D01*
X139909252Y-100686286D01*
X139831990Y-100872816D01*
X139831987Y-100872825D01*
X139792600Y-101070841D01*
X139792600Y-101146800D01*
X140537270Y-101146800D01*
X140517525Y-101166545D01*
X140468156Y-101252055D01*
X140442600Y-101347430D01*
X140442600Y-101446170D01*
X140468156Y-101541545D01*
X140517525Y-101627055D01*
X140537270Y-101646800D01*
X139792600Y-101646800D01*
X139792600Y-101722758D01*
X139831987Y-101920774D01*
X139831990Y-101920783D01*
X139909252Y-102107313D01*
X139909259Y-102107326D01*
X140021429Y-102275199D01*
X140021432Y-102275203D01*
X140164196Y-102417967D01*
X140164200Y-102417970D01*
X140332073Y-102530140D01*
X140332086Y-102530147D01*
X140518616Y-102607409D01*
X140518625Y-102607412D01*
X140567600Y-102617153D01*
X140567600Y-101677130D01*
X140587345Y-101696875D01*
X140672855Y-101746244D01*
X140768230Y-101771800D01*
X140866970Y-101771800D01*
X140962345Y-101746244D01*
X141047855Y-101696875D01*
X141062100Y-101682630D01*
X141062100Y-101722803D01*
X141067322Y-101749059D01*
X141067568Y-101759846D01*
X141067388Y-101760514D01*
X141067600Y-101762665D01*
X141067600Y-102617152D01*
X141116574Y-102607412D01*
X141116583Y-102607409D01*
X141303115Y-102530146D01*
X141303118Y-102530144D01*
X141383258Y-102476596D01*
X141449935Y-102455717D01*
X141517316Y-102474201D01*
X141521022Y-102476583D01*
X141601844Y-102530586D01*
X141788473Y-102607891D01*
X141986592Y-102647299D01*
X141986596Y-102647300D01*
X141986597Y-102647300D01*
X142188603Y-102647300D01*
X142208908Y-102643261D01*
X142278499Y-102649488D01*
X142333677Y-102692350D01*
X142356922Y-102758239D01*
X142357100Y-102764878D01*
X142357100Y-107598020D01*
X142337415Y-107665059D01*
X142295101Y-107705406D01*
X142256000Y-107727981D01*
X142255977Y-107727996D01*
X142073938Y-107867681D01*
X141911681Y-108029938D01*
X141771992Y-108211982D01*
X141657257Y-108410709D01*
X141657250Y-108410723D01*
X141569442Y-108622712D01*
X141510053Y-108844359D01*
X141510051Y-108844370D01*
X141480100Y-109071858D01*
X141480100Y-109301341D01*
X141486651Y-109351095D01*
X141510052Y-109528838D01*
X141510053Y-109528840D01*
X141569442Y-109750487D01*
X141657250Y-109962476D01*
X141657257Y-109962490D01*
X141771992Y-110161217D01*
X141911681Y-110343261D01*
X141911689Y-110343270D01*
X141963941Y-110395522D01*
X141997426Y-110456845D01*
X141992442Y-110526537D01*
X141950570Y-110582470D01*
X141885106Y-110606887D01*
X141876493Y-110607203D01*
X136667133Y-110616971D01*
X136600056Y-110597412D01*
X136554202Y-110544694D01*
X136542900Y-110492971D01*
X136542900Y-86562448D01*
X139009100Y-86562448D01*
X139009100Y-86767151D01*
X139041122Y-86969334D01*
X139104381Y-87164023D01*
X139197315Y-87346413D01*
X139317628Y-87512013D01*
X139462386Y-87656771D01*
X139617349Y-87769356D01*
X139627990Y-87777087D01*
X139744207Y-87836303D01*
X139810376Y-87870018D01*
X139810378Y-87870018D01*
X139810381Y-87870020D01*
X139914737Y-87903927D01*
X140005065Y-87933277D01*
X140106157Y-87949288D01*
X140207248Y-87965300D01*
X140207249Y-87965300D01*
X140411951Y-87965300D01*
X140411952Y-87965300D01*
X140614134Y-87933277D01*
X140808819Y-87870020D01*
X140991210Y-87777087D01*
X141117979Y-87684985D01*
X141156813Y-87656771D01*
X141156815Y-87656768D01*
X141156819Y-87656766D01*
X141301566Y-87512019D01*
X141301568Y-87512015D01*
X141301571Y-87512013D01*
X141364941Y-87424790D01*
X141421887Y-87346410D01*
X141514820Y-87164019D01*
X141578077Y-86969334D01*
X141610100Y-86767152D01*
X141610100Y-86562448D01*
X141594066Y-86461217D01*
X141578077Y-86360265D01*
X141514818Y-86165576D01*
X141447821Y-86034089D01*
X141421887Y-85983190D01*
X141409254Y-85965803D01*
X141333782Y-85861922D01*
X141310302Y-85796116D01*
X141310100Y-85789037D01*
X141310100Y-83444181D01*
X141329785Y-83377142D01*
X141346414Y-83356505D01*
X143642309Y-81060609D01*
X143703630Y-81027126D01*
X143746170Y-81025353D01*
X143907106Y-81046540D01*
X143921973Y-81048498D01*
X143921989Y-81048500D01*
X143921996Y-81048500D01*
X144158004Y-81048500D01*
X144158011Y-81048500D01*
X144392014Y-81017693D01*
X144619993Y-80956606D01*
X144838049Y-80866284D01*
X145042450Y-80748273D01*
X145229699Y-80604592D01*
X145229704Y-80604587D01*
X145284648Y-80549644D01*
X145396587Y-80437704D01*
X145396592Y-80437699D01*
X145540273Y-80250450D01*
X145658284Y-80046049D01*
X145748606Y-79827993D01*
X145809693Y-79600014D01*
X145840500Y-79366011D01*
X145840500Y-79130014D01*
X147320000Y-79130014D01*
X147320000Y-79365985D01*
X147350799Y-79599914D01*
X147411870Y-79827837D01*
X147502160Y-80045819D01*
X147502165Y-80045828D01*
X147620144Y-80250171D01*
X147620145Y-80250172D01*
X147682721Y-80331723D01*
X148518958Y-79495487D01*
X148543978Y-79555890D01*
X148615112Y-79662351D01*
X148705649Y-79752888D01*
X148812110Y-79824022D01*
X148872511Y-79849041D01*
X148036275Y-80685277D01*
X148117827Y-80747854D01*
X148117828Y-80747855D01*
X148322171Y-80865834D01*
X148322180Y-80865839D01*
X148540163Y-80956129D01*
X148540161Y-80956129D01*
X148768085Y-81017200D01*
X149002014Y-81047999D01*
X149002029Y-81048000D01*
X149237971Y-81048000D01*
X149237985Y-81047999D01*
X149471914Y-81017200D01*
X149699837Y-80956129D01*
X149917819Y-80865839D01*
X149917828Y-80865834D01*
X150122181Y-80747850D01*
X150203723Y-80685279D01*
X150203723Y-80685276D01*
X149367487Y-79849041D01*
X149427890Y-79824022D01*
X149534351Y-79752888D01*
X149624888Y-79662351D01*
X149696022Y-79555890D01*
X149721041Y-79495488D01*
X150557276Y-80331723D01*
X150557279Y-80331723D01*
X150619850Y-80250181D01*
X150737834Y-80045828D01*
X150737839Y-80045819D01*
X150828129Y-79827837D01*
X150889200Y-79599914D01*
X150919999Y-79365985D01*
X150920000Y-79365971D01*
X150920000Y-79130028D01*
X150919999Y-79130014D01*
X150889200Y-78896085D01*
X150828129Y-78668162D01*
X150737839Y-78450180D01*
X150737834Y-78450171D01*
X150619855Y-78245828D01*
X150619854Y-78245827D01*
X150557277Y-78164275D01*
X149721041Y-79000511D01*
X149696022Y-78940110D01*
X149624888Y-78833649D01*
X149534351Y-78743112D01*
X149427890Y-78671978D01*
X149367488Y-78646958D01*
X150203723Y-77810721D01*
X150122172Y-77748145D01*
X150122171Y-77748144D01*
X149917828Y-77630165D01*
X149917819Y-77630160D01*
X149699836Y-77539870D01*
X149699838Y-77539870D01*
X149471914Y-77478799D01*
X149237985Y-77448000D01*
X149002014Y-77448000D01*
X148768085Y-77478799D01*
X148540162Y-77539870D01*
X148322180Y-77630160D01*
X148322171Y-77630165D01*
X148117828Y-77748144D01*
X148117818Y-77748150D01*
X148036275Y-77810720D01*
X148036275Y-77810721D01*
X148872512Y-78646958D01*
X148812110Y-78671978D01*
X148705649Y-78743112D01*
X148615112Y-78833649D01*
X148543978Y-78940110D01*
X148518958Y-79000511D01*
X147682721Y-78164275D01*
X147682720Y-78164275D01*
X147620150Y-78245818D01*
X147620144Y-78245828D01*
X147502165Y-78450171D01*
X147502160Y-78450180D01*
X147411870Y-78668162D01*
X147350799Y-78896085D01*
X147320000Y-79130014D01*
X145840500Y-79130014D01*
X145840500Y-79129989D01*
X145809693Y-78895986D01*
X145748606Y-78668007D01*
X145658284Y-78449951D01*
X145658282Y-78449948D01*
X145658280Y-78449943D01*
X145616118Y-78376918D01*
X145540273Y-78245550D01*
X145396592Y-78058301D01*
X145396587Y-78058295D01*
X145229704Y-77891412D01*
X145229697Y-77891406D01*
X145042454Y-77747730D01*
X145042453Y-77747729D01*
X145042450Y-77747727D01*
X144960957Y-77700677D01*
X144838056Y-77629719D01*
X144838045Y-77629714D01*
X144619993Y-77539394D01*
X144392010Y-77478306D01*
X144158020Y-77447501D01*
X144158017Y-77447500D01*
X144158011Y-77447500D01*
X143921989Y-77447500D01*
X143921983Y-77447500D01*
X143921979Y-77447501D01*
X143687989Y-77478306D01*
X143460006Y-77539394D01*
X143241954Y-77629714D01*
X143241943Y-77629719D01*
X143037545Y-77747730D01*
X142850302Y-77891406D01*
X142850295Y-77891412D01*
X142683412Y-78058295D01*
X142683406Y-78058302D01*
X142539730Y-78245545D01*
X142539727Y-78245549D01*
X142539727Y-78245550D01*
X142532014Y-78258909D01*
X142421719Y-78449943D01*
X142421714Y-78449954D01*
X142331394Y-78668006D01*
X142270306Y-78895989D01*
X142239501Y-79129979D01*
X142239500Y-79129995D01*
X142239500Y-79366004D01*
X142239501Y-79366021D01*
X142262646Y-79541824D01*
X142251880Y-79610859D01*
X142227388Y-79645690D01*
X139822400Y-82050678D01*
X139803610Y-82066099D01*
X139671818Y-82154160D01*
X139671814Y-82154163D01*
X139532463Y-82293514D01*
X139532460Y-82293518D01*
X139422971Y-82457379D01*
X139422964Y-82457392D01*
X139347550Y-82639460D01*
X139347547Y-82639470D01*
X139309100Y-82832756D01*
X139309100Y-85789037D01*
X139289415Y-85856076D01*
X139285418Y-85861922D01*
X139197315Y-85983186D01*
X139104381Y-86165576D01*
X139041122Y-86360265D01*
X139009100Y-86562448D01*
X136542900Y-86562448D01*
X136542900Y-75293713D01*
X137199500Y-75293713D01*
X137199500Y-75506286D01*
X137232753Y-75716239D01*
X137298444Y-75918414D01*
X137394951Y-76107820D01*
X137519890Y-76279786D01*
X137670213Y-76430109D01*
X137842179Y-76555048D01*
X137842181Y-76555049D01*
X137842184Y-76555051D01*
X138031588Y-76651557D01*
X138233757Y-76717246D01*
X138443713Y-76750500D01*
X138443714Y-76750500D01*
X138656286Y-76750500D01*
X138656287Y-76750500D01*
X138866243Y-76717246D01*
X139068412Y-76651557D01*
X139257816Y-76555051D01*
X139279789Y-76539086D01*
X139429786Y-76430109D01*
X139429788Y-76430106D01*
X139429792Y-76430104D01*
X139580104Y-76279792D01*
X139580106Y-76279788D01*
X139580109Y-76279786D01*
X139705048Y-76107820D01*
X139705047Y-76107820D01*
X139705051Y-76107816D01*
X139801557Y-75918412D01*
X139867246Y-75716243D01*
X139900500Y-75506287D01*
X139900500Y-75293713D01*
X158364700Y-75293713D01*
X158364700Y-75506286D01*
X158397953Y-75716239D01*
X158463644Y-75918414D01*
X158560151Y-76107820D01*
X158685090Y-76279786D01*
X158835413Y-76430109D01*
X159007379Y-76555048D01*
X159007381Y-76555049D01*
X159007384Y-76555051D01*
X159196788Y-76651557D01*
X159398957Y-76717246D01*
X159608913Y-76750500D01*
X159608914Y-76750500D01*
X159821486Y-76750500D01*
X159821487Y-76750500D01*
X160031443Y-76717246D01*
X160233612Y-76651557D01*
X160423016Y-76555051D01*
X160444989Y-76539086D01*
X160594986Y-76430109D01*
X160594988Y-76430106D01*
X160594992Y-76430104D01*
X160745304Y-76279792D01*
X160745306Y-76279788D01*
X160745309Y-76279786D01*
X160870248Y-76107820D01*
X160870247Y-76107820D01*
X160870251Y-76107816D01*
X160966757Y-75918412D01*
X161032446Y-75716243D01*
X161065700Y-75506287D01*
X161065700Y-75293713D01*
X161032446Y-75083757D01*
X160966757Y-74881588D01*
X160870251Y-74692184D01*
X160870249Y-74692181D01*
X160870248Y-74692179D01*
X160745309Y-74520213D01*
X160594986Y-74369890D01*
X160423020Y-74244951D01*
X160233614Y-74148444D01*
X160233613Y-74148443D01*
X160233612Y-74148443D01*
X160031443Y-74082754D01*
X160031441Y-74082753D01*
X160031440Y-74082753D01*
X159870157Y-74057208D01*
X159821487Y-74049500D01*
X159608913Y-74049500D01*
X159560242Y-74057208D01*
X159398960Y-74082753D01*
X159196785Y-74148444D01*
X159007379Y-74244951D01*
X158835413Y-74369890D01*
X158685090Y-74520213D01*
X158560151Y-74692179D01*
X158463644Y-74881585D01*
X158397953Y-75083760D01*
X158364700Y-75293713D01*
X139900500Y-75293713D01*
X139867246Y-75083757D01*
X139801557Y-74881588D01*
X139705051Y-74692184D01*
X139705049Y-74692181D01*
X139705048Y-74692179D01*
X139580109Y-74520213D01*
X139429786Y-74369890D01*
X139257820Y-74244951D01*
X139068414Y-74148444D01*
X139068413Y-74148443D01*
X139068412Y-74148443D01*
X138866243Y-74082754D01*
X138866241Y-74082753D01*
X138866240Y-74082753D01*
X138704957Y-74057208D01*
X138656287Y-74049500D01*
X138443713Y-74049500D01*
X138395042Y-74057208D01*
X138233760Y-74082753D01*
X138031585Y-74148444D01*
X137842179Y-74244951D01*
X137670213Y-74369890D01*
X137519890Y-74520213D01*
X137394951Y-74692179D01*
X137298444Y-74881585D01*
X137232753Y-75083760D01*
X137199500Y-75293713D01*
X136542900Y-75293713D01*
X136542900Y-75102427D01*
X136543216Y-75093581D01*
X136543919Y-75083757D01*
X136559565Y-74864977D01*
X136562083Y-74847470D01*
X136606142Y-74644937D01*
X136609859Y-74627851D01*
X136614836Y-74610900D01*
X136693385Y-74400299D01*
X136700725Y-74384227D01*
X136808444Y-74186956D01*
X136818000Y-74172086D01*
X136952694Y-73992156D01*
X136964268Y-73978799D01*
X137123199Y-73819868D01*
X137136556Y-73808294D01*
X137316486Y-73673600D01*
X137331356Y-73664044D01*
X137528627Y-73556325D01*
X137544699Y-73548985D01*
X137755300Y-73470436D01*
X137772251Y-73465459D01*
X137991872Y-73417682D01*
X138009377Y-73415165D01*
X138237982Y-73398816D01*
X138246828Y-73398500D01*
X138308292Y-73398500D01*
X159776508Y-73398500D01*
X159837972Y-73398500D01*
X159846818Y-73398816D01*
G37*
%TD.AperFunction*%
%TD*%
M02*
