%TF.GenerationSoftware,KiCad,Pcbnew,9.0.4*%
%TF.CreationDate,2026-02-05T16:56:58-03:00*%
%TF.ProjectId,relay_module_12v_optocoupler,72656c61-795f-46d6-9f64-756c655f3132,rev?*%
%TF.SameCoordinates,Original*%
%TF.FileFunction,Legend,Top*%
%TF.FilePolarity,Positive*%
%FSLAX46Y46*%
G04 Gerber Fmt 4.6, Leading zero omitted, Abs format (unit mm)*
G04 Created by KiCad (PCBNEW 9.0.4) date 2026-02-05 16:56:58*
%MOMM*%
%LPD*%
G01*
G04 APERTURE LIST*
%ADD10C,0.150000*%
%ADD11C,0.000000*%
%ADD12C,0.120000*%
G04 APERTURE END LIST*
D10*
X161184295Y-107422792D02*
X160803342Y-107756125D01*
X161184295Y-107994220D02*
X160384295Y-107994220D01*
X160384295Y-107994220D02*
X160384295Y-107613268D01*
X160384295Y-107613268D02*
X160422390Y-107518030D01*
X160422390Y-107518030D02*
X160460485Y-107470411D01*
X160460485Y-107470411D02*
X160536676Y-107422792D01*
X160536676Y-107422792D02*
X160650961Y-107422792D01*
X160650961Y-107422792D02*
X160727152Y-107470411D01*
X160727152Y-107470411D02*
X160765247Y-107518030D01*
X160765247Y-107518030D02*
X160803342Y-107613268D01*
X160803342Y-107613268D02*
X160803342Y-107994220D01*
X161146200Y-106613268D02*
X161184295Y-106708506D01*
X161184295Y-106708506D02*
X161184295Y-106898982D01*
X161184295Y-106898982D02*
X161146200Y-106994220D01*
X161146200Y-106994220D02*
X161070009Y-107041839D01*
X161070009Y-107041839D02*
X160765247Y-107041839D01*
X160765247Y-107041839D02*
X160689057Y-106994220D01*
X160689057Y-106994220D02*
X160650961Y-106898982D01*
X160650961Y-106898982D02*
X160650961Y-106708506D01*
X160650961Y-106708506D02*
X160689057Y-106613268D01*
X160689057Y-106613268D02*
X160765247Y-106565649D01*
X160765247Y-106565649D02*
X160841438Y-106565649D01*
X160841438Y-106565649D02*
X160917628Y-107041839D01*
X161184295Y-105994220D02*
X161146200Y-106089458D01*
X161146200Y-106089458D02*
X161070009Y-106137077D01*
X161070009Y-106137077D02*
X160384295Y-106137077D01*
X161184295Y-105184696D02*
X160765247Y-105184696D01*
X160765247Y-105184696D02*
X160689057Y-105232315D01*
X160689057Y-105232315D02*
X160650961Y-105327553D01*
X160650961Y-105327553D02*
X160650961Y-105518029D01*
X160650961Y-105518029D02*
X160689057Y-105613267D01*
X161146200Y-105184696D02*
X161184295Y-105279934D01*
X161184295Y-105279934D02*
X161184295Y-105518029D01*
X161184295Y-105518029D02*
X161146200Y-105613267D01*
X161146200Y-105613267D02*
X161070009Y-105660886D01*
X161070009Y-105660886D02*
X160993819Y-105660886D01*
X160993819Y-105660886D02*
X160917628Y-105613267D01*
X160917628Y-105613267D02*
X160879533Y-105518029D01*
X160879533Y-105518029D02*
X160879533Y-105279934D01*
X160879533Y-105279934D02*
X160841438Y-105184696D01*
X160650961Y-104803743D02*
X161184295Y-104565648D01*
X160650961Y-104327553D02*
X161184295Y-104565648D01*
X161184295Y-104565648D02*
X161374771Y-104660886D01*
X161374771Y-104660886D02*
X161412866Y-104708505D01*
X161412866Y-104708505D02*
X161450961Y-104803743D01*
X161184295Y-103184695D02*
X160650961Y-103184695D01*
X160727152Y-103184695D02*
X160689057Y-103137076D01*
X160689057Y-103137076D02*
X160650961Y-103041838D01*
X160650961Y-103041838D02*
X160650961Y-102898981D01*
X160650961Y-102898981D02*
X160689057Y-102803743D01*
X160689057Y-102803743D02*
X160765247Y-102756124D01*
X160765247Y-102756124D02*
X161184295Y-102756124D01*
X160765247Y-102756124D02*
X160689057Y-102708505D01*
X160689057Y-102708505D02*
X160650961Y-102613267D01*
X160650961Y-102613267D02*
X160650961Y-102470410D01*
X160650961Y-102470410D02*
X160689057Y-102375171D01*
X160689057Y-102375171D02*
X160765247Y-102327552D01*
X160765247Y-102327552D02*
X161184295Y-102327552D01*
X161184295Y-101708505D02*
X161146200Y-101803743D01*
X161146200Y-101803743D02*
X161108104Y-101851362D01*
X161108104Y-101851362D02*
X161031914Y-101898981D01*
X161031914Y-101898981D02*
X160803342Y-101898981D01*
X160803342Y-101898981D02*
X160727152Y-101851362D01*
X160727152Y-101851362D02*
X160689057Y-101803743D01*
X160689057Y-101803743D02*
X160650961Y-101708505D01*
X160650961Y-101708505D02*
X160650961Y-101565648D01*
X160650961Y-101565648D02*
X160689057Y-101470410D01*
X160689057Y-101470410D02*
X160727152Y-101422791D01*
X160727152Y-101422791D02*
X160803342Y-101375172D01*
X160803342Y-101375172D02*
X161031914Y-101375172D01*
X161031914Y-101375172D02*
X161108104Y-101422791D01*
X161108104Y-101422791D02*
X161146200Y-101470410D01*
X161146200Y-101470410D02*
X161184295Y-101565648D01*
X161184295Y-101565648D02*
X161184295Y-101708505D01*
X161184295Y-100518029D02*
X160384295Y-100518029D01*
X161146200Y-100518029D02*
X161184295Y-100613267D01*
X161184295Y-100613267D02*
X161184295Y-100803743D01*
X161184295Y-100803743D02*
X161146200Y-100898981D01*
X161146200Y-100898981D02*
X161108104Y-100946600D01*
X161108104Y-100946600D02*
X161031914Y-100994219D01*
X161031914Y-100994219D02*
X160803342Y-100994219D01*
X160803342Y-100994219D02*
X160727152Y-100946600D01*
X160727152Y-100946600D02*
X160689057Y-100898981D01*
X160689057Y-100898981D02*
X160650961Y-100803743D01*
X160650961Y-100803743D02*
X160650961Y-100613267D01*
X160650961Y-100613267D02*
X160689057Y-100518029D01*
X160650961Y-99613267D02*
X161184295Y-99613267D01*
X160650961Y-100041838D02*
X161070009Y-100041838D01*
X161070009Y-100041838D02*
X161146200Y-99994219D01*
X161146200Y-99994219D02*
X161184295Y-99898981D01*
X161184295Y-99898981D02*
X161184295Y-99756124D01*
X161184295Y-99756124D02*
X161146200Y-99660886D01*
X161146200Y-99660886D02*
X161108104Y-99613267D01*
X161184295Y-98994219D02*
X161146200Y-99089457D01*
X161146200Y-99089457D02*
X161070009Y-99137076D01*
X161070009Y-99137076D02*
X160384295Y-99137076D01*
X161146200Y-98232314D02*
X161184295Y-98327552D01*
X161184295Y-98327552D02*
X161184295Y-98518028D01*
X161184295Y-98518028D02*
X161146200Y-98613266D01*
X161146200Y-98613266D02*
X161070009Y-98660885D01*
X161070009Y-98660885D02*
X160765247Y-98660885D01*
X160765247Y-98660885D02*
X160689057Y-98613266D01*
X160689057Y-98613266D02*
X160650961Y-98518028D01*
X160650961Y-98518028D02*
X160650961Y-98327552D01*
X160650961Y-98327552D02*
X160689057Y-98232314D01*
X160689057Y-98232314D02*
X160765247Y-98184695D01*
X160765247Y-98184695D02*
X160841438Y-98184695D01*
X160841438Y-98184695D02*
X160917628Y-98660885D01*
X160384295Y-96803742D02*
X160384295Y-96613266D01*
X160384295Y-96613266D02*
X160422390Y-96518028D01*
X160422390Y-96518028D02*
X160498580Y-96422790D01*
X160498580Y-96422790D02*
X160650961Y-96375171D01*
X160650961Y-96375171D02*
X160917628Y-96375171D01*
X160917628Y-96375171D02*
X161070009Y-96422790D01*
X161070009Y-96422790D02*
X161146200Y-96518028D01*
X161146200Y-96518028D02*
X161184295Y-96613266D01*
X161184295Y-96613266D02*
X161184295Y-96803742D01*
X161184295Y-96803742D02*
X161146200Y-96898980D01*
X161146200Y-96898980D02*
X161070009Y-96994218D01*
X161070009Y-96994218D02*
X160917628Y-97041837D01*
X160917628Y-97041837D02*
X160650961Y-97041837D01*
X160650961Y-97041837D02*
X160498580Y-96994218D01*
X160498580Y-96994218D02*
X160422390Y-96898980D01*
X160422390Y-96898980D02*
X160384295Y-96803742D01*
X161184295Y-95946599D02*
X160384295Y-95946599D01*
X160384295Y-95946599D02*
X160384295Y-95565647D01*
X160384295Y-95565647D02*
X160422390Y-95470409D01*
X160422390Y-95470409D02*
X160460485Y-95422790D01*
X160460485Y-95422790D02*
X160536676Y-95375171D01*
X160536676Y-95375171D02*
X160650961Y-95375171D01*
X160650961Y-95375171D02*
X160727152Y-95422790D01*
X160727152Y-95422790D02*
X160765247Y-95470409D01*
X160765247Y-95470409D02*
X160803342Y-95565647D01*
X160803342Y-95565647D02*
X160803342Y-95946599D01*
X160384295Y-95089456D02*
X160384295Y-94518028D01*
X161184295Y-94803742D02*
X160384295Y-94803742D01*
X161184295Y-94279932D02*
X160650961Y-93756123D01*
X160650961Y-94279932D02*
X161184295Y-93756123D01*
X161184295Y-92851361D02*
X161184295Y-93422789D01*
X161184295Y-93137075D02*
X160384295Y-93137075D01*
X160384295Y-93137075D02*
X160498580Y-93232313D01*
X160498580Y-93232313D02*
X160574771Y-93327551D01*
X160574771Y-93327551D02*
X160612866Y-93422789D01*
X160650961Y-91756122D02*
X161184295Y-91518027D01*
X161184295Y-91518027D02*
X160650961Y-91279932D01*
X161184295Y-90375170D02*
X161184295Y-90946598D01*
X161184295Y-90660884D02*
X160384295Y-90660884D01*
X160384295Y-90660884D02*
X160498580Y-90756122D01*
X160498580Y-90756122D02*
X160574771Y-90851360D01*
X160574771Y-90851360D02*
X160612866Y-90946598D01*
X161108104Y-89946598D02*
X161146200Y-89898979D01*
X161146200Y-89898979D02*
X161184295Y-89946598D01*
X161184295Y-89946598D02*
X161146200Y-89994217D01*
X161146200Y-89994217D02*
X161108104Y-89946598D01*
X161108104Y-89946598D02*
X161184295Y-89946598D01*
X160384295Y-89279932D02*
X160384295Y-89184694D01*
X160384295Y-89184694D02*
X160422390Y-89089456D01*
X160422390Y-89089456D02*
X160460485Y-89041837D01*
X160460485Y-89041837D02*
X160536676Y-88994218D01*
X160536676Y-88994218D02*
X160689057Y-88946599D01*
X160689057Y-88946599D02*
X160879533Y-88946599D01*
X160879533Y-88946599D02*
X161031914Y-88994218D01*
X161031914Y-88994218D02*
X161108104Y-89041837D01*
X161108104Y-89041837D02*
X161146200Y-89089456D01*
X161146200Y-89089456D02*
X161184295Y-89184694D01*
X161184295Y-89184694D02*
X161184295Y-89279932D01*
X161184295Y-89279932D02*
X161146200Y-89375170D01*
X161146200Y-89375170D02*
X161108104Y-89422789D01*
X161108104Y-89422789D02*
X161031914Y-89470408D01*
X161031914Y-89470408D02*
X160879533Y-89518027D01*
X160879533Y-89518027D02*
X160689057Y-89518027D01*
X160689057Y-89518027D02*
X160536676Y-89470408D01*
X160536676Y-89470408D02*
X160460485Y-89422789D01*
X160460485Y-89422789D02*
X160422390Y-89375170D01*
X160422390Y-89375170D02*
X160384295Y-89279932D01*
D11*
G36*
X159340001Y-82212001D02*
G01*
X161290000Y-82212001D01*
X161290000Y-82962001D01*
X161140000Y-82962001D01*
X159340001Y-82962001D01*
X159340001Y-83787001D01*
X158890001Y-83787001D01*
X158890001Y-82662001D01*
X159490001Y-82662001D01*
X161140000Y-82662001D01*
X161140000Y-82512001D01*
X159490001Y-82512001D01*
X159490001Y-82662001D01*
X158890001Y-82662001D01*
X158890001Y-81387002D01*
X159340001Y-81387002D01*
X159340001Y-82212001D01*
G37*
G36*
X161290000Y-85137001D02*
G01*
X160390001Y-85887001D01*
X161290000Y-85887001D01*
X161290000Y-86487000D01*
X160990001Y-86487000D01*
X158890001Y-86487000D01*
X158890001Y-86187001D01*
X159190001Y-86187001D01*
X160990001Y-86187001D01*
X160990001Y-86037001D01*
X159190001Y-86037001D01*
X159190001Y-86187001D01*
X158890001Y-86187001D01*
X158890001Y-85887001D01*
X159790001Y-85887001D01*
X158890001Y-85137001D01*
X158890001Y-84537001D01*
X160090001Y-85587001D01*
X161290000Y-84537001D01*
X161290000Y-85137001D01*
G37*
G36*
X159340001Y-79887002D02*
G01*
X159790001Y-79887002D01*
X159790001Y-78837002D01*
X160390001Y-78837002D01*
X160840001Y-78837002D01*
X160840001Y-78687002D01*
X160390001Y-78687002D01*
X160390001Y-78837002D01*
X159790001Y-78837002D01*
X159790001Y-78387002D01*
X161290000Y-78387002D01*
X161290000Y-80487002D01*
X160840001Y-80487002D01*
X160840001Y-78987002D01*
X160390001Y-78987002D01*
X160390001Y-80487002D01*
X159790001Y-80487002D01*
X158890001Y-80487002D01*
X158890001Y-80187002D01*
X159340001Y-80187002D01*
X159790001Y-80187002D01*
X159790001Y-80037002D01*
X159340001Y-80037002D01*
X159340001Y-80187002D01*
X158890001Y-80187002D01*
X158890001Y-78387002D01*
X159340001Y-78387002D01*
X159340001Y-79887002D01*
G37*
D10*
X150533551Y-73170704D02*
X150533551Y-73970704D01*
X150533551Y-73970704D02*
X150295456Y-73970704D01*
X150295456Y-73970704D02*
X150152599Y-73932609D01*
X150152599Y-73932609D02*
X150057361Y-73856419D01*
X150057361Y-73856419D02*
X150009742Y-73780228D01*
X150009742Y-73780228D02*
X149962123Y-73627847D01*
X149962123Y-73627847D02*
X149962123Y-73513561D01*
X149962123Y-73513561D02*
X150009742Y-73361180D01*
X150009742Y-73361180D02*
X150057361Y-73284990D01*
X150057361Y-73284990D02*
X150152599Y-73208800D01*
X150152599Y-73208800D02*
X150295456Y-73170704D01*
X150295456Y-73170704D02*
X150533551Y-73170704D01*
X148962123Y-73246895D02*
X149009742Y-73208800D01*
X149009742Y-73208800D02*
X149152599Y-73170704D01*
X149152599Y-73170704D02*
X149247837Y-73170704D01*
X149247837Y-73170704D02*
X149390694Y-73208800D01*
X149390694Y-73208800D02*
X149485932Y-73284990D01*
X149485932Y-73284990D02*
X149533551Y-73361180D01*
X149533551Y-73361180D02*
X149581170Y-73513561D01*
X149581170Y-73513561D02*
X149581170Y-73627847D01*
X149581170Y-73627847D02*
X149533551Y-73780228D01*
X149533551Y-73780228D02*
X149485932Y-73856419D01*
X149485932Y-73856419D02*
X149390694Y-73932609D01*
X149390694Y-73932609D02*
X149247837Y-73970704D01*
X149247837Y-73970704D02*
X149152599Y-73970704D01*
X149152599Y-73970704D02*
X149009742Y-73932609D01*
X149009742Y-73932609D02*
X148962123Y-73894514D01*
X148533551Y-73475466D02*
X147771647Y-73475466D01*
X154752608Y-73170704D02*
X154752608Y-73970704D01*
X154276418Y-73170704D02*
X154276418Y-73970704D01*
X154276418Y-73970704D02*
X153704990Y-73170704D01*
X153704990Y-73170704D02*
X153704990Y-73970704D01*
X142902380Y-139554295D02*
X142902380Y-138754295D01*
X142902380Y-138754295D02*
X143473808Y-139554295D01*
X143473808Y-139554295D02*
X143473808Y-138754295D01*
X144140475Y-138754295D02*
X144330951Y-138754295D01*
X144330951Y-138754295D02*
X144426189Y-138792390D01*
X144426189Y-138792390D02*
X144521427Y-138868580D01*
X144521427Y-138868580D02*
X144569046Y-139020961D01*
X144569046Y-139020961D02*
X144569046Y-139287628D01*
X144569046Y-139287628D02*
X144521427Y-139440009D01*
X144521427Y-139440009D02*
X144426189Y-139516200D01*
X144426189Y-139516200D02*
X144330951Y-139554295D01*
X144330951Y-139554295D02*
X144140475Y-139554295D01*
X144140475Y-139554295D02*
X144045237Y-139516200D01*
X144045237Y-139516200D02*
X143949999Y-139440009D01*
X143949999Y-139440009D02*
X143902380Y-139287628D01*
X143902380Y-139287628D02*
X143902380Y-139020961D01*
X143902380Y-139020961D02*
X143949999Y-138868580D01*
X143949999Y-138868580D02*
X144045237Y-138792390D01*
X144045237Y-138792390D02*
X144140475Y-138754295D01*
X153464286Y-139554295D02*
X153464286Y-138754295D01*
X153464286Y-138754295D02*
X154035714Y-139554295D01*
X154035714Y-139554295D02*
X154035714Y-138754295D01*
X155083333Y-139478104D02*
X155035714Y-139516200D01*
X155035714Y-139516200D02*
X154892857Y-139554295D01*
X154892857Y-139554295D02*
X154797619Y-139554295D01*
X154797619Y-139554295D02*
X154654762Y-139516200D01*
X154654762Y-139516200D02*
X154559524Y-139440009D01*
X154559524Y-139440009D02*
X154511905Y-139363819D01*
X154511905Y-139363819D02*
X154464286Y-139211438D01*
X154464286Y-139211438D02*
X154464286Y-139097152D01*
X154464286Y-139097152D02*
X154511905Y-138944771D01*
X154511905Y-138944771D02*
X154559524Y-138868580D01*
X154559524Y-138868580D02*
X154654762Y-138792390D01*
X154654762Y-138792390D02*
X154797619Y-138754295D01*
X154797619Y-138754295D02*
X154892857Y-138754295D01*
X154892857Y-138754295D02*
X155035714Y-138792390D01*
X155035714Y-138792390D02*
X155083333Y-138830485D01*
X148312285Y-139478104D02*
X148264666Y-139516200D01*
X148264666Y-139516200D02*
X148121809Y-139554295D01*
X148121809Y-139554295D02*
X148026571Y-139554295D01*
X148026571Y-139554295D02*
X147883714Y-139516200D01*
X147883714Y-139516200D02*
X147788476Y-139440009D01*
X147788476Y-139440009D02*
X147740857Y-139363819D01*
X147740857Y-139363819D02*
X147693238Y-139211438D01*
X147693238Y-139211438D02*
X147693238Y-139097152D01*
X147693238Y-139097152D02*
X147740857Y-138944771D01*
X147740857Y-138944771D02*
X147788476Y-138868580D01*
X147788476Y-138868580D02*
X147883714Y-138792390D01*
X147883714Y-138792390D02*
X148026571Y-138754295D01*
X148026571Y-138754295D02*
X148121809Y-138754295D01*
X148121809Y-138754295D02*
X148264666Y-138792390D01*
X148264666Y-138792390D02*
X148312285Y-138830485D01*
X148931333Y-138754295D02*
X149121809Y-138754295D01*
X149121809Y-138754295D02*
X149217047Y-138792390D01*
X149217047Y-138792390D02*
X149312285Y-138868580D01*
X149312285Y-138868580D02*
X149359904Y-139020961D01*
X149359904Y-139020961D02*
X149359904Y-139287628D01*
X149359904Y-139287628D02*
X149312285Y-139440009D01*
X149312285Y-139440009D02*
X149217047Y-139516200D01*
X149217047Y-139516200D02*
X149121809Y-139554295D01*
X149121809Y-139554295D02*
X148931333Y-139554295D01*
X148931333Y-139554295D02*
X148836095Y-139516200D01*
X148836095Y-139516200D02*
X148740857Y-139440009D01*
X148740857Y-139440009D02*
X148693238Y-139287628D01*
X148693238Y-139287628D02*
X148693238Y-139020961D01*
X148693238Y-139020961D02*
X148740857Y-138868580D01*
X148740857Y-138868580D02*
X148836095Y-138792390D01*
X148836095Y-138792390D02*
X148931333Y-138754295D01*
X149788476Y-139554295D02*
X149788476Y-138754295D01*
X149788476Y-138754295D02*
X150121809Y-139325723D01*
X150121809Y-139325723D02*
X150455142Y-138754295D01*
X150455142Y-138754295D02*
X150455142Y-139554295D01*
X145433551Y-73170704D02*
X145433551Y-73970704D01*
X145433551Y-73970704D02*
X145195456Y-73970704D01*
X145195456Y-73970704D02*
X145052599Y-73932609D01*
X145052599Y-73932609D02*
X144957361Y-73856419D01*
X144957361Y-73856419D02*
X144909742Y-73780228D01*
X144909742Y-73780228D02*
X144862123Y-73627847D01*
X144862123Y-73627847D02*
X144862123Y-73513561D01*
X144862123Y-73513561D02*
X144909742Y-73361180D01*
X144909742Y-73361180D02*
X144957361Y-73284990D01*
X144957361Y-73284990D02*
X145052599Y-73208800D01*
X145052599Y-73208800D02*
X145195456Y-73170704D01*
X145195456Y-73170704D02*
X145433551Y-73170704D01*
X143862123Y-73246895D02*
X143909742Y-73208800D01*
X143909742Y-73208800D02*
X144052599Y-73170704D01*
X144052599Y-73170704D02*
X144147837Y-73170704D01*
X144147837Y-73170704D02*
X144290694Y-73208800D01*
X144290694Y-73208800D02*
X144385932Y-73284990D01*
X144385932Y-73284990D02*
X144433551Y-73361180D01*
X144433551Y-73361180D02*
X144481170Y-73513561D01*
X144481170Y-73513561D02*
X144481170Y-73627847D01*
X144481170Y-73627847D02*
X144433551Y-73780228D01*
X144433551Y-73780228D02*
X144385932Y-73856419D01*
X144385932Y-73856419D02*
X144290694Y-73932609D01*
X144290694Y-73932609D02*
X144147837Y-73970704D01*
X144147837Y-73970704D02*
X144052599Y-73970704D01*
X144052599Y-73970704D02*
X143909742Y-73932609D01*
X143909742Y-73932609D02*
X143862123Y-73894514D01*
X143433551Y-73475466D02*
X142671647Y-73475466D01*
X143052599Y-73170704D02*
X143052599Y-73780228D01*
X137998361Y-101946857D02*
X137903123Y-101899238D01*
X137903123Y-101899238D02*
X137807885Y-101804000D01*
X137807885Y-101804000D02*
X137665028Y-101661142D01*
X137665028Y-101661142D02*
X137569790Y-101613523D01*
X137569790Y-101613523D02*
X137474552Y-101613523D01*
X137522171Y-101851619D02*
X137426933Y-101804000D01*
X137426933Y-101804000D02*
X137331695Y-101708761D01*
X137331695Y-101708761D02*
X137284076Y-101518285D01*
X137284076Y-101518285D02*
X137284076Y-101184952D01*
X137284076Y-101184952D02*
X137331695Y-100994476D01*
X137331695Y-100994476D02*
X137426933Y-100899238D01*
X137426933Y-100899238D02*
X137522171Y-100851619D01*
X137522171Y-100851619D02*
X137712647Y-100851619D01*
X137712647Y-100851619D02*
X137807885Y-100899238D01*
X137807885Y-100899238D02*
X137903123Y-100994476D01*
X137903123Y-100994476D02*
X137950742Y-101184952D01*
X137950742Y-101184952D02*
X137950742Y-101518285D01*
X137950742Y-101518285D02*
X137903123Y-101708761D01*
X137903123Y-101708761D02*
X137807885Y-101804000D01*
X137807885Y-101804000D02*
X137712647Y-101851619D01*
X137712647Y-101851619D02*
X137522171Y-101851619D01*
X138903123Y-101851619D02*
X138331695Y-101851619D01*
X138617409Y-101851619D02*
X138617409Y-100851619D01*
X138617409Y-100851619D02*
X138522171Y-100994476D01*
X138522171Y-100994476D02*
X138426933Y-101089714D01*
X138426933Y-101089714D02*
X138331695Y-101137333D01*
X143952933Y-87119619D02*
X143619600Y-86643428D01*
X143381505Y-87119619D02*
X143381505Y-86119619D01*
X143381505Y-86119619D02*
X143762457Y-86119619D01*
X143762457Y-86119619D02*
X143857695Y-86167238D01*
X143857695Y-86167238D02*
X143905314Y-86214857D01*
X143905314Y-86214857D02*
X143952933Y-86310095D01*
X143952933Y-86310095D02*
X143952933Y-86452952D01*
X143952933Y-86452952D02*
X143905314Y-86548190D01*
X143905314Y-86548190D02*
X143857695Y-86595809D01*
X143857695Y-86595809D02*
X143762457Y-86643428D01*
X143762457Y-86643428D02*
X143381505Y-86643428D01*
X144333886Y-86214857D02*
X144381505Y-86167238D01*
X144381505Y-86167238D02*
X144476743Y-86119619D01*
X144476743Y-86119619D02*
X144714838Y-86119619D01*
X144714838Y-86119619D02*
X144810076Y-86167238D01*
X144810076Y-86167238D02*
X144857695Y-86214857D01*
X144857695Y-86214857D02*
X144905314Y-86310095D01*
X144905314Y-86310095D02*
X144905314Y-86405333D01*
X144905314Y-86405333D02*
X144857695Y-86548190D01*
X144857695Y-86548190D02*
X144286267Y-87119619D01*
X144286267Y-87119619D02*
X144905314Y-87119619D01*
X139822505Y-97555119D02*
X139822505Y-96555119D01*
X139822505Y-96555119D02*
X140060600Y-96555119D01*
X140060600Y-96555119D02*
X140203457Y-96602738D01*
X140203457Y-96602738D02*
X140298695Y-96697976D01*
X140298695Y-96697976D02*
X140346314Y-96793214D01*
X140346314Y-96793214D02*
X140393933Y-96983690D01*
X140393933Y-96983690D02*
X140393933Y-97126547D01*
X140393933Y-97126547D02*
X140346314Y-97317023D01*
X140346314Y-97317023D02*
X140298695Y-97412261D01*
X140298695Y-97412261D02*
X140203457Y-97507500D01*
X140203457Y-97507500D02*
X140060600Y-97555119D01*
X140060600Y-97555119D02*
X139822505Y-97555119D01*
X140774886Y-96650357D02*
X140822505Y-96602738D01*
X140822505Y-96602738D02*
X140917743Y-96555119D01*
X140917743Y-96555119D02*
X141155838Y-96555119D01*
X141155838Y-96555119D02*
X141251076Y-96602738D01*
X141251076Y-96602738D02*
X141298695Y-96650357D01*
X141298695Y-96650357D02*
X141346314Y-96745595D01*
X141346314Y-96745595D02*
X141346314Y-96840833D01*
X141346314Y-96840833D02*
X141298695Y-96983690D01*
X141298695Y-96983690D02*
X140727267Y-97555119D01*
X140727267Y-97555119D02*
X141346314Y-97555119D01*
X151890505Y-101851619D02*
X151890505Y-100851619D01*
X151890505Y-100851619D02*
X152128600Y-100851619D01*
X152128600Y-100851619D02*
X152271457Y-100899238D01*
X152271457Y-100899238D02*
X152366695Y-100994476D01*
X152366695Y-100994476D02*
X152414314Y-101089714D01*
X152414314Y-101089714D02*
X152461933Y-101280190D01*
X152461933Y-101280190D02*
X152461933Y-101423047D01*
X152461933Y-101423047D02*
X152414314Y-101613523D01*
X152414314Y-101613523D02*
X152366695Y-101708761D01*
X152366695Y-101708761D02*
X152271457Y-101804000D01*
X152271457Y-101804000D02*
X152128600Y-101851619D01*
X152128600Y-101851619D02*
X151890505Y-101851619D01*
X153414314Y-101851619D02*
X152842886Y-101851619D01*
X153128600Y-101851619D02*
X153128600Y-100851619D01*
X153128600Y-100851619D02*
X153033362Y-100994476D01*
X153033362Y-100994476D02*
X152938124Y-101089714D01*
X152938124Y-101089714D02*
X152842886Y-101137333D01*
X154999419Y-90728704D02*
X155808942Y-90728704D01*
X155808942Y-90728704D02*
X155904180Y-90681085D01*
X155904180Y-90681085D02*
X155951800Y-90633466D01*
X155951800Y-90633466D02*
X155999419Y-90538228D01*
X155999419Y-90538228D02*
X155999419Y-90347752D01*
X155999419Y-90347752D02*
X155951800Y-90252514D01*
X155951800Y-90252514D02*
X155904180Y-90204895D01*
X155904180Y-90204895D02*
X155808942Y-90157276D01*
X155808942Y-90157276D02*
X154999419Y-90157276D01*
X155999419Y-89157276D02*
X155999419Y-89728704D01*
X155999419Y-89442990D02*
X154999419Y-89442990D01*
X154999419Y-89442990D02*
X155142276Y-89538228D01*
X155142276Y-89538228D02*
X155237514Y-89633466D01*
X155237514Y-89633466D02*
X155285133Y-89728704D01*
X148817066Y-82761519D02*
X148817066Y-83475804D01*
X148817066Y-83475804D02*
X148769447Y-83618661D01*
X148769447Y-83618661D02*
X148674209Y-83713900D01*
X148674209Y-83713900D02*
X148531352Y-83761519D01*
X148531352Y-83761519D02*
X148436114Y-83761519D01*
X149817066Y-83761519D02*
X149245638Y-83761519D01*
X149531352Y-83761519D02*
X149531352Y-82761519D01*
X149531352Y-82761519D02*
X149436114Y-82904376D01*
X149436114Y-82904376D02*
X149340876Y-82999614D01*
X149340876Y-82999614D02*
X149245638Y-83047233D01*
X153858933Y-97914619D02*
X153525600Y-97438428D01*
X153287505Y-97914619D02*
X153287505Y-96914619D01*
X153287505Y-96914619D02*
X153668457Y-96914619D01*
X153668457Y-96914619D02*
X153763695Y-96962238D01*
X153763695Y-96962238D02*
X153811314Y-97009857D01*
X153811314Y-97009857D02*
X153858933Y-97105095D01*
X153858933Y-97105095D02*
X153858933Y-97247952D01*
X153858933Y-97247952D02*
X153811314Y-97343190D01*
X153811314Y-97343190D02*
X153763695Y-97390809D01*
X153763695Y-97390809D02*
X153668457Y-97438428D01*
X153668457Y-97438428D02*
X153287505Y-97438428D01*
X154811314Y-97914619D02*
X154239886Y-97914619D01*
X154525600Y-97914619D02*
X154525600Y-96914619D01*
X154525600Y-96914619D02*
X154430362Y-97057476D01*
X154430362Y-97057476D02*
X154335124Y-97152714D01*
X154335124Y-97152714D02*
X154239886Y-97200333D01*
X143952933Y-90421619D02*
X143619600Y-89945428D01*
X143381505Y-90421619D02*
X143381505Y-89421619D01*
X143381505Y-89421619D02*
X143762457Y-89421619D01*
X143762457Y-89421619D02*
X143857695Y-89469238D01*
X143857695Y-89469238D02*
X143905314Y-89516857D01*
X143905314Y-89516857D02*
X143952933Y-89612095D01*
X143952933Y-89612095D02*
X143952933Y-89754952D01*
X143952933Y-89754952D02*
X143905314Y-89850190D01*
X143905314Y-89850190D02*
X143857695Y-89897809D01*
X143857695Y-89897809D02*
X143762457Y-89945428D01*
X143762457Y-89945428D02*
X143381505Y-89945428D01*
X144286267Y-89421619D02*
X144905314Y-89421619D01*
X144905314Y-89421619D02*
X144571981Y-89802571D01*
X144571981Y-89802571D02*
X144714838Y-89802571D01*
X144714838Y-89802571D02*
X144810076Y-89850190D01*
X144810076Y-89850190D02*
X144857695Y-89897809D01*
X144857695Y-89897809D02*
X144905314Y-89993047D01*
X144905314Y-89993047D02*
X144905314Y-90231142D01*
X144905314Y-90231142D02*
X144857695Y-90326380D01*
X144857695Y-90326380D02*
X144810076Y-90374000D01*
X144810076Y-90374000D02*
X144714838Y-90421619D01*
X144714838Y-90421619D02*
X144429124Y-90421619D01*
X144429124Y-90421619D02*
X144333886Y-90374000D01*
X144333886Y-90374000D02*
X144286267Y-90326380D01*
X154582905Y-106499819D02*
X154582905Y-105499819D01*
X155154333Y-106499819D02*
X154725762Y-105928390D01*
X155154333Y-105499819D02*
X154582905Y-106071247D01*
X156106714Y-106499819D02*
X155535286Y-106499819D01*
X155821000Y-106499819D02*
X155821000Y-105499819D01*
X155821000Y-105499819D02*
X155725762Y-105642676D01*
X155725762Y-105642676D02*
X155630524Y-105737914D01*
X155630524Y-105737914D02*
X155535286Y-105785533D01*
X148764666Y-136208419D02*
X148764666Y-136922704D01*
X148764666Y-136922704D02*
X148717047Y-137065561D01*
X148717047Y-137065561D02*
X148621809Y-137160800D01*
X148621809Y-137160800D02*
X148478952Y-137208419D01*
X148478952Y-137208419D02*
X148383714Y-137208419D01*
X149193238Y-136303657D02*
X149240857Y-136256038D01*
X149240857Y-136256038D02*
X149336095Y-136208419D01*
X149336095Y-136208419D02*
X149574190Y-136208419D01*
X149574190Y-136208419D02*
X149669428Y-136256038D01*
X149669428Y-136256038D02*
X149717047Y-136303657D01*
X149717047Y-136303657D02*
X149764666Y-136398895D01*
X149764666Y-136398895D02*
X149764666Y-136494133D01*
X149764666Y-136494133D02*
X149717047Y-136636990D01*
X149717047Y-136636990D02*
X149145619Y-137208419D01*
X149145619Y-137208419D02*
X149764666Y-137208419D01*
X143952933Y-93723619D02*
X143619600Y-93247428D01*
X143381505Y-93723619D02*
X143381505Y-92723619D01*
X143381505Y-92723619D02*
X143762457Y-92723619D01*
X143762457Y-92723619D02*
X143857695Y-92771238D01*
X143857695Y-92771238D02*
X143905314Y-92818857D01*
X143905314Y-92818857D02*
X143952933Y-92914095D01*
X143952933Y-92914095D02*
X143952933Y-93056952D01*
X143952933Y-93056952D02*
X143905314Y-93152190D01*
X143905314Y-93152190D02*
X143857695Y-93199809D01*
X143857695Y-93199809D02*
X143762457Y-93247428D01*
X143762457Y-93247428D02*
X143381505Y-93247428D01*
X144810076Y-93056952D02*
X144810076Y-93723619D01*
X144571981Y-92676000D02*
X144333886Y-93390285D01*
X144333886Y-93390285D02*
X144952933Y-93390285D01*
D12*
%TO.C,Q1*%
X143887600Y-99546800D02*
X140287600Y-99546800D01*
X142087600Y-103996800D02*
G75*
G02*
X140249122Y-99558322I0J2600000D01*
G01*
X143926078Y-99558322D02*
G75*
G02*
X142087600Y-103996801I-1838478J-1838478D01*
G01*
%TO.C,R2*%
X140849600Y-85294800D02*
X147389600Y-85294800D01*
X140849600Y-85624800D02*
X140849600Y-85294800D01*
X140849600Y-87704800D02*
X140849600Y-88034800D01*
X140849600Y-88034800D02*
X147389600Y-88034800D01*
X147389600Y-85294800D02*
X147389600Y-85624800D01*
X147389600Y-88034800D02*
X147389600Y-87704800D01*
%TO.C,D2*%
X142940600Y-95842800D02*
X142940600Y-95998800D01*
X142940600Y-98158800D02*
X142940600Y-98314800D01*
X142940600Y-95843284D02*
G75*
G02*
X146172037Y-95998800I1560000J-1235516D01*
G01*
X143459639Y-95998800D02*
G75*
G02*
X145541561Y-95998800I1040961J-1080000D01*
G01*
X145541561Y-98158800D02*
G75*
G02*
X143459639Y-98158800I-1040961J1080000D01*
G01*
X146172037Y-98158800D02*
G75*
G02*
X142940600Y-98314316I-1671437J1080000D01*
G01*
%TO.C,D1*%
X149015600Y-101396800D02*
X150035600Y-101396800D01*
X154455600Y-102866800D02*
X154455600Y-99926800D01*
X154575600Y-102866800D02*
X154575600Y-99926800D01*
X154695600Y-102866800D02*
X154695600Y-99926800D01*
X156495600Y-101396800D02*
X155475600Y-101396800D01*
X155475600Y-102866800D02*
X150035600Y-102866800D01*
X150035600Y-99926800D01*
X155475600Y-99926800D01*
X155475600Y-102866800D01*
%TO.C,U1*%
X152949600Y-87316800D02*
X152949600Y-92616800D01*
X152949600Y-92616800D02*
X158149600Y-92616800D01*
X158149600Y-87316800D02*
X152949600Y-87316800D01*
X158149600Y-88966800D02*
X158149600Y-87316800D01*
X158149600Y-92616800D02*
X158149600Y-90966800D01*
X158149600Y-90966800D02*
G75*
G02*
X158149600Y-88966800I0J1000000D01*
G01*
%TO.C,J1*%
X141380000Y-74528000D02*
X153900000Y-74528000D01*
X141380000Y-84568000D02*
X141380000Y-74528000D01*
X154500000Y-74528000D02*
X156860000Y-74528000D01*
X156860000Y-74528000D02*
X156860000Y-84568000D01*
X156860000Y-75148000D02*
X141380000Y-75148000D01*
X156860000Y-76648000D02*
X141380000Y-76648000D01*
X156860000Y-81548000D02*
X141380000Y-81548000D01*
X156860000Y-84568000D02*
X141380000Y-84568000D01*
X154200000Y-74528000D02*
X153760000Y-73918000D01*
X154640000Y-73918000D01*
X154200000Y-74528000D01*
G36*
X154200000Y-74528000D02*
G01*
X153760000Y-73918000D01*
X154640000Y-73918000D01*
X154200000Y-74528000D01*
G37*
%TO.C,R1*%
X150755600Y-95962800D02*
X150755600Y-96292800D01*
X150755600Y-98702800D02*
X150755600Y-98372800D01*
X157295600Y-95962800D02*
X150755600Y-95962800D01*
X157295600Y-96292800D02*
X157295600Y-95962800D01*
X157295600Y-98372800D02*
X157295600Y-98702800D01*
X157295600Y-98702800D02*
X150755600Y-98702800D01*
%TO.C,R3*%
X140849600Y-88596800D02*
X140849600Y-88926800D01*
X140849600Y-91336800D02*
X140849600Y-91006800D01*
X147389600Y-88596800D02*
X140849600Y-88596800D01*
X147389600Y-88926800D02*
X147389600Y-88596800D01*
X147389600Y-91006800D02*
X147389600Y-91336800D01*
X147389600Y-91336800D02*
X140849600Y-91336800D01*
%TO.C,K1*%
X157580600Y-127236600D02*
X157580600Y-104536600D01*
X157580600Y-104536600D02*
X140880600Y-104536600D01*
X150580600Y-109386600D02*
X153730600Y-109386600D01*
X149580600Y-109986600D02*
X149580600Y-108786600D01*
X149580600Y-108786600D02*
X148880600Y-108786600D01*
X148880600Y-109986600D02*
X149580600Y-109986600D01*
X148880600Y-109586600D02*
X149580600Y-109186600D01*
X148880600Y-108786600D02*
X148880600Y-109986600D01*
X148230600Y-104276600D02*
X150230600Y-104276600D01*
X144730600Y-109386600D02*
X147880600Y-109386600D01*
X140880600Y-127236600D02*
X157580600Y-127236600D01*
X140880600Y-104536600D02*
X140880600Y-127236600D01*
%TO.C,J2*%
X141358000Y-128030000D02*
X156838000Y-128030000D01*
X141358000Y-131050000D02*
X156838000Y-131050000D01*
X141358000Y-135950000D02*
X156838000Y-135950000D01*
X141358000Y-137450000D02*
X156838000Y-137450000D01*
X141358000Y-138070000D02*
X141358000Y-128030000D01*
X143718000Y-138070000D02*
X141358000Y-138070000D01*
X156838000Y-128030000D02*
X156838000Y-138070000D01*
X156838000Y-138070000D02*
X144318000Y-138070000D01*
X144458000Y-138680000D02*
X143578000Y-138680000D01*
X144018000Y-138070000D01*
X144458000Y-138680000D01*
G36*
X144458000Y-138680000D02*
G01*
X143578000Y-138680000D01*
X144018000Y-138070000D01*
X144458000Y-138680000D01*
G37*
%TO.C,R4*%
X140849600Y-91898800D02*
X140849600Y-92228800D01*
X140849600Y-94638800D02*
X140849600Y-94308800D01*
X147389600Y-91898800D02*
X140849600Y-91898800D01*
X147389600Y-92228800D02*
X147389600Y-91898800D01*
X147389600Y-94308800D02*
X147389600Y-94638800D01*
X147389600Y-94638800D02*
X140849600Y-94638800D01*
%TD*%
M02*
