M48
METRIC
T1C0.750
T2C0.800
T3C0.900
T4C1.100
T5C1.300
%
G90
G05
T1
X140.818Y-101.397
X142.088Y-101.397
X143.358Y-101.397
T2
X140.31Y-86.665
X140.31Y-89.967
X140.31Y-93.269
X147.93Y-86.665
X147.93Y-89.967
X147.93Y-93.269
X150.216Y-97.333
X154.28Y-86.157
X154.28Y-93.777
X156.82Y-86.157
X156.82Y-93.777
X157.836Y-97.333
T3
X143.231Y-97.079
X145.771Y-97.079
T4
X147.676Y-101.397
X157.836Y-101.397
T5
X143.231Y-109.187
X143.231Y-121.387
X144.018Y-133.35
X144.04Y-79.248
X149.098Y-133.35
X149.12Y-79.248
X149.231Y-107.187
X154.178Y-133.35
X154.2Y-79.248
X155.231Y-109.187
X155.231Y-121.387
M30
