M48
METRIC
T1C0.800
T2C1.000
T3C1.100
T4C1.300
%
G90
G05
T1
X112.88Y-75.0
X114.46Y-65.04
X115.75Y-81.5
X117.0Y-62.5
X118.25Y-81.5
X119.54Y-65.04
X120.5Y-75.0
X128.0Y-86.0
X130.5Y-86.0
T2
X125.5Y-64.0
X130.5Y-64.0
T3
X99.367Y-62.1
X99.367Y-70.0
X99.367Y-78.5
X99.367Y-86.5
X109.527Y-62.1
X109.527Y-70.0
X109.527Y-78.5
X109.527Y-86.5
X127.05Y-73.42
X127.05Y-75.96
X127.05Y-78.5
T4
X91.0Y-63.42
X91.0Y-68.5
X91.328Y-80.0
X91.328Y-85.08
M30
