%TF.GenerationSoftware,KiCad,Pcbnew,9.0.4*%
%TF.CreationDate,2026-02-02T16:53:59-03:00*%
%TF.ProjectId,relay_module_12v_optocoupler,72656c61-795f-46d6-9f64-756c655f3132,rev?*%
%TF.SameCoordinates,Original*%
%TF.FileFunction,Legend,Top*%
%TF.FilePolarity,Positive*%
%FSLAX46Y46*%
G04 Gerber Fmt 4.6, Leading zero omitted, Abs format (unit mm)*
G04 Created by KiCad (PCBNEW 9.0.4) date 2026-02-02 16:53:59*
%MOMM*%
%LPD*%
G01*
G04 APERTURE LIST*
%ADD10C,0.150000*%
%ADD11C,0.000000*%
%ADD12C,0.120000*%
G04 APERTURE END LIST*
D10*
X148312285Y-139309580D02*
X148264666Y-139357200D01*
X148264666Y-139357200D02*
X148121809Y-139404819D01*
X148121809Y-139404819D02*
X148026571Y-139404819D01*
X148026571Y-139404819D02*
X147883714Y-139357200D01*
X147883714Y-139357200D02*
X147788476Y-139261961D01*
X147788476Y-139261961D02*
X147740857Y-139166723D01*
X147740857Y-139166723D02*
X147693238Y-138976247D01*
X147693238Y-138976247D02*
X147693238Y-138833390D01*
X147693238Y-138833390D02*
X147740857Y-138642914D01*
X147740857Y-138642914D02*
X147788476Y-138547676D01*
X147788476Y-138547676D02*
X147883714Y-138452438D01*
X147883714Y-138452438D02*
X148026571Y-138404819D01*
X148026571Y-138404819D02*
X148121809Y-138404819D01*
X148121809Y-138404819D02*
X148264666Y-138452438D01*
X148264666Y-138452438D02*
X148312285Y-138500057D01*
X148931333Y-138404819D02*
X149121809Y-138404819D01*
X149121809Y-138404819D02*
X149217047Y-138452438D01*
X149217047Y-138452438D02*
X149312285Y-138547676D01*
X149312285Y-138547676D02*
X149359904Y-138738152D01*
X149359904Y-138738152D02*
X149359904Y-139071485D01*
X149359904Y-139071485D02*
X149312285Y-139261961D01*
X149312285Y-139261961D02*
X149217047Y-139357200D01*
X149217047Y-139357200D02*
X149121809Y-139404819D01*
X149121809Y-139404819D02*
X148931333Y-139404819D01*
X148931333Y-139404819D02*
X148836095Y-139357200D01*
X148836095Y-139357200D02*
X148740857Y-139261961D01*
X148740857Y-139261961D02*
X148693238Y-139071485D01*
X148693238Y-139071485D02*
X148693238Y-138738152D01*
X148693238Y-138738152D02*
X148740857Y-138547676D01*
X148740857Y-138547676D02*
X148836095Y-138452438D01*
X148836095Y-138452438D02*
X148931333Y-138404819D01*
X149788476Y-139404819D02*
X149788476Y-138404819D01*
X149788476Y-138404819D02*
X150121809Y-139119104D01*
X150121809Y-139119104D02*
X150455142Y-138404819D01*
X150455142Y-138404819D02*
X150455142Y-139404819D01*
D11*
G36*
X159492401Y-82054000D02*
G01*
X161442400Y-82054000D01*
X161442400Y-82804000D01*
X161292400Y-82804000D01*
X159492401Y-82804000D01*
X159492401Y-83629000D01*
X159042401Y-83629000D01*
X159042401Y-82504000D01*
X159642401Y-82504000D01*
X161292400Y-82504000D01*
X161292400Y-82354000D01*
X159642401Y-82354000D01*
X159642401Y-82504000D01*
X159042401Y-82504000D01*
X159042401Y-81229001D01*
X159492401Y-81229001D01*
X159492401Y-82054000D01*
G37*
G36*
X161442400Y-84979000D02*
G01*
X160542401Y-85729000D01*
X161442400Y-85729000D01*
X161442400Y-86328999D01*
X161142401Y-86328999D01*
X159042401Y-86328999D01*
X159042401Y-86029000D01*
X159342401Y-86029000D01*
X161142401Y-86029000D01*
X161142401Y-85879000D01*
X159342401Y-85879000D01*
X159342401Y-86029000D01*
X159042401Y-86029000D01*
X159042401Y-85729000D01*
X159942401Y-85729000D01*
X159042401Y-84979000D01*
X159042401Y-84379000D01*
X160242401Y-85429000D01*
X161442400Y-84379000D01*
X161442400Y-84979000D01*
G37*
G36*
X159492401Y-79729001D02*
G01*
X159942401Y-79729001D01*
X159942401Y-78679001D01*
X160542401Y-78679001D01*
X160992401Y-78679001D01*
X160992401Y-78529001D01*
X160542401Y-78529001D01*
X160542401Y-78679001D01*
X159942401Y-78679001D01*
X159942401Y-78229001D01*
X161442400Y-78229001D01*
X161442400Y-80329001D01*
X160992401Y-80329001D01*
X160992401Y-78829001D01*
X160542401Y-78829001D01*
X160542401Y-80329001D01*
X159942401Y-80329001D01*
X159042401Y-80329001D01*
X159042401Y-80029001D01*
X159492401Y-80029001D01*
X159942401Y-80029001D01*
X159942401Y-79879001D01*
X159492401Y-79879001D01*
X159492401Y-80029001D01*
X159042401Y-80029001D01*
X159042401Y-78229001D01*
X159492401Y-78229001D01*
X159492401Y-79729001D01*
G37*
D10*
X150533551Y-73103580D02*
X150533551Y-74103580D01*
X150533551Y-74103580D02*
X150295456Y-74103580D01*
X150295456Y-74103580D02*
X150152599Y-74055961D01*
X150152599Y-74055961D02*
X150057361Y-73960723D01*
X150057361Y-73960723D02*
X150009742Y-73865485D01*
X150009742Y-73865485D02*
X149962123Y-73675009D01*
X149962123Y-73675009D02*
X149962123Y-73532152D01*
X149962123Y-73532152D02*
X150009742Y-73341676D01*
X150009742Y-73341676D02*
X150057361Y-73246438D01*
X150057361Y-73246438D02*
X150152599Y-73151200D01*
X150152599Y-73151200D02*
X150295456Y-73103580D01*
X150295456Y-73103580D02*
X150533551Y-73103580D01*
X148962123Y-73198819D02*
X149009742Y-73151200D01*
X149009742Y-73151200D02*
X149152599Y-73103580D01*
X149152599Y-73103580D02*
X149247837Y-73103580D01*
X149247837Y-73103580D02*
X149390694Y-73151200D01*
X149390694Y-73151200D02*
X149485932Y-73246438D01*
X149485932Y-73246438D02*
X149533551Y-73341676D01*
X149533551Y-73341676D02*
X149581170Y-73532152D01*
X149581170Y-73532152D02*
X149581170Y-73675009D01*
X149581170Y-73675009D02*
X149533551Y-73865485D01*
X149533551Y-73865485D02*
X149485932Y-73960723D01*
X149485932Y-73960723D02*
X149390694Y-74055961D01*
X149390694Y-74055961D02*
X149247837Y-74103580D01*
X149247837Y-74103580D02*
X149152599Y-74103580D01*
X149152599Y-74103580D02*
X149009742Y-74055961D01*
X149009742Y-74055961D02*
X148962123Y-74008342D01*
X148533551Y-73484533D02*
X147771647Y-73484533D01*
X154752608Y-73103580D02*
X154752608Y-74103580D01*
X154276418Y-73103580D02*
X154276418Y-74103580D01*
X154276418Y-74103580D02*
X153704990Y-73103580D01*
X153704990Y-73103580D02*
X153704990Y-74103580D01*
X143140476Y-139404819D02*
X143140476Y-138404819D01*
X143140476Y-138404819D02*
X143711904Y-139404819D01*
X143711904Y-139404819D02*
X143711904Y-138404819D01*
X144378571Y-138404819D02*
X144569047Y-138404819D01*
X144569047Y-138404819D02*
X144664285Y-138452438D01*
X144664285Y-138452438D02*
X144759523Y-138547676D01*
X144759523Y-138547676D02*
X144807142Y-138738152D01*
X144807142Y-138738152D02*
X144807142Y-139071485D01*
X144807142Y-139071485D02*
X144759523Y-139261961D01*
X144759523Y-139261961D02*
X144664285Y-139357200D01*
X144664285Y-139357200D02*
X144569047Y-139404819D01*
X144569047Y-139404819D02*
X144378571Y-139404819D01*
X144378571Y-139404819D02*
X144283333Y-139357200D01*
X144283333Y-139357200D02*
X144188095Y-139261961D01*
X144188095Y-139261961D02*
X144140476Y-139071485D01*
X144140476Y-139071485D02*
X144140476Y-138738152D01*
X144140476Y-138738152D02*
X144188095Y-138547676D01*
X144188095Y-138547676D02*
X144283333Y-138452438D01*
X144283333Y-138452438D02*
X144378571Y-138404819D01*
X153464286Y-139404819D02*
X153464286Y-138404819D01*
X153464286Y-138404819D02*
X154035714Y-139404819D01*
X154035714Y-139404819D02*
X154035714Y-138404819D01*
X155083333Y-139309580D02*
X155035714Y-139357200D01*
X155035714Y-139357200D02*
X154892857Y-139404819D01*
X154892857Y-139404819D02*
X154797619Y-139404819D01*
X154797619Y-139404819D02*
X154654762Y-139357200D01*
X154654762Y-139357200D02*
X154559524Y-139261961D01*
X154559524Y-139261961D02*
X154511905Y-139166723D01*
X154511905Y-139166723D02*
X154464286Y-138976247D01*
X154464286Y-138976247D02*
X154464286Y-138833390D01*
X154464286Y-138833390D02*
X154511905Y-138642914D01*
X154511905Y-138642914D02*
X154559524Y-138547676D01*
X154559524Y-138547676D02*
X154654762Y-138452438D01*
X154654762Y-138452438D02*
X154797619Y-138404819D01*
X154797619Y-138404819D02*
X154892857Y-138404819D01*
X154892857Y-138404819D02*
X155035714Y-138452438D01*
X155035714Y-138452438D02*
X155083333Y-138500057D01*
X161464619Y-104603392D02*
X160988428Y-104936725D01*
X161464619Y-105174820D02*
X160464619Y-105174820D01*
X160464619Y-105174820D02*
X160464619Y-104793868D01*
X160464619Y-104793868D02*
X160512238Y-104698630D01*
X160512238Y-104698630D02*
X160559857Y-104651011D01*
X160559857Y-104651011D02*
X160655095Y-104603392D01*
X160655095Y-104603392D02*
X160797952Y-104603392D01*
X160797952Y-104603392D02*
X160893190Y-104651011D01*
X160893190Y-104651011D02*
X160940809Y-104698630D01*
X160940809Y-104698630D02*
X160988428Y-104793868D01*
X160988428Y-104793868D02*
X160988428Y-105174820D01*
X161417000Y-103793868D02*
X161464619Y-103889106D01*
X161464619Y-103889106D02*
X161464619Y-104079582D01*
X161464619Y-104079582D02*
X161417000Y-104174820D01*
X161417000Y-104174820D02*
X161321761Y-104222439D01*
X161321761Y-104222439D02*
X160940809Y-104222439D01*
X160940809Y-104222439D02*
X160845571Y-104174820D01*
X160845571Y-104174820D02*
X160797952Y-104079582D01*
X160797952Y-104079582D02*
X160797952Y-103889106D01*
X160797952Y-103889106D02*
X160845571Y-103793868D01*
X160845571Y-103793868D02*
X160940809Y-103746249D01*
X160940809Y-103746249D02*
X161036047Y-103746249D01*
X161036047Y-103746249D02*
X161131285Y-104222439D01*
X161464619Y-103174820D02*
X161417000Y-103270058D01*
X161417000Y-103270058D02*
X161321761Y-103317677D01*
X161321761Y-103317677D02*
X160464619Y-103317677D01*
X161464619Y-102365296D02*
X160940809Y-102365296D01*
X160940809Y-102365296D02*
X160845571Y-102412915D01*
X160845571Y-102412915D02*
X160797952Y-102508153D01*
X160797952Y-102508153D02*
X160797952Y-102698629D01*
X160797952Y-102698629D02*
X160845571Y-102793867D01*
X161417000Y-102365296D02*
X161464619Y-102460534D01*
X161464619Y-102460534D02*
X161464619Y-102698629D01*
X161464619Y-102698629D02*
X161417000Y-102793867D01*
X161417000Y-102793867D02*
X161321761Y-102841486D01*
X161321761Y-102841486D02*
X161226523Y-102841486D01*
X161226523Y-102841486D02*
X161131285Y-102793867D01*
X161131285Y-102793867D02*
X161083666Y-102698629D01*
X161083666Y-102698629D02*
X161083666Y-102460534D01*
X161083666Y-102460534D02*
X161036047Y-102365296D01*
X160797952Y-101984343D02*
X161464619Y-101746248D01*
X160797952Y-101508153D02*
X161464619Y-101746248D01*
X161464619Y-101746248D02*
X161702714Y-101841486D01*
X161702714Y-101841486D02*
X161750333Y-101889105D01*
X161750333Y-101889105D02*
X161797952Y-101984343D01*
X161464619Y-100365295D02*
X160797952Y-100365295D01*
X160893190Y-100365295D02*
X160845571Y-100317676D01*
X160845571Y-100317676D02*
X160797952Y-100222438D01*
X160797952Y-100222438D02*
X160797952Y-100079581D01*
X160797952Y-100079581D02*
X160845571Y-99984343D01*
X160845571Y-99984343D02*
X160940809Y-99936724D01*
X160940809Y-99936724D02*
X161464619Y-99936724D01*
X160940809Y-99936724D02*
X160845571Y-99889105D01*
X160845571Y-99889105D02*
X160797952Y-99793867D01*
X160797952Y-99793867D02*
X160797952Y-99651010D01*
X160797952Y-99651010D02*
X160845571Y-99555771D01*
X160845571Y-99555771D02*
X160940809Y-99508152D01*
X160940809Y-99508152D02*
X161464619Y-99508152D01*
X161464619Y-98889105D02*
X161417000Y-98984343D01*
X161417000Y-98984343D02*
X161369380Y-99031962D01*
X161369380Y-99031962D02*
X161274142Y-99079581D01*
X161274142Y-99079581D02*
X160988428Y-99079581D01*
X160988428Y-99079581D02*
X160893190Y-99031962D01*
X160893190Y-99031962D02*
X160845571Y-98984343D01*
X160845571Y-98984343D02*
X160797952Y-98889105D01*
X160797952Y-98889105D02*
X160797952Y-98746248D01*
X160797952Y-98746248D02*
X160845571Y-98651010D01*
X160845571Y-98651010D02*
X160893190Y-98603391D01*
X160893190Y-98603391D02*
X160988428Y-98555772D01*
X160988428Y-98555772D02*
X161274142Y-98555772D01*
X161274142Y-98555772D02*
X161369380Y-98603391D01*
X161369380Y-98603391D02*
X161417000Y-98651010D01*
X161417000Y-98651010D02*
X161464619Y-98746248D01*
X161464619Y-98746248D02*
X161464619Y-98889105D01*
X161464619Y-97698629D02*
X160464619Y-97698629D01*
X161417000Y-97698629D02*
X161464619Y-97793867D01*
X161464619Y-97793867D02*
X161464619Y-97984343D01*
X161464619Y-97984343D02*
X161417000Y-98079581D01*
X161417000Y-98079581D02*
X161369380Y-98127200D01*
X161369380Y-98127200D02*
X161274142Y-98174819D01*
X161274142Y-98174819D02*
X160988428Y-98174819D01*
X160988428Y-98174819D02*
X160893190Y-98127200D01*
X160893190Y-98127200D02*
X160845571Y-98079581D01*
X160845571Y-98079581D02*
X160797952Y-97984343D01*
X160797952Y-97984343D02*
X160797952Y-97793867D01*
X160797952Y-97793867D02*
X160845571Y-97698629D01*
X160797952Y-96793867D02*
X161464619Y-96793867D01*
X160797952Y-97222438D02*
X161321761Y-97222438D01*
X161321761Y-97222438D02*
X161417000Y-97174819D01*
X161417000Y-97174819D02*
X161464619Y-97079581D01*
X161464619Y-97079581D02*
X161464619Y-96936724D01*
X161464619Y-96936724D02*
X161417000Y-96841486D01*
X161417000Y-96841486D02*
X161369380Y-96793867D01*
X161464619Y-96174819D02*
X161417000Y-96270057D01*
X161417000Y-96270057D02*
X161321761Y-96317676D01*
X161321761Y-96317676D02*
X160464619Y-96317676D01*
X161417000Y-95412914D02*
X161464619Y-95508152D01*
X161464619Y-95508152D02*
X161464619Y-95698628D01*
X161464619Y-95698628D02*
X161417000Y-95793866D01*
X161417000Y-95793866D02*
X161321761Y-95841485D01*
X161321761Y-95841485D02*
X160940809Y-95841485D01*
X160940809Y-95841485D02*
X160845571Y-95793866D01*
X160845571Y-95793866D02*
X160797952Y-95698628D01*
X160797952Y-95698628D02*
X160797952Y-95508152D01*
X160797952Y-95508152D02*
X160845571Y-95412914D01*
X160845571Y-95412914D02*
X160940809Y-95365295D01*
X160940809Y-95365295D02*
X161036047Y-95365295D01*
X161036047Y-95365295D02*
X161131285Y-95841485D01*
X161464619Y-93651009D02*
X161464619Y-94222437D01*
X161464619Y-93936723D02*
X160464619Y-93936723D01*
X160464619Y-93936723D02*
X160607476Y-94031961D01*
X160607476Y-94031961D02*
X160702714Y-94127199D01*
X160702714Y-94127199D02*
X160750333Y-94222437D01*
X160559857Y-93270056D02*
X160512238Y-93222437D01*
X160512238Y-93222437D02*
X160464619Y-93127199D01*
X160464619Y-93127199D02*
X160464619Y-92889104D01*
X160464619Y-92889104D02*
X160512238Y-92793866D01*
X160512238Y-92793866D02*
X160559857Y-92746247D01*
X160559857Y-92746247D02*
X160655095Y-92698628D01*
X160655095Y-92698628D02*
X160750333Y-92698628D01*
X160750333Y-92698628D02*
X160893190Y-92746247D01*
X160893190Y-92746247D02*
X161464619Y-93317675D01*
X161464619Y-93317675D02*
X161464619Y-92698628D01*
X160464619Y-92412913D02*
X161464619Y-92079580D01*
X161464619Y-92079580D02*
X160464619Y-91746247D01*
X160797952Y-90746246D02*
X161464619Y-90508151D01*
X161464619Y-90508151D02*
X160797952Y-90270056D01*
X161464619Y-89365294D02*
X161464619Y-89936722D01*
X161464619Y-89651008D02*
X160464619Y-89651008D01*
X160464619Y-89651008D02*
X160607476Y-89746246D01*
X160607476Y-89746246D02*
X160702714Y-89841484D01*
X160702714Y-89841484D02*
X160750333Y-89936722D01*
X161369380Y-88936722D02*
X161417000Y-88889103D01*
X161417000Y-88889103D02*
X161464619Y-88936722D01*
X161464619Y-88936722D02*
X161417000Y-88984341D01*
X161417000Y-88984341D02*
X161369380Y-88936722D01*
X161369380Y-88936722D02*
X161464619Y-88936722D01*
X160464619Y-88270056D02*
X160464619Y-88174818D01*
X160464619Y-88174818D02*
X160512238Y-88079580D01*
X160512238Y-88079580D02*
X160559857Y-88031961D01*
X160559857Y-88031961D02*
X160655095Y-87984342D01*
X160655095Y-87984342D02*
X160845571Y-87936723D01*
X160845571Y-87936723D02*
X161083666Y-87936723D01*
X161083666Y-87936723D02*
X161274142Y-87984342D01*
X161274142Y-87984342D02*
X161369380Y-88031961D01*
X161369380Y-88031961D02*
X161417000Y-88079580D01*
X161417000Y-88079580D02*
X161464619Y-88174818D01*
X161464619Y-88174818D02*
X161464619Y-88270056D01*
X161464619Y-88270056D02*
X161417000Y-88365294D01*
X161417000Y-88365294D02*
X161369380Y-88412913D01*
X161369380Y-88412913D02*
X161274142Y-88460532D01*
X161274142Y-88460532D02*
X161083666Y-88508151D01*
X161083666Y-88508151D02*
X160845571Y-88508151D01*
X160845571Y-88508151D02*
X160655095Y-88460532D01*
X160655095Y-88460532D02*
X160559857Y-88412913D01*
X160559857Y-88412913D02*
X160512238Y-88365294D01*
X160512238Y-88365294D02*
X160464619Y-88270056D01*
X145433551Y-73103580D02*
X145433551Y-74103580D01*
X145433551Y-74103580D02*
X145195456Y-74103580D01*
X145195456Y-74103580D02*
X145052599Y-74055961D01*
X145052599Y-74055961D02*
X144957361Y-73960723D01*
X144957361Y-73960723D02*
X144909742Y-73865485D01*
X144909742Y-73865485D02*
X144862123Y-73675009D01*
X144862123Y-73675009D02*
X144862123Y-73532152D01*
X144862123Y-73532152D02*
X144909742Y-73341676D01*
X144909742Y-73341676D02*
X144957361Y-73246438D01*
X144957361Y-73246438D02*
X145052599Y-73151200D01*
X145052599Y-73151200D02*
X145195456Y-73103580D01*
X145195456Y-73103580D02*
X145433551Y-73103580D01*
X143862123Y-73198819D02*
X143909742Y-73151200D01*
X143909742Y-73151200D02*
X144052599Y-73103580D01*
X144052599Y-73103580D02*
X144147837Y-73103580D01*
X144147837Y-73103580D02*
X144290694Y-73151200D01*
X144290694Y-73151200D02*
X144385932Y-73246438D01*
X144385932Y-73246438D02*
X144433551Y-73341676D01*
X144433551Y-73341676D02*
X144481170Y-73532152D01*
X144481170Y-73532152D02*
X144481170Y-73675009D01*
X144481170Y-73675009D02*
X144433551Y-73865485D01*
X144433551Y-73865485D02*
X144385932Y-73960723D01*
X144385932Y-73960723D02*
X144290694Y-74055961D01*
X144290694Y-74055961D02*
X144147837Y-74103580D01*
X144147837Y-74103580D02*
X144052599Y-74103580D01*
X144052599Y-74103580D02*
X143909742Y-74055961D01*
X143909742Y-74055961D02*
X143862123Y-74008342D01*
X143433551Y-73484533D02*
X142671647Y-73484533D01*
X143052599Y-73103580D02*
X143052599Y-73865485D01*
X137998361Y-101946857D02*
X137903123Y-101899238D01*
X137903123Y-101899238D02*
X137807885Y-101804000D01*
X137807885Y-101804000D02*
X137665028Y-101661142D01*
X137665028Y-101661142D02*
X137569790Y-101613523D01*
X137569790Y-101613523D02*
X137474552Y-101613523D01*
X137522171Y-101851619D02*
X137426933Y-101804000D01*
X137426933Y-101804000D02*
X137331695Y-101708761D01*
X137331695Y-101708761D02*
X137284076Y-101518285D01*
X137284076Y-101518285D02*
X137284076Y-101184952D01*
X137284076Y-101184952D02*
X137331695Y-100994476D01*
X137331695Y-100994476D02*
X137426933Y-100899238D01*
X137426933Y-100899238D02*
X137522171Y-100851619D01*
X137522171Y-100851619D02*
X137712647Y-100851619D01*
X137712647Y-100851619D02*
X137807885Y-100899238D01*
X137807885Y-100899238D02*
X137903123Y-100994476D01*
X137903123Y-100994476D02*
X137950742Y-101184952D01*
X137950742Y-101184952D02*
X137950742Y-101518285D01*
X137950742Y-101518285D02*
X137903123Y-101708761D01*
X137903123Y-101708761D02*
X137807885Y-101804000D01*
X137807885Y-101804000D02*
X137712647Y-101851619D01*
X137712647Y-101851619D02*
X137522171Y-101851619D01*
X138903123Y-101851619D02*
X138331695Y-101851619D01*
X138617409Y-101851619D02*
X138617409Y-100851619D01*
X138617409Y-100851619D02*
X138522171Y-100994476D01*
X138522171Y-100994476D02*
X138426933Y-101089714D01*
X138426933Y-101089714D02*
X138331695Y-101137333D01*
X143952933Y-87119619D02*
X143619600Y-86643428D01*
X143381505Y-87119619D02*
X143381505Y-86119619D01*
X143381505Y-86119619D02*
X143762457Y-86119619D01*
X143762457Y-86119619D02*
X143857695Y-86167238D01*
X143857695Y-86167238D02*
X143905314Y-86214857D01*
X143905314Y-86214857D02*
X143952933Y-86310095D01*
X143952933Y-86310095D02*
X143952933Y-86452952D01*
X143952933Y-86452952D02*
X143905314Y-86548190D01*
X143905314Y-86548190D02*
X143857695Y-86595809D01*
X143857695Y-86595809D02*
X143762457Y-86643428D01*
X143762457Y-86643428D02*
X143381505Y-86643428D01*
X144333886Y-86214857D02*
X144381505Y-86167238D01*
X144381505Y-86167238D02*
X144476743Y-86119619D01*
X144476743Y-86119619D02*
X144714838Y-86119619D01*
X144714838Y-86119619D02*
X144810076Y-86167238D01*
X144810076Y-86167238D02*
X144857695Y-86214857D01*
X144857695Y-86214857D02*
X144905314Y-86310095D01*
X144905314Y-86310095D02*
X144905314Y-86405333D01*
X144905314Y-86405333D02*
X144857695Y-86548190D01*
X144857695Y-86548190D02*
X144286267Y-87119619D01*
X144286267Y-87119619D02*
X144905314Y-87119619D01*
X139822505Y-97555119D02*
X139822505Y-96555119D01*
X139822505Y-96555119D02*
X140060600Y-96555119D01*
X140060600Y-96555119D02*
X140203457Y-96602738D01*
X140203457Y-96602738D02*
X140298695Y-96697976D01*
X140298695Y-96697976D02*
X140346314Y-96793214D01*
X140346314Y-96793214D02*
X140393933Y-96983690D01*
X140393933Y-96983690D02*
X140393933Y-97126547D01*
X140393933Y-97126547D02*
X140346314Y-97317023D01*
X140346314Y-97317023D02*
X140298695Y-97412261D01*
X140298695Y-97412261D02*
X140203457Y-97507500D01*
X140203457Y-97507500D02*
X140060600Y-97555119D01*
X140060600Y-97555119D02*
X139822505Y-97555119D01*
X140774886Y-96650357D02*
X140822505Y-96602738D01*
X140822505Y-96602738D02*
X140917743Y-96555119D01*
X140917743Y-96555119D02*
X141155838Y-96555119D01*
X141155838Y-96555119D02*
X141251076Y-96602738D01*
X141251076Y-96602738D02*
X141298695Y-96650357D01*
X141298695Y-96650357D02*
X141346314Y-96745595D01*
X141346314Y-96745595D02*
X141346314Y-96840833D01*
X141346314Y-96840833D02*
X141298695Y-96983690D01*
X141298695Y-96983690D02*
X140727267Y-97555119D01*
X140727267Y-97555119D02*
X141346314Y-97555119D01*
X151890505Y-101851619D02*
X151890505Y-100851619D01*
X151890505Y-100851619D02*
X152128600Y-100851619D01*
X152128600Y-100851619D02*
X152271457Y-100899238D01*
X152271457Y-100899238D02*
X152366695Y-100994476D01*
X152366695Y-100994476D02*
X152414314Y-101089714D01*
X152414314Y-101089714D02*
X152461933Y-101280190D01*
X152461933Y-101280190D02*
X152461933Y-101423047D01*
X152461933Y-101423047D02*
X152414314Y-101613523D01*
X152414314Y-101613523D02*
X152366695Y-101708761D01*
X152366695Y-101708761D02*
X152271457Y-101804000D01*
X152271457Y-101804000D02*
X152128600Y-101851619D01*
X152128600Y-101851619D02*
X151890505Y-101851619D01*
X153414314Y-101851619D02*
X152842886Y-101851619D01*
X153128600Y-101851619D02*
X153128600Y-100851619D01*
X153128600Y-100851619D02*
X153033362Y-100994476D01*
X153033362Y-100994476D02*
X152938124Y-101089714D01*
X152938124Y-101089714D02*
X152842886Y-101137333D01*
X157573695Y-103951619D02*
X157573695Y-102951619D01*
X158145123Y-103951619D02*
X157716552Y-103380190D01*
X158145123Y-102951619D02*
X157573695Y-103523047D01*
X154999419Y-90728704D02*
X155808942Y-90728704D01*
X155808942Y-90728704D02*
X155904180Y-90681085D01*
X155904180Y-90681085D02*
X155951800Y-90633466D01*
X155951800Y-90633466D02*
X155999419Y-90538228D01*
X155999419Y-90538228D02*
X155999419Y-90347752D01*
X155999419Y-90347752D02*
X155951800Y-90252514D01*
X155951800Y-90252514D02*
X155904180Y-90204895D01*
X155904180Y-90204895D02*
X155808942Y-90157276D01*
X155808942Y-90157276D02*
X154999419Y-90157276D01*
X155999419Y-89157276D02*
X155999419Y-89728704D01*
X155999419Y-89442990D02*
X154999419Y-89442990D01*
X154999419Y-89442990D02*
X155142276Y-89538228D01*
X155142276Y-89538228D02*
X155237514Y-89633466D01*
X155237514Y-89633466D02*
X155285133Y-89728704D01*
X148817066Y-82613519D02*
X148817066Y-83327804D01*
X148817066Y-83327804D02*
X148769447Y-83470661D01*
X148769447Y-83470661D02*
X148674209Y-83565900D01*
X148674209Y-83565900D02*
X148531352Y-83613519D01*
X148531352Y-83613519D02*
X148436114Y-83613519D01*
X149817066Y-83613519D02*
X149245638Y-83613519D01*
X149531352Y-83613519D02*
X149531352Y-82613519D01*
X149531352Y-82613519D02*
X149436114Y-82756376D01*
X149436114Y-82756376D02*
X149340876Y-82851614D01*
X149340876Y-82851614D02*
X149245638Y-82899233D01*
X153858933Y-97914619D02*
X153525600Y-97438428D01*
X153287505Y-97914619D02*
X153287505Y-96914619D01*
X153287505Y-96914619D02*
X153668457Y-96914619D01*
X153668457Y-96914619D02*
X153763695Y-96962238D01*
X153763695Y-96962238D02*
X153811314Y-97009857D01*
X153811314Y-97009857D02*
X153858933Y-97105095D01*
X153858933Y-97105095D02*
X153858933Y-97247952D01*
X153858933Y-97247952D02*
X153811314Y-97343190D01*
X153811314Y-97343190D02*
X153763695Y-97390809D01*
X153763695Y-97390809D02*
X153668457Y-97438428D01*
X153668457Y-97438428D02*
X153287505Y-97438428D01*
X154811314Y-97914619D02*
X154239886Y-97914619D01*
X154525600Y-97914619D02*
X154525600Y-96914619D01*
X154525600Y-96914619D02*
X154430362Y-97057476D01*
X154430362Y-97057476D02*
X154335124Y-97152714D01*
X154335124Y-97152714D02*
X154239886Y-97200333D01*
X143952933Y-90421619D02*
X143619600Y-89945428D01*
X143381505Y-90421619D02*
X143381505Y-89421619D01*
X143381505Y-89421619D02*
X143762457Y-89421619D01*
X143762457Y-89421619D02*
X143857695Y-89469238D01*
X143857695Y-89469238D02*
X143905314Y-89516857D01*
X143905314Y-89516857D02*
X143952933Y-89612095D01*
X143952933Y-89612095D02*
X143952933Y-89754952D01*
X143952933Y-89754952D02*
X143905314Y-89850190D01*
X143905314Y-89850190D02*
X143857695Y-89897809D01*
X143857695Y-89897809D02*
X143762457Y-89945428D01*
X143762457Y-89945428D02*
X143381505Y-89945428D01*
X144286267Y-89421619D02*
X144905314Y-89421619D01*
X144905314Y-89421619D02*
X144571981Y-89802571D01*
X144571981Y-89802571D02*
X144714838Y-89802571D01*
X144714838Y-89802571D02*
X144810076Y-89850190D01*
X144810076Y-89850190D02*
X144857695Y-89897809D01*
X144857695Y-89897809D02*
X144905314Y-89993047D01*
X144905314Y-89993047D02*
X144905314Y-90231142D01*
X144905314Y-90231142D02*
X144857695Y-90326380D01*
X144857695Y-90326380D02*
X144810076Y-90374000D01*
X144810076Y-90374000D02*
X144714838Y-90421619D01*
X144714838Y-90421619D02*
X144429124Y-90421619D01*
X144429124Y-90421619D02*
X144333886Y-90374000D01*
X144333886Y-90374000D02*
X144286267Y-90326380D01*
X154582905Y-106499819D02*
X154582905Y-105499819D01*
X155154333Y-106499819D02*
X154725762Y-105928390D01*
X155154333Y-105499819D02*
X154582905Y-106071247D01*
X156106714Y-106499819D02*
X155535286Y-106499819D01*
X155821000Y-106499819D02*
X155821000Y-105499819D01*
X155821000Y-105499819D02*
X155725762Y-105642676D01*
X155725762Y-105642676D02*
X155630524Y-105737914D01*
X155630524Y-105737914D02*
X155535286Y-105785533D01*
X148764666Y-136208419D02*
X148764666Y-136922704D01*
X148764666Y-136922704D02*
X148717047Y-137065561D01*
X148717047Y-137065561D02*
X148621809Y-137160800D01*
X148621809Y-137160800D02*
X148478952Y-137208419D01*
X148478952Y-137208419D02*
X148383714Y-137208419D01*
X149193238Y-136303657D02*
X149240857Y-136256038D01*
X149240857Y-136256038D02*
X149336095Y-136208419D01*
X149336095Y-136208419D02*
X149574190Y-136208419D01*
X149574190Y-136208419D02*
X149669428Y-136256038D01*
X149669428Y-136256038D02*
X149717047Y-136303657D01*
X149717047Y-136303657D02*
X149764666Y-136398895D01*
X149764666Y-136398895D02*
X149764666Y-136494133D01*
X149764666Y-136494133D02*
X149717047Y-136636990D01*
X149717047Y-136636990D02*
X149145619Y-137208419D01*
X149145619Y-137208419D02*
X149764666Y-137208419D01*
X143952933Y-93723619D02*
X143619600Y-93247428D01*
X143381505Y-93723619D02*
X143381505Y-92723619D01*
X143381505Y-92723619D02*
X143762457Y-92723619D01*
X143762457Y-92723619D02*
X143857695Y-92771238D01*
X143857695Y-92771238D02*
X143905314Y-92818857D01*
X143905314Y-92818857D02*
X143952933Y-92914095D01*
X143952933Y-92914095D02*
X143952933Y-93056952D01*
X143952933Y-93056952D02*
X143905314Y-93152190D01*
X143905314Y-93152190D02*
X143857695Y-93199809D01*
X143857695Y-93199809D02*
X143762457Y-93247428D01*
X143762457Y-93247428D02*
X143381505Y-93247428D01*
X144810076Y-93056952D02*
X144810076Y-93723619D01*
X144571981Y-92676000D02*
X144333886Y-93390285D01*
X144333886Y-93390285D02*
X144952933Y-93390285D01*
D12*
%TO.C,Q1*%
X143887600Y-99546800D02*
X140287600Y-99546800D01*
X142087600Y-103996800D02*
G75*
G02*
X140249122Y-99558322I0J2600000D01*
G01*
X143926078Y-99558322D02*
G75*
G02*
X142087600Y-103996801I-1838478J-1838478D01*
G01*
%TO.C,R2*%
X140849600Y-85294800D02*
X147389600Y-85294800D01*
X140849600Y-85624800D02*
X140849600Y-85294800D01*
X140849600Y-87704800D02*
X140849600Y-88034800D01*
X140849600Y-88034800D02*
X147389600Y-88034800D01*
X147389600Y-85294800D02*
X147389600Y-85624800D01*
X147389600Y-88034800D02*
X147389600Y-87704800D01*
%TO.C,D2*%
X142940600Y-95842800D02*
X142940600Y-95998800D01*
X142940600Y-98158800D02*
X142940600Y-98314800D01*
X142940600Y-95843284D02*
G75*
G02*
X146172037Y-95998800I1560000J-1235516D01*
G01*
X143459639Y-95998800D02*
G75*
G02*
X145541561Y-95998800I1040961J-1080000D01*
G01*
X145541561Y-98158800D02*
G75*
G02*
X143459639Y-98158800I-1040961J1080000D01*
G01*
X146172037Y-98158800D02*
G75*
G02*
X142940600Y-98314316I-1671437J1080000D01*
G01*
%TO.C,D1*%
X149015600Y-101396800D02*
X150035600Y-101396800D01*
X154455600Y-102866800D02*
X154455600Y-99926800D01*
X154575600Y-102866800D02*
X154575600Y-99926800D01*
X154695600Y-102866800D02*
X154695600Y-99926800D01*
X156495600Y-101396800D02*
X155475600Y-101396800D01*
X155475600Y-102866800D02*
X150035600Y-102866800D01*
X150035600Y-99926800D01*
X155475600Y-99926800D01*
X155475600Y-102866800D01*
%TO.C,U1*%
X152949600Y-87316800D02*
X152949600Y-92616800D01*
X152949600Y-92616800D02*
X158149600Y-92616800D01*
X158149600Y-87316800D02*
X152949600Y-87316800D01*
X158149600Y-88966800D02*
X158149600Y-87316800D01*
X158149600Y-92616800D02*
X158149600Y-90966800D01*
X158149600Y-90966800D02*
G75*
G02*
X158149600Y-88966800I0J1000000D01*
G01*
%TO.C,J1*%
X141380000Y-74380000D02*
X153900000Y-74380000D01*
X141380000Y-84420000D02*
X141380000Y-74380000D01*
X154500000Y-74380000D02*
X156860000Y-74380000D01*
X156860000Y-74380000D02*
X156860000Y-84420000D01*
X156860000Y-75000000D02*
X141380000Y-75000000D01*
X156860000Y-76500000D02*
X141380000Y-76500000D01*
X156860000Y-81400000D02*
X141380000Y-81400000D01*
X156860000Y-84420000D02*
X141380000Y-84420000D01*
X154200000Y-74380000D02*
X153760000Y-73770000D01*
X154640000Y-73770000D01*
X154200000Y-74380000D01*
G36*
X154200000Y-74380000D02*
G01*
X153760000Y-73770000D01*
X154640000Y-73770000D01*
X154200000Y-74380000D01*
G37*
%TO.C,R1*%
X150755600Y-95962800D02*
X150755600Y-96292800D01*
X150755600Y-98702800D02*
X150755600Y-98372800D01*
X157295600Y-95962800D02*
X150755600Y-95962800D01*
X157295600Y-96292800D02*
X157295600Y-95962800D01*
X157295600Y-98372800D02*
X157295600Y-98702800D01*
X157295600Y-98702800D02*
X150755600Y-98702800D01*
%TO.C,R3*%
X140849600Y-88596800D02*
X140849600Y-88926800D01*
X140849600Y-91336800D02*
X140849600Y-91006800D01*
X147389600Y-88596800D02*
X140849600Y-88596800D01*
X147389600Y-88926800D02*
X147389600Y-88596800D01*
X147389600Y-91006800D02*
X147389600Y-91336800D01*
X147389600Y-91336800D02*
X140849600Y-91336800D01*
%TO.C,K1*%
X140880600Y-104536600D02*
X140880600Y-127236600D01*
X140880600Y-127236600D02*
X157580600Y-127236600D01*
X144730600Y-109386600D02*
X147880600Y-109386600D01*
X148230600Y-104276600D02*
X150230600Y-104276600D01*
X148880600Y-108786600D02*
X148880600Y-109986600D01*
X148880600Y-109586600D02*
X149580600Y-109186600D01*
X148880600Y-109986600D02*
X149580600Y-109986600D01*
X149580600Y-108786600D02*
X148880600Y-108786600D01*
X149580600Y-109986600D02*
X149580600Y-108786600D01*
X150580600Y-109386600D02*
X153730600Y-109386600D01*
X157580600Y-104536600D02*
X140880600Y-104536600D01*
X157580600Y-127236600D02*
X157580600Y-104536600D01*
%TO.C,J2*%
X144458000Y-138680000D02*
X143578000Y-138680000D01*
X144018000Y-138070000D01*
X144458000Y-138680000D01*
G36*
X144458000Y-138680000D02*
G01*
X143578000Y-138680000D01*
X144018000Y-138070000D01*
X144458000Y-138680000D01*
G37*
X156838000Y-138070000D02*
X144318000Y-138070000D01*
X156838000Y-128030000D02*
X156838000Y-138070000D01*
X143718000Y-138070000D02*
X141358000Y-138070000D01*
X141358000Y-138070000D02*
X141358000Y-128030000D01*
X141358000Y-137450000D02*
X156838000Y-137450000D01*
X141358000Y-135950000D02*
X156838000Y-135950000D01*
X141358000Y-131050000D02*
X156838000Y-131050000D01*
X141358000Y-128030000D02*
X156838000Y-128030000D01*
%TO.C,R4*%
X140849600Y-91898800D02*
X140849600Y-92228800D01*
X140849600Y-94638800D02*
X140849600Y-94308800D01*
X147389600Y-91898800D02*
X140849600Y-91898800D01*
X147389600Y-92228800D02*
X147389600Y-91898800D01*
X147389600Y-94308800D02*
X147389600Y-94638800D01*
X147389600Y-94638800D02*
X140849600Y-94638800D01*
%TD*%
M02*
